<svg width="1346" height="435" viewBox="0 0 1346 435" xmlns="http://www.w3.org/2000/svg">
<rect x="0" y="0" width="1346" height="435" opacity="1" fill="#FFFFFF" stroke="none"/>
<line opacity="0.1" stroke="#000000" stroke-width="1" x1="117" y1="339" x2="117" y2="40"/>
<line opacity="0.1" stroke="#000000" stroke-width="1" x1="152" y1="339" x2="152" y2="40"/>
<line opacity="0.1" stroke="#000000" stroke-width="1" x1="188" y1="339" x2="188" y2="40"/>
<line opacity="0.1" stroke="#000000" stroke-width="1" x1="223" y1="339" x2="223" y2="40"/>
<line opacity="0.1" stroke="#000000" stroke-width="1" x1="258" y1="339" x2="258" y2="40"/>
<line opacity="0.1" stroke="#000000" stroke-width="1" x1="294" y1="339" x2="294" y2="40"/>
<line opacity="0.1" stroke="#000000" stroke-width="1" x1="329" y1="339" x2="329" y2="40"/>
<line opacity="0.1" stroke="#000000" stroke-width="1" x1="365" y1="339" x2="365" y2="40"/>
<line opacity="0.1" stroke="#000000" stroke-width="1" x1="400" y1="339" x2="400" y2="40"/>
<line opacity="0.1" stroke="#000000" stroke-width="1" x1="435" y1="339" x2="435" y2="40"/>
<line opacity="0.1" stroke="#000000" stroke-width="1" x1="471" y1="339" x2="471" y2="40"/>
<line opacity="0.1" stroke="#000000" stroke-width="1" x1="506" y1="339" x2="506" y2="40"/>
<line opacity="0.1" stroke="#000000" stroke-width="1" x1="542" y1="339" x2="542" y2="40"/>
<line opacity="0.1" stroke="#000000" stroke-width="1" x1="577" y1="339" x2="577" y2="40"/>
<line opacity="0.1" stroke="#000000" stroke-width="1" x1="612" y1="339" x2="612" y2="40"/>
<line opacity="0.1" stroke="#000000" stroke-width="1" x1="648" y1="339" x2="648" y2="40"/>
<line opacity="0.1" stroke="#000000" stroke-width="1" x1="683" y1="339" x2="683" y2="40"/>
<line opacity="0.1" stroke="#000000" stroke-width="1" x1="719" y1="339" x2="719" y2="40"/>
<line opacity="0.1" stroke="#000000" stroke-width="1" x1="754" y1="339" x2="754" y2="40"/>
<line opacity="0.1" stroke="#000000" stroke-width="1" x1="789" y1="339" x2="789" y2="40"/>
<line opacity="0.1" stroke="#000000" stroke-width="1" x1="825" y1="339" x2="825" y2="40"/>
<line opacity="0.1" stroke="#000000" stroke-width="1" x1="860" y1="339" x2="860" y2="40"/>
<line opacity="0.1" stroke="#000000" stroke-width="1" x1="896" y1="339" x2="896" y2="40"/>
<line opacity="0.1" stroke="#000000" stroke-width="1" x1="931" y1="339" x2="931" y2="40"/>
<line opacity="0.1" stroke="#000000" stroke-width="1" x1="966" y1="339" x2="966" y2="40"/>
<line opacity="0.1" stroke="#000000" stroke-width="1" x1="1002" y1="339" x2="1002" y2="40"/>
<line opacity="0.1" stroke="#000000" stroke-width="1" x1="1037" y1="339" x2="1037" y2="40"/>
<line opacity="0.1" stroke="#000000" stroke-width="1" x1="1073" y1="339" x2="1073" y2="40"/>
<line opacity="0.1" stroke="#000000" stroke-width="1" x1="1108" y1="339" x2="1108" y2="40"/>
<line opacity="0.1" stroke="#000000" stroke-width="1" x1="1143" y1="339" x2="1143" y2="40"/>
<line opacity="0.1" stroke="#000000" stroke-width="1" x1="1179" y1="339" x2="1179" y2="40"/>
<line opacity="0.1" stroke="#000000" stroke-width="1" x1="1214" y1="339" x2="1214" y2="40"/>
<line opacity="0.1" stroke="#000000" stroke-width="1" x1="1250" y1="339" x2="1250" y2="40"/>
<line opacity="0.1" stroke="#000000" stroke-width="1" x1="1285" y1="339" x2="1285" y2="40"/>
<line opacity="0.1" stroke="#000000" stroke-width="1" x1="116" y1="338" x2="1315" y2="338"/>
<line opacity="0.1" stroke="#000000" stroke-width="1" x1="116" y1="331" x2="1315" y2="331"/>
<line opacity="0.1" stroke="#000000" stroke-width="1" x1="116" y1="324" x2="1315" y2="324"/>
<line opacity="0.1" stroke="#000000" stroke-width="1" x1="116" y1="317" x2="1315" y2="317"/>
<line opacity="0.1" stroke="#000000" stroke-width="1" x1="116" y1="310" x2="1315" y2="310"/>
<line opacity="0.1" stroke="#000000" stroke-width="1" x1="116" y1="302" x2="1315" y2="302"/>
<line opacity="0.1" stroke="#000000" stroke-width="1" x1="116" y1="295" x2="1315" y2="295"/>
<line opacity="0.1" stroke="#000000" stroke-width="1" x1="116" y1="288" x2="1315" y2="288"/>
<line opacity="0.1" stroke="#000000" stroke-width="1" x1="116" y1="281" x2="1315" y2="281"/>
<line opacity="0.1" stroke="#000000" stroke-width="1" x1="116" y1="274" x2="1315" y2="274"/>
<line opacity="0.1" stroke="#000000" stroke-width="1" x1="116" y1="267" x2="1315" y2="267"/>
<line opacity="0.1" stroke="#000000" stroke-width="1" x1="116" y1="260" x2="1315" y2="260"/>
<line opacity="0.1" stroke="#000000" stroke-width="1" x1="116" y1="253" x2="1315" y2="253"/>
<line opacity="0.1" stroke="#000000" stroke-width="1" x1="116" y1="246" x2="1315" y2="246"/>
<line opacity="0.1" stroke="#000000" stroke-width="1" x1="116" y1="239" x2="1315" y2="239"/>
<line opacity="0.1" stroke="#000000" stroke-width="1" x1="116" y1="232" x2="1315" y2="232"/>
<line opacity="0.1" stroke="#000000" stroke-width="1" x1="116" y1="225" x2="1315" y2="225"/>
<line opacity="0.1" stroke="#000000" stroke-width="1" x1="116" y1="218" x2="1315" y2="218"/>
<line opacity="0.1" stroke="#000000" stroke-width="1" x1="116" y1="211" x2="1315" y2="211"/>
<line opacity="0.1" stroke="#000000" stroke-width="1" x1="116" y1="204" x2="1315" y2="204"/>
<line opacity="0.1" stroke="#000000" stroke-width="1" x1="116" y1="197" x2="1315" y2="197"/>
<line opacity="0.1" stroke="#000000" stroke-width="1" x1="116" y1="189" x2="1315" y2="189"/>
<line opacity="0.1" stroke="#000000" stroke-width="1" x1="116" y1="182" x2="1315" y2="182"/>
<line opacity="0.1" stroke="#000000" stroke-width="1" x1="116" y1="175" x2="1315" y2="175"/>
<line opacity="0.1" stroke="#000000" stroke-width="1" x1="116" y1="168" x2="1315" y2="168"/>
<line opacity="0.1" stroke="#000000" stroke-width="1" x1="116" y1="161" x2="1315" y2="161"/>
<line opacity="0.1" stroke="#000000" stroke-width="1" x1="116" y1="154" x2="1315" y2="154"/>
<line opacity="0.1" stroke="#000000" stroke-width="1" x1="116" y1="147" x2="1315" y2="147"/>
<line opacity="0.1" stroke="#000000" stroke-width="1" x1="116" y1="140" x2="1315" y2="140"/>
<line opacity="0.1" stroke="#000000" stroke-width="1" x1="116" y1="133" x2="1315" y2="133"/>
<line opacity="0.1" stroke="#000000" stroke-width="1" x1="116" y1="126" x2="1315" y2="126"/>
<line opacity="0.1" stroke="#000000" stroke-width="1" x1="116" y1="119" x2="1315" y2="119"/>
<line opacity="0.1" stroke="#000000" stroke-width="1" x1="116" y1="112" x2="1315" y2="112"/>
<line opacity="0.1" stroke="#000000" stroke-width="1" x1="116" y1="105" x2="1315" y2="105"/>
<line opacity="0.1" stroke="#000000" stroke-width="1" x1="116" y1="98" x2="1315" y2="98"/>
<line opacity="0.1" stroke="#000000" stroke-width="1" x1="116" y1="91" x2="1315" y2="91"/>
<line opacity="0.1" stroke="#000000" stroke-width="1" x1="116" y1="84" x2="1315" y2="84"/>
<line opacity="0.1" stroke="#000000" stroke-width="1" x1="116" y1="77" x2="1315" y2="77"/>
<line opacity="0.1" stroke="#000000" stroke-width="1" x1="116" y1="69" x2="1315" y2="69"/>
<line opacity="0.1" stroke="#000000" stroke-width="1" x1="116" y1="62" x2="1315" y2="62"/>
<line opacity="0.1" stroke="#000000" stroke-width="1" x1="116" y1="55" x2="1315" y2="55"/>
<line opacity="0.1" stroke="#000000" stroke-width="1" x1="116" y1="48" x2="1315" y2="48"/>
<line opacity="0.1" stroke="#000000" stroke-width="1" x1="116" y1="41" x2="1315" y2="41"/>
<text x="10" y="190" dy="0.76em" text-anchor="middle" font-family="sans-serif" font-size="24.193548387096776" opacity="1" fill="#000000" transform="rotate(270, 10, 190)">
position in mm (y axis)
</text>
<text x="716" y="405" dy="-0.5ex" text-anchor="middle" font-family="sans-serif" font-size="24.193548387096776" opacity="1" fill="#000000">
position in mm (z axis)
</text>
<line opacity="0.2" stroke="#000000" stroke-width="1" x1="223" y1="339" x2="223" y2="40"/>
<line opacity="0.2" stroke="#000000" stroke-width="1" x1="577" y1="339" x2="577" y2="40"/>
<line opacity="0.2" stroke="#000000" stroke-width="1" x1="931" y1="339" x2="931" y2="40"/>
<line opacity="0.2" stroke="#000000" stroke-width="1" x1="1285" y1="339" x2="1285" y2="40"/>
<line opacity="0.2" stroke="#000000" stroke-width="1" x1="116" y1="317" x2="1315" y2="317"/>
<line opacity="0.2" stroke="#000000" stroke-width="1" x1="116" y1="246" x2="1315" y2="246"/>
<line opacity="0.2" stroke="#000000" stroke-width="1" x1="116" y1="175" x2="1315" y2="175"/>
<line opacity="0.2" stroke="#000000" stroke-width="1" x1="116" y1="105" x2="1315" y2="105"/>
<polyline fill="none" opacity="1" stroke="#000000" stroke-width="1" points="115,40 115,339 "/>
<text x="106" y="317" dy="0.5ex" text-anchor="end" font-family="sans-serif" font-size="24.193548387096776" opacity="1" fill="#000000">
-2000
</text>
<polyline fill="none" opacity="1" stroke="#000000" stroke-width="1" points="110,317 115,317 "/>
<text x="106" y="246" dy="0.5ex" text-anchor="end" font-family="sans-serif" font-size="24.193548387096776" opacity="1" fill="#000000">
-1000
</text>
<polyline fill="none" opacity="1" stroke="#000000" stroke-width="1" points="110,246 115,246 "/>
<text x="106" y="175" dy="0.5ex" text-anchor="end" font-family="sans-serif" font-size="24.193548387096776" opacity="1" fill="#000000">
0
</text>
<polyline fill="none" opacity="1" stroke="#000000" stroke-width="1" points="110,175 115,175 "/>
<text x="106" y="105" dy="0.5ex" text-anchor="end" font-family="sans-serif" font-size="24.193548387096776" opacity="1" fill="#000000">
1000
</text>
<polyline fill="none" opacity="1" stroke="#000000" stroke-width="1" points="110,105 115,105 "/>
<polyline fill="none" opacity="1" stroke="#000000" stroke-width="1" points="116,340 1315,340 "/>
<text x="223" y="350" dy="0.76em" text-anchor="middle" font-family="sans-serif" font-size="24.193548387096776" opacity="1" fill="#000000">
-5000
</text>
<polyline fill="none" opacity="1" stroke="#000000" stroke-width="1" points="223,340 223,345 "/>
<text x="577" y="350" dy="0.76em" text-anchor="middle" font-family="sans-serif" font-size="24.193548387096776" opacity="1" fill="#000000">
0
</text>
<polyline fill="none" opacity="1" stroke="#000000" stroke-width="1" points="577,340 577,345 "/>
<text x="931" y="350" dy="0.76em" text-anchor="middle" font-family="sans-serif" font-size="24.193548387096776" opacity="1" fill="#000000">
5000
</text>
<polyline fill="none" opacity="1" stroke="#000000" stroke-width="1" points="931,340 931,345 "/>
<text x="1285" y="350" dy="0.76em" text-anchor="middle" font-family="sans-serif" font-size="24.193548387096776" opacity="1" fill="#000000">
10000
</text>
<polyline fill="none" opacity="1" stroke="#000000" stroke-width="1" points="1285,340 1285,345 "/>
<polyline fill="none" opacity="1" stroke="#1F77B4" stroke-width="1" points="577,177 683,177 724,177 725,133 216,144 170,144 170,228 236,228 239,227 334,227 338,228 363,228 367,227 462,227 465,228 490,228 494,227 589,227 593,228 618,228 621,227 717,227 720,228 745,228 749,227 844,227 848,228 888,228 846,229 843,228 752,229 749,231 716,231 712,230 628,231 624,233 585,233 582,232 504,233 500,235 454,236 451,234 379,235 376,237 324,238 320,236 255,238 252,239 182,240 184,130 216,129 1207,120 1239,120 1237,272 "/>
<polyline fill="none" opacity="1" stroke="#1F77B4" stroke-width="1" points="577,176 683,176 725,176 726,133 216,138 175,138 175,234 244,234 247,232 327,232 330,234 371,234 374,232 454,232 457,234 498,234 502,232 581,232 585,234 626,234 629,232 709,232 712,234 753,234 757,232 836,232 840,234 888,234 838,235 835,233 760,234 756,236 708,237 704,235 636,236 632,238 577,239 574,237 511,239 508,240 446,241 443,240 387,241 384,242 316,243 312,242 263,243 259,244 187,245 189,124 216,124 1207,125 1244,125 1243,272 "/>
<polyline fill="none" opacity="1" stroke="#1F77B4" stroke-width="1" points="577,175 683,175 726,175 726,133 216,133 181,133 181,239 251,239 255,237 319,237 322,239 379,239 382,237 446,237 450,239 506,239 510,237 573,237 577,239 634,239 637,237 701,237 704,239 761,239 765,237 828,237 832,239 888,239 830,240 827,239 768,240 764,241 700,242 696,241 643,242 640,243 569,244 565,243 519,244 516,245 438,247 435,245 395,246 391,247 308,249 304,247 270,248 267,249 192,251 195,119 216,119 1207,130 1250,131 1248,272 "/>
<polyline fill="none" opacity="1" stroke="#1F77B4" stroke-width="1" points="577,174 683,174 726,175 726,133 216,128 186,128 186,244 259,244 263,243 311,243 314,244 387,244 390,243 438,243 442,244 514,244 518,243 566,243 569,244 642,244 645,243 693,243 697,244 769,244 772,243 820,243 824,244 889,244 822,245 819,244 775,245 772,246 692,248 688,246 651,247 648,248 561,250 557,248 527,249 523,250 430,252 427,251 402,251 399,252 300,254 296,253 278,253 275,254 198,256 200,114 216,113 1207,135 1255,136 1253,272 "/>
<polyline fill="none" opacity="1" stroke="#1F77B4" stroke-width="1" points="577,173 683,173 727,174 726,133 216,122 191,122 191,250 267,250 271,248 303,248 306,250 395,250 398,248 430,248 434,250 522,250 526,248 558,248 561,250 649,250 653,248 685,248 689,250 777,250 780,248 813,248 816,250 889,250 814,251 811,249 783,250 780,251 684,253 680,252 659,252 655,253 553,255 549,254 534,254 531,255 422,257 419,256 410,256 407,258 291,260 288,258 286,258 282,260 203,261 205,108 216,108 1207,141 1260,141 1258,272 "/>
</svg>
