<svg width="1346" height="935" viewBox="0 0 1346 935" xmlns="http://www.w3.org/2000/svg">
<rect x="0" y="0" width="1346" height="935" opacity="1" fill="#FFFFFF" stroke="none"/>
<line opacity="0.1" stroke="#000000" stroke-width="1" x1="116" y1="839" x2="116" y2="40"/>
<line opacity="0.1" stroke="#000000" stroke-width="1" x1="170" y1="839" x2="170" y2="40"/>
<line opacity="0.1" stroke="#000000" stroke-width="1" x1="224" y1="839" x2="224" y2="40"/>
<line opacity="0.1" stroke="#000000" stroke-width="1" x1="278" y1="839" x2="278" y2="40"/>
<line opacity="0.1" stroke="#000000" stroke-width="1" x1="333" y1="839" x2="333" y2="40"/>
<line opacity="0.1" stroke="#000000" stroke-width="1" x1="387" y1="839" x2="387" y2="40"/>
<line opacity="0.1" stroke="#000000" stroke-width="1" x1="441" y1="839" x2="441" y2="40"/>
<line opacity="0.1" stroke="#000000" stroke-width="1" x1="495" y1="839" x2="495" y2="40"/>
<line opacity="0.1" stroke="#000000" stroke-width="1" x1="550" y1="839" x2="550" y2="40"/>
<line opacity="0.1" stroke="#000000" stroke-width="1" x1="604" y1="839" x2="604" y2="40"/>
<line opacity="0.1" stroke="#000000" stroke-width="1" x1="658" y1="839" x2="658" y2="40"/>
<line opacity="0.1" stroke="#000000" stroke-width="1" x1="712" y1="839" x2="712" y2="40"/>
<line opacity="0.1" stroke="#000000" stroke-width="1" x1="767" y1="839" x2="767" y2="40"/>
<line opacity="0.1" stroke="#000000" stroke-width="1" x1="821" y1="839" x2="821" y2="40"/>
<line opacity="0.1" stroke="#000000" stroke-width="1" x1="875" y1="839" x2="875" y2="40"/>
<line opacity="0.1" stroke="#000000" stroke-width="1" x1="929" y1="839" x2="929" y2="40"/>
<line opacity="0.1" stroke="#000000" stroke-width="1" x1="983" y1="839" x2="983" y2="40"/>
<line opacity="0.1" stroke="#000000" stroke-width="1" x1="1038" y1="839" x2="1038" y2="40"/>
<line opacity="0.1" stroke="#000000" stroke-width="1" x1="1092" y1="839" x2="1092" y2="40"/>
<line opacity="0.1" stroke="#000000" stroke-width="1" x1="1146" y1="839" x2="1146" y2="40"/>
<line opacity="0.1" stroke="#000000" stroke-width="1" x1="1200" y1="839" x2="1200" y2="40"/>
<line opacity="0.1" stroke="#000000" stroke-width="1" x1="1255" y1="839" x2="1255" y2="40"/>
<line opacity="0.1" stroke="#000000" stroke-width="1" x1="1309" y1="839" x2="1309" y2="40"/>
<line opacity="0.1" stroke="#000000" stroke-width="1" x1="116" y1="827" x2="1315" y2="827"/>
<line opacity="0.1" stroke="#000000" stroke-width="1" x1="116" y1="803" x2="1315" y2="803"/>
<line opacity="0.1" stroke="#000000" stroke-width="1" x1="116" y1="779" x2="1315" y2="779"/>
<line opacity="0.1" stroke="#000000" stroke-width="1" x1="116" y1="755" x2="1315" y2="755"/>
<line opacity="0.1" stroke="#000000" stroke-width="1" x1="116" y1="731" x2="1315" y2="731"/>
<line opacity="0.1" stroke="#000000" stroke-width="1" x1="116" y1="706" x2="1315" y2="706"/>
<line opacity="0.1" stroke="#000000" stroke-width="1" x1="116" y1="682" x2="1315" y2="682"/>
<line opacity="0.1" stroke="#000000" stroke-width="1" x1="116" y1="658" x2="1315" y2="658"/>
<line opacity="0.1" stroke="#000000" stroke-width="1" x1="116" y1="634" x2="1315" y2="634"/>
<line opacity="0.1" stroke="#000000" stroke-width="1" x1="116" y1="609" x2="1315" y2="609"/>
<line opacity="0.1" stroke="#000000" stroke-width="1" x1="116" y1="585" x2="1315" y2="585"/>
<line opacity="0.1" stroke="#000000" stroke-width="1" x1="116" y1="561" x2="1315" y2="561"/>
<line opacity="0.1" stroke="#000000" stroke-width="1" x1="116" y1="537" x2="1315" y2="537"/>
<line opacity="0.1" stroke="#000000" stroke-width="1" x1="116" y1="513" x2="1315" y2="513"/>
<line opacity="0.1" stroke="#000000" stroke-width="1" x1="116" y1="488" x2="1315" y2="488"/>
<line opacity="0.1" stroke="#000000" stroke-width="1" x1="116" y1="464" x2="1315" y2="464"/>
<line opacity="0.1" stroke="#000000" stroke-width="1" x1="116" y1="440" x2="1315" y2="440"/>
<line opacity="0.1" stroke="#000000" stroke-width="1" x1="116" y1="416" x2="1315" y2="416"/>
<line opacity="0.1" stroke="#000000" stroke-width="1" x1="116" y1="392" x2="1315" y2="392"/>
<line opacity="0.1" stroke="#000000" stroke-width="1" x1="116" y1="367" x2="1315" y2="367"/>
<line opacity="0.1" stroke="#000000" stroke-width="1" x1="116" y1="343" x2="1315" y2="343"/>
<line opacity="0.1" stroke="#000000" stroke-width="1" x1="116" y1="319" x2="1315" y2="319"/>
<line opacity="0.1" stroke="#000000" stroke-width="1" x1="116" y1="295" x2="1315" y2="295"/>
<line opacity="0.1" stroke="#000000" stroke-width="1" x1="116" y1="271" x2="1315" y2="271"/>
<line opacity="0.1" stroke="#000000" stroke-width="1" x1="116" y1="246" x2="1315" y2="246"/>
<line opacity="0.1" stroke="#000000" stroke-width="1" x1="116" y1="222" x2="1315" y2="222"/>
<line opacity="0.1" stroke="#000000" stroke-width="1" x1="116" y1="198" x2="1315" y2="198"/>
<line opacity="0.1" stroke="#000000" stroke-width="1" x1="116" y1="174" x2="1315" y2="174"/>
<line opacity="0.1" stroke="#000000" stroke-width="1" x1="116" y1="149" x2="1315" y2="149"/>
<line opacity="0.1" stroke="#000000" stroke-width="1" x1="116" y1="125" x2="1315" y2="125"/>
<line opacity="0.1" stroke="#000000" stroke-width="1" x1="116" y1="101" x2="1315" y2="101"/>
<line opacity="0.1" stroke="#000000" stroke-width="1" x1="116" y1="77" x2="1315" y2="77"/>
<line opacity="0.1" stroke="#000000" stroke-width="1" x1="116" y1="53" x2="1315" y2="53"/>
<text x="10" y="440" dy="0.76em" text-anchor="middle" font-family="sans-serif" font-size="24.193548387096776" opacity="1" fill="#000000" transform="rotate(270, 10, 440)">
spectrum in arb. units
</text>
<text x="716" y="905" dy="-0.5ex" text-anchor="middle" font-family="sans-serif" font-size="24.193548387096776" opacity="1" fill="#000000">
wavelength in nm
</text>
<line opacity="0.2" stroke="#000000" stroke-width="1" x1="278" y1="839" x2="278" y2="40"/>
<line opacity="0.2" stroke="#000000" stroke-width="1" x1="495" y1="839" x2="495" y2="40"/>
<line opacity="0.2" stroke="#000000" stroke-width="1" x1="712" y1="839" x2="712" y2="40"/>
<line opacity="0.2" stroke="#000000" stroke-width="1" x1="929" y1="839" x2="929" y2="40"/>
<line opacity="0.2" stroke="#000000" stroke-width="1" x1="1146" y1="839" x2="1146" y2="40"/>
<line opacity="0.2" stroke="#000000" stroke-width="1" x1="116" y1="803" x2="1315" y2="803"/>
<line opacity="0.2" stroke="#000000" stroke-width="1" x1="116" y1="561" x2="1315" y2="561"/>
<line opacity="0.2" stroke="#000000" stroke-width="1" x1="116" y1="319" x2="1315" y2="319"/>
<line opacity="0.2" stroke="#000000" stroke-width="1" x1="116" y1="77" x2="1315" y2="77"/>
<polyline fill="none" opacity="1" stroke="#000000" stroke-width="1" points="115,40 115,839 "/>
<text x="106" y="803" dy="0.5ex" text-anchor="end" font-family="sans-serif" font-size="24.193548387096776" opacity="1" fill="#000000">
0
</text>
<polyline fill="none" opacity="1" stroke="#000000" stroke-width="1" points="110,803 115,803 "/>
<text x="106" y="561" dy="0.5ex" text-anchor="end" font-family="sans-serif" font-size="24.193548387096776" opacity="1" fill="#000000">
200
</text>
<polyline fill="none" opacity="1" stroke="#000000" stroke-width="1" points="110,561 115,561 "/>
<text x="106" y="319" dy="0.5ex" text-anchor="end" font-family="sans-serif" font-size="24.193548387096776" opacity="1" fill="#000000">
400
</text>
<polyline fill="none" opacity="1" stroke="#000000" stroke-width="1" points="110,319 115,319 "/>
<text x="106" y="77" dy="0.5ex" text-anchor="end" font-family="sans-serif" font-size="24.193548387096776" opacity="1" fill="#000000">
600
</text>
<polyline fill="none" opacity="1" stroke="#000000" stroke-width="1" points="110,77 115,77 "/>
<polyline fill="none" opacity="1" stroke="#000000" stroke-width="1" points="116,840 1315,840 "/>
<text x="278" y="850" dy="0.76em" text-anchor="middle" font-family="sans-serif" font-size="24.193548387096776" opacity="1" fill="#000000">
960
</text>
<polyline fill="none" opacity="1" stroke="#000000" stroke-width="1" points="278,840 278,845 "/>
<text x="495" y="850" dy="0.76em" text-anchor="middle" font-family="sans-serif" font-size="24.193548387096776" opacity="1" fill="#000000">
980
</text>
<polyline fill="none" opacity="1" stroke="#000000" stroke-width="1" points="495,840 495,845 "/>
<text x="712" y="850" dy="0.76em" text-anchor="middle" font-family="sans-serif" font-size="24.193548387096776" opacity="1" fill="#000000">
1000
</text>
<polyline fill="none" opacity="1" stroke="#000000" stroke-width="1" points="712,840 712,845 "/>
<text x="929" y="850" dy="0.76em" text-anchor="middle" font-family="sans-serif" font-size="24.193548387096776" opacity="1" fill="#000000">
1020
</text>
<polyline fill="none" opacity="1" stroke="#000000" stroke-width="1" points="929,840 929,845 "/>
<text x="1146" y="850" dy="0.76em" text-anchor="middle" font-family="sans-serif" font-size="24.193548387096776" opacity="1" fill="#000000">
1040
</text>
<polyline fill="none" opacity="1" stroke="#000000" stroke-width="1" points="1146,840 1146,845 "/>
<polyline fill="none" opacity="1" stroke="#1F77B4" stroke-width="1" points="170,803 170,803 170,77 175,77 175,803 181,803 181,803 186,803 186,803 192,803 192,803 197,803 197,803 203,803 203,803 208,803 208,803 213,803 213,803 219,803 219,803 224,803 224,803 230,803 230,803 235,803 235,803 240,803 240,803 246,803 246,803 251,803 251,803 257,803 257,803 262,803 262,803 268,803 268,803 273,803 273,803 278,803 278,803 284,803 284,803 289,803 289,803 295,803 295,803 300,803 300,803 306,803 306,803 311,803 311,803 316,803 316,803 322,803 322,803 327,803 327,803 333,803 333,803 338,803 338,803 344,803 344,803 349,803 349,803 354,803 354,803 360,803 360,803 365,803 365,803 371,803 371,803 376,803 376,803 381,803 381,803 387,803 387,803 392,803 392,803 398,803 398,803 403,803 403,803 409,803 409,803 414,803 414,803 419,803 419,803 425,803 425,803 430,803 430,803 436,803 436,803 441,803 441,803 447,803 447,803 452,803 452,803 457,803 457,803 463,803 463,803 468,803 468,803 474,803 474,803 479,803 479,803 485,803 485,803 490,803 490,803 495,803 495,803 501,803 501,803 506,803 506,803 512,803 512,803 517,803 517,803 522,803 522,803 528,803 528,803 533,803 533,803 539,803 539,803 544,803 544,803 550,803 550,803 555,803 555,803 560,803 560,803 566,803 566,803 571,803 571,803 577,803 577,803 582,803 582,803 588,803 588,803 593,803 593,803 598,803 598,803 604,803 604,803 609,803 609,803 615,803 615,803 620,803 620,803 626,803 626,803 631,803 631,803 636,803 636,803 642,803 642,803 647,803 647,803 653,803 653,803 658,803 658,803 663,803 663,803 669,803 669,803 674,803 674,803 680,803 680,803 685,803 685,803 691,803 691,803 696,803 696,803 701,803 701,803 707,803 707,803 712,803 712,803 718,803 718,803 723,803 723,803 729,803 729,803 734,803 734,803 739,803 739,803 745,803 745,803 750,803 750,803 756,803 756,803 761,803 761,803 767,803 767,803 772,803 772,803 777,803 777,803 783,803 783,803 788,803 788,803 794,803 794,803 799,803 799,803 804,803 804,803 810,803 810,803 815,803 815,803 821,803 821,803 826,803 826,803 832,803 832,803 837,803 837,803 842,803 842,803 848,803 848,803 853,803 853,803 859,803 859,803 864,803 864,803 870,803 870,803 875,803 875,803 880,803 880,803 886,803 886,803 891,803 891,803 897,803 897,803 902,803 902,803 908,803 908,803 913,803 913,803 918,803 918,803 924,803 924,803 929,803 929,803 935,803 935,803 940,803 940,803 945,803 945,803 951,803 951,803 956,803 956,803 962,803 962,803 967,803 967,803 973,803 973,803 978,803 978,803 983,803 983,803 989,803 989,803 994,803 994,803 1000,803 1000,803 1005,803 1005,803 1011,803 1011,803 1016,803 1016,803 1021,803 1021,803 1027,803 1027,803 1032,803 1032,803 1038,803 1038,803 1043,803 1043,803 1049,803 1049,803 1054,803 1054,803 1059,803 1059,803 1065,803 1065,803 1070,803 1070,803 1076,803 1076,803 1081,803 1081,803 1086,803 1086,803 1092,803 1092,803 1097,803 1097,803 1103,803 1103,803 1108,803 1108,803 1114,803 1114,803 1119,803 1119,803 1124,803 1124,803 1130,803 1130,803 1135,803 1135,803 1141,803 1141,803 1146,803 1146,803 1152,803 1152,803 1157,803 1157,803 1162,803 1162,803 1168,803 1168,803 1173,803 1173,803 1179,803 1179,803 1184,803 1184,803 1190,803 1190,803 1195,803 1195,803 1200,803 1200,803 1206,803 1206,803 1211,803 1211,803 1217,803 1217,803 1222,803 1222,803 1227,803 1227,803 1233,803 1233,803 1238,803 1238,803 1244,803 1244,803 1249,803 1249,803 1255,803 1255,803 1260,803 1260,803 "/>
</svg>
