<?xml version="1.0" encoding="UTF-8" standalone="no"?>
<svg
   width="1346"
   height="435"
   viewBox="0 0 1346 435"
   version="1.1"
   id="svg297"
   sodipodi:docname="workshop__04_Ray plot.svg"
   inkscape:version="1.4 (86a8ad7, 2024-10-11)"
   inkscape:export-filename="workshop__04_Ray plot.png"
   inkscape:export-xdpi="96"
   inkscape:export-ydpi="96"
   xmlns:inkscape="http://www.inkscape.org/namespaces/inkscape"
   xmlns:sodipodi="http://sodipodi.sourceforge.net/DTD/sodipodi-0.dtd"
   xmlns="http://www.w3.org/2000/svg"
   xmlns:svg="http://www.w3.org/2000/svg">
  <defs
     id="defs297" />
  <sodipodi:namedview
     id="namedview297"
     pagecolor="#ffffff"
     bordercolor="#000000"
     borderopacity="0.25"
     inkscape:showpageshadow="2"
     inkscape:pageopacity="0.0"
     inkscape:pagecheckerboard="0"
     inkscape:deskcolor="#d1d1d1"
     showgrid="false"
     inkscape:zoom="0.66455429"
     inkscape:cx="673.38366"
     inkscape:cy="217.43897"
     inkscape:window-width="1920"
     inkscape:window-height="1147"
     inkscape:window-x="-8"
     inkscape:window-y="-8"
     inkscape:window-maximized="1"
     inkscape:current-layer="svg297" />
  <line
     opacity="0.1"
     stroke="#000000"
     stroke-width="1"
     x1="130"
     y1="339"
     x2="130"
     y2="40"
     id="line1" />
  <line
     opacity="0.1"
     stroke="#000000"
     stroke-width="1"
     x1="170"
     y1="339"
     x2="170"
     y2="40"
     id="line2" />
  <line
     opacity="0.1"
     stroke="#000000"
     stroke-width="1"
     x1="210"
     y1="339"
     x2="210"
     y2="40"
     id="line3" />
  <line
     opacity="0.1"
     stroke="#000000"
     stroke-width="1"
     x1="250"
     y1="339"
     x2="250"
     y2="40"
     id="line4" />
  <line
     opacity="0.1"
     stroke="#000000"
     stroke-width="1"
     x1="290"
     y1="339"
     x2="290"
     y2="40"
     id="line5" />
  <line
     opacity="0.1"
     stroke="#000000"
     stroke-width="1"
     x1="330"
     y1="339"
     x2="330"
     y2="40"
     id="line6" />
  <line
     opacity="0.1"
     stroke="#000000"
     stroke-width="1"
     x1="370"
     y1="339"
     x2="370"
     y2="40"
     id="line7" />
  <line
     opacity="0.1"
     stroke="#000000"
     stroke-width="1"
     x1="410"
     y1="339"
     x2="410"
     y2="40"
     id="line8" />
  <line
     opacity="0.1"
     stroke="#000000"
     stroke-width="1"
     x1="449"
     y1="339"
     x2="449"
     y2="40"
     id="line9" />
  <line
     opacity="0.1"
     stroke="#000000"
     stroke-width="1"
     x1="489"
     y1="339"
     x2="489"
     y2="40"
     id="line10" />
  <line
     opacity="0.1"
     stroke="#000000"
     stroke-width="1"
     x1="529"
     y1="339"
     x2="529"
     y2="40"
     id="line11" />
  <line
     opacity="0.1"
     stroke="#000000"
     stroke-width="1"
     x1="569"
     y1="339"
     x2="569"
     y2="40"
     id="line12" />
  <line
     opacity="0.1"
     stroke="#000000"
     stroke-width="1"
     x1="609"
     y1="339"
     x2="609"
     y2="40"
     id="line13" />
  <line
     opacity="0.1"
     stroke="#000000"
     stroke-width="1"
     x1="649"
     y1="339"
     x2="649"
     y2="40"
     id="line14" />
  <line
     opacity="0.1"
     stroke="#000000"
     stroke-width="1"
     x1="689"
     y1="339"
     x2="689"
     y2="40"
     id="line15" />
  <line
     opacity="0.1"
     stroke="#000000"
     stroke-width="1"
     x1="729"
     y1="339"
     x2="729"
     y2="40"
     id="line16" />
  <line
     opacity="0.1"
     stroke="#000000"
     stroke-width="1"
     x1="769"
     y1="339"
     x2="769"
     y2="40"
     id="line17" />
  <line
     opacity="0.1"
     stroke="#000000"
     stroke-width="1"
     x1="809"
     y1="339"
     x2="809"
     y2="40"
     id="line18" />
  <line
     opacity="0.1"
     stroke="#000000"
     stroke-width="1"
     x1="849"
     y1="339"
     x2="849"
     y2="40"
     id="line19" />
  <line
     opacity="0.1"
     stroke="#000000"
     stroke-width="1"
     x1="889"
     y1="339"
     x2="889"
     y2="40"
     id="line20" />
  <line
     opacity="0.1"
     stroke="#000000"
     stroke-width="1"
     x1="929"
     y1="339"
     x2="929"
     y2="40"
     id="line21" />
  <line
     opacity="0.1"
     stroke="#000000"
     stroke-width="1"
     x1="969"
     y1="339"
     x2="969"
     y2="40"
     id="line22" />
  <line
     opacity="0.1"
     stroke="#000000"
     stroke-width="1"
     x1="1008"
     y1="339"
     x2="1008"
     y2="40"
     id="line23" />
  <line
     opacity="0.1"
     stroke="#000000"
     stroke-width="1"
     x1="1048"
     y1="339"
     x2="1048"
     y2="40"
     id="line24" />
  <line
     opacity="0.1"
     stroke="#000000"
     stroke-width="1"
     x1="1088"
     y1="339"
     x2="1088"
     y2="40"
     id="line25" />
  <line
     opacity="0.1"
     stroke="#000000"
     stroke-width="1"
     x1="1128"
     y1="339"
     x2="1128"
     y2="40"
     id="line26" />
  <line
     opacity="0.1"
     stroke="#000000"
     stroke-width="1"
     x1="1168"
     y1="339"
     x2="1168"
     y2="40"
     id="line27" />
  <line
     opacity="0.1"
     stroke="#000000"
     stroke-width="1"
     x1="1208"
     y1="339"
     x2="1208"
     y2="40"
     id="line28" />
  <line
     opacity="0.1"
     stroke="#000000"
     stroke-width="1"
     x1="1248"
     y1="339"
     x2="1248"
     y2="40"
     id="line29" />
  <line
     opacity="0.1"
     stroke="#000000"
     stroke-width="1"
     x1="1288"
     y1="339"
     x2="1288"
     y2="40"
     id="line30" />
  <line
     opacity="0.1"
     stroke="#000000"
     stroke-width="1"
     x1="116"
     y1="333"
     x2="1315"
     y2="333"
     id="line31" />
  <line
     opacity="0.1"
     stroke="#000000"
     stroke-width="1"
     x1="116"
     y1="325"
     x2="1315"
     y2="325"
     id="line32" />
  <line
     opacity="0.1"
     stroke="#000000"
     stroke-width="1"
     x1="116"
     y1="317"
     x2="1315"
     y2="317"
     id="line33" />
  <line
     opacity="0.1"
     stroke="#000000"
     stroke-width="1"
     x1="116"
     y1="309"
     x2="1315"
     y2="309"
     id="line34" />
  <line
     opacity="0.1"
     stroke="#000000"
     stroke-width="1"
     x1="116"
     y1="302"
     x2="1315"
     y2="302"
     id="line35" />
  <line
     opacity="0.1"
     stroke="#000000"
     stroke-width="1"
     x1="116"
     y1="294"
     x2="1315"
     y2="294"
     id="line36" />
  <line
     opacity="0.1"
     stroke="#000000"
     stroke-width="1"
     x1="116"
     y1="286"
     x2="1315"
     y2="286"
     id="line37" />
  <line
     opacity="0.1"
     stroke="#000000"
     stroke-width="1"
     x1="116"
     y1="278"
     x2="1315"
     y2="278"
     id="line38" />
  <line
     opacity="0.1"
     stroke="#000000"
     stroke-width="1"
     x1="116"
     y1="270"
     x2="1315"
     y2="270"
     id="line39" />
  <line
     opacity="0.1"
     stroke="#000000"
     stroke-width="1"
     x1="116"
     y1="262"
     x2="1315"
     y2="262"
     id="line40" />
  <line
     opacity="0.1"
     stroke="#000000"
     stroke-width="1"
     x1="116"
     y1="254"
     x2="1315"
     y2="254"
     id="line41" />
  <line
     opacity="0.1"
     stroke="#000000"
     stroke-width="1"
     x1="116"
     y1="246"
     x2="1315"
     y2="246"
     id="line42" />
  <line
     opacity="0.1"
     stroke="#000000"
     stroke-width="1"
     x1="116"
     y1="238"
     x2="1315"
     y2="238"
     id="line43" />
  <line
     opacity="0.1"
     stroke="#000000"
     stroke-width="1"
     x1="116"
     y1="230"
     x2="1315"
     y2="230"
     id="line44" />
  <line
     opacity="0.1"
     stroke="#000000"
     stroke-width="1"
     x1="116"
     y1="222"
     x2="1315"
     y2="222"
     id="line45" />
  <line
     opacity="0.1"
     stroke="#000000"
     stroke-width="1"
     x1="116"
     y1="214"
     x2="1315"
     y2="214"
     id="line46" />
  <line
     opacity="0.1"
     stroke="#000000"
     stroke-width="1"
     x1="116"
     y1="206"
     x2="1315"
     y2="206"
     id="line47" />
  <line
     opacity="0.1"
     stroke="#000000"
     stroke-width="1"
     x1="116"
     y1="198"
     x2="1315"
     y2="198"
     id="line48" />
  <line
     opacity="0.1"
     stroke="#000000"
     stroke-width="1"
     x1="116"
     y1="190"
     x2="1315"
     y2="190"
     id="line49" />
  <line
     opacity="0.1"
     stroke="#000000"
     stroke-width="1"
     x1="116"
     y1="182"
     x2="1315"
     y2="182"
     id="line50" />
  <line
     opacity="0.1"
     stroke="#000000"
     stroke-width="1"
     x1="116"
     y1="174"
     x2="1315"
     y2="174"
     id="line51" />
  <line
     opacity="0.1"
     stroke="#000000"
     stroke-width="1"
     x1="116"
     y1="166"
     x2="1315"
     y2="166"
     id="line52" />
  <line
     opacity="0.1"
     stroke="#000000"
     stroke-width="1"
     x1="116"
     y1="158"
     x2="1315"
     y2="158"
     id="line53" />
  <line
     opacity="0.1"
     stroke="#000000"
     stroke-width="1"
     x1="116"
     y1="150"
     x2="1315"
     y2="150"
     id="line54" />
  <line
     opacity="0.1"
     stroke="#000000"
     stroke-width="1"
     x1="116"
     y1="142"
     x2="1315"
     y2="142"
     id="line55" />
  <line
     opacity="0.1"
     stroke="#000000"
     stroke-width="1"
     x1="116"
     y1="134"
     x2="1315"
     y2="134"
     id="line56" />
  <line
     opacity="0.1"
     stroke="#000000"
     stroke-width="1"
     x1="116"
     y1="126"
     x2="1315"
     y2="126"
     id="line57" />
  <line
     opacity="0.1"
     stroke="#000000"
     stroke-width="1"
     x1="116"
     y1="118"
     x2="1315"
     y2="118"
     id="line58" />
  <line
     opacity="0.1"
     stroke="#000000"
     stroke-width="1"
     x1="116"
     y1="110"
     x2="1315"
     y2="110"
     id="line59" />
  <line
     opacity="0.1"
     stroke="#000000"
     stroke-width="1"
     x1="116"
     y1="102"
     x2="1315"
     y2="102"
     id="line60" />
  <line
     opacity="0.1"
     stroke="#000000"
     stroke-width="1"
     x1="116"
     y1="94"
     x2="1315"
     y2="94"
     id="line61" />
  <line
     opacity="0.1"
     stroke="#000000"
     stroke-width="1"
     x1="116"
     y1="86"
     x2="1315"
     y2="86"
     id="line62" />
  <line
     opacity="0.1"
     stroke="#000000"
     stroke-width="1"
     x1="116"
     y1="78"
     x2="1315"
     y2="78"
     id="line63" />
  <line
     opacity="0.1"
     stroke="#000000"
     stroke-width="1"
     x1="116"
     y1="71"
     x2="1315"
     y2="71"
     id="line64" />
  <line
     opacity="0.1"
     stroke="#000000"
     stroke-width="1"
     x1="116"
     y1="63"
     x2="1315"
     y2="63"
     id="line65" />
  <line
     opacity="0.1"
     stroke="#000000"
     stroke-width="1"
     x1="116"
     y1="55"
     x2="1315"
     y2="55"
     id="line66" />
  <line
     opacity="0.1"
     stroke="#000000"
     stroke-width="1"
     x1="116"
     y1="47"
     x2="1315"
     y2="47"
     id="line67" />
  <path
     d="m -117.49456,201.62991 q 0,1.60661 -0.46072,2.9415 -0.46072,1.32309 -1.29946,2.24452 -0.77967,0.87418 -1.84287,1.35853 -1.05138,0.47253 -2.2327,0.47253 -1.02776,0 -1.8665,-0.22445 -0.82693,-0.22446 -1.68929,-0.69699 v 5.52861 h -2.2209 v -18.06247 h 2.2209 v 1.38215 q 0.88599,-0.74423 1.98462,-1.24039 1.11045,-0.50797 2.36265,-0.50797 2.38628,0 3.70937,1.80743 1.3349,1.79561 1.3349,4.997 z m -2.29178,0.0591 q 0,-2.38628 -0.81511,-3.5676 -0.81512,-1.18133 -2.50441,-1.18133 -0.95688,0 -1.92556,0.41347 -0.96869,0.41346 -1.85468,1.08681 v 7.4778 q 0.94506,0.42527 1.61841,0.57885 0.68517,0.15357 1.54754,0.15357 1.85468,0 2.89425,-1.25221 1.03956,-1.2522 1.03956,-3.70936 z m 16.99928,0.10632 q 0,3.22502 -1.65386,5.09151 -1.65385,1.8665 -4.42997,1.8665 -2.79974,0 -4.4536,-1.8665 -1.64204,-1.86649 -1.64204,-5.09151 0,-3.22502 1.64204,-5.09151 1.65386,-1.87831 4.4536,-1.87831 2.77612,0 4.42997,1.87831 1.65386,1.86649 1.65386,5.09151 z m -2.29177,0 q 0,-2.56348 -1.00413,-3.80387 -1.00413,-1.2522 -2.78793,-1.2522 -1.80743,0 -2.81155,1.2522 -0.99232,1.24039 -0.99232,3.80387 0,2.48078 1.00413,3.76843 1.00413,1.27583 2.79974,1.27583 1.77199,0 2.77612,-1.26402 1.01594,-1.27583 1.01594,-3.78024 z m 15.156404,2.78793 q 0,1.80743 -1.500284,2.96513 -1.48847,1.15769 -4.075573,1.15769 -1.464844,0 -2.693422,-0.34258 -1.216766,-0.3544 -2.043695,-0.76786 v -2.4926 h 0.11813 q 1.051384,0.79149 2.339029,1.26402 1.287645,0.46072 2.46897,0.46072 1.464844,0 2.291772,-0.47253 0.826928,-0.47253 0.826928,-1.48847 0,-0.77968 -0.448904,-1.18133 -0.448904,-0.40165 -1.724735,-0.68517 -0.472531,-0.10632 -1.240392,-0.24808 -0.756049,-0.14176 -1.382151,-0.30714 -1.736549,-0.46072 -2.468971,-1.34671 -0.720606,-0.89781 -0.720606,-2.19727 0,-0.81511 0.330769,-1.53572 0.342584,-0.72061 1.027753,-1.28765 0.661543,-0.55522 1.677483,-0.87418 1.027753,-0.33077 2.291771,-0.33077 1.181326,0 2.386278,0.29533 1.216765,0.28352 2.020067,0.69699 v 2.37446 h -0.118133 q -0.850554,-0.6261 -2.06732,-1.05138 -1.216765,-0.43709 -2.386277,-0.43709 -1.216766,0 -2.055507,0.47253 -0.838741,0.46072 -0.838741,1.38215 0,0.81512 0.50797,1.22858 0.496157,0.41346 1.606603,0.67335 0.614289,0.14176 1.370337,0.28352 0.767862,0.14176 1.275832,0.25989 1.547537,0.3544 2.386278,1.21677 0.838741,0.87418 0.838741,2.3154 z m 5.564043,-11.60062 h -2.50441 v -2.30358 h 2.50441 z m -0.141759,15.40449 h -2.220892 v -13.19541 h 2.220892 z m 11.24622,-0.11814 q -0.626103,0.16539 -1.370338,0.27171 -0.732422,0.10632 -1.311271,0.10632 -2.020067,0 -3.071447,-1.08682 -1.05138,-1.08682 -1.05138,-3.48491 v -7.01708 h -1.500283 v -1.86649 h 1.500283 v -3.79206 h 2.220892 v 3.79206 h 4.583544 v 1.86649 h -4.583544 v 6.01295 q 0,1.03957 0.04725,1.63023 0.04725,0.57885 0.330772,1.08682 0.259891,0.47253 0.708795,0.69698 0.460717,0.21264 1.393964,0.21264 0.54341,0 1.134073,-0.15357 0.590662,-0.16539 0.850554,-0.27171 h 0.118133 z m 5.067887,-15.28635 h -2.50441 v -2.30358 h 2.50441 z m -0.141759,15.40449 h -2.220892 v -13.19541 h 2.220892 z m 15.640755,-6.5918 q 0,3.22502 -1.653856,5.09151 -1.653856,1.8665 -4.429971,1.8665 -2.799742,0 -4.453598,-1.8665 -1.642042,-1.86649 -1.642042,-5.09151 0,-3.22502 1.642042,-5.09151 1.653856,-1.87831 4.453598,-1.87831 2.776115,0 4.429971,1.87831 1.653856,1.86649 1.653856,5.09151 z m -2.291772,0 q 0,-2.56348 -1.004127,-3.80387 -1.004126,-1.2522 -2.787928,-1.2522 -1.807428,0 -2.811555,1.2522 -0.992314,1.24039 -0.992314,3.80387 0,2.48078 1.004127,3.76843 1.004127,1.27583 2.799742,1.27583 1.771988,0 2.776115,-1.26402 1.01594,-1.27583 1.01594,-3.78024 z m 16.763009,6.5918 h -2.220892 v -7.51323 q 0,-0.90963 -0.106319,-1.70111 -0.10632,-0.8033 -0.389838,-1.25221 -0.295331,-0.49616 -0.850554,-0.73242 -0.555223,-0.24808 -1.441217,-0.24808 -0.909621,0 -1.901935,0.44891 -0.992313,0.4489 -1.901934,1.14588 v 9.85226 h -2.220892 v -13.19541 h 2.220892 v 1.46484 q 1.039567,-0.86236 2.150013,-1.34671 1.110446,-0.48434 2.279958,-0.48434 2.1382,0 3.260459,1.28764 1.122259,1.28765 1.122259,3.70937 z m 15.168218,-15.40449 h -2.50441 v -2.30358 h 2.50441 z m -0.141759,15.40449 h -2.220892 v -13.19541 h 2.220892 z m 15.4281157,0 h -2.2208921 v -7.51323 q 0,-0.90963 -0.1063196,-1.70111 -0.106319,-0.8033 -0.389837,-1.25221 -0.295332,-0.49616 -0.850555,-0.73242 -0.555223,-0.24808 -1.441217,-0.24808 -0.909621,0 -1.901934,0.44891 -0.992314,0.4489 -1.901934,1.14588 v 9.85226 h -2.220892 v -13.19541 h 2.220892 v 1.46484 q 1.039566,-0.86236 2.150012,-1.34671 1.110446,-0.48434 2.279959,-0.48434 2.138199,0 3.2604584,1.28764 1.1222593,1.28765 1.1222593,3.70937 z m 32.0375393,0 H 22.05542 v -7.51323 q 0,-0.85056 -0.08269,-1.64205 -0.07088,-0.79149 -0.318958,-1.26402 -0.271705,-0.50797 -0.779675,-0.76786 -0.50797,-0.25989 -1.464844,-0.25989 -0.933247,0 -1.866494,0.47253 -0.933248,0.46072 -1.866495,1.18133 0.03544,0.2717 0.05907,0.63791 0.02363,0.3544 0.02363,0.7088 v 8.44648 h -2.220892 v -7.51323 q 0,-0.87419 -0.08269,-1.65386 -0.07088,-0.79149 -0.318958,-1.26402 -0.271705,-0.50797 -0.779675,-0.75605 -0.50797,-0.25989 -1.464844,-0.25989 -0.9096202,0 -1.8310542,0.44891 -0.9096207,0.4489 -1.8192414,1.14588 v 9.85226 H 5.0207053 v -13.19541 h 2.2208921 v 1.46484 q 1.0395665,-0.86236 2.0673198,-1.34671 1.0395668,-0.48434 2.2090788,-0.48434 1.346711,0 2.279958,0.56703 0.945061,0.56704 1.405778,1.57117 1.346711,-1.13407 2.457157,-1.63023 1.110446,-0.50797 2.374465,-0.50797 2.173639,0 3.201392,1.32308 1.039566,1.31127 1.039566,3.67393 z m 23.532013,0 h -2.220892 v -7.51323 q 0,-0.85056 -0.08269,-1.64205 -0.07088,-0.79149 -0.318958,-1.26402 -0.271705,-0.50797 -0.779675,-0.76786 -0.50797,-0.25989 -1.464844,-0.25989 -0.933247,0 -1.866494,0.47253 -0.933248,0.46072 -1.866495,1.18133 0.03544,0.2717 0.05907,0.63791 0.02363,0.3544 0.02363,0.7088 v 8.44648 h -2.220892 v -7.51323 q 0,-0.87419 -0.08269,-1.65386 -0.07088,-0.79149 -0.318958,-1.26402 -0.271705,-0.50797 -0.779675,-0.75605 -0.50797,-0.25989 -1.464844,-0.25989 -0.90962,0 -1.831054,0.44891 -0.909621,0.4489 -1.819242,1.14588 v 9.85226 h -2.220892 v -13.19541 h 2.220892 v 1.46484 q 1.039567,-0.86236 2.06732,-1.34671 1.039567,-0.48434 2.209079,-0.48434 1.346711,0 2.279958,0.56703 0.945061,0.56704 1.405778,1.57117 1.346711,-1.13407 2.457157,-1.63023 1.110446,-0.50797 2.374465,-0.50797 2.173639,0 3.201392,1.32308 1.039566,1.31127 1.039566,3.67393 z m 19.846272,4.86706 h -2.705235 q -2.090947,-2.39809 -3.248646,-5.23327 -1.157699,-2.83519 -1.157699,-6.39098 0,-3.55579 1.157699,-6.39097 1.157699,-2.83518 3.248646,-5.23327 h 2.705235 v 0.11813 q -0.956874,0.86237 -1.831055,1.99644 -0.862367,1.12226 -1.606602,2.62255 -0.708796,1.45303 -1.157699,3.20139 -0.437091,1.74836 -0.437091,3.68573 0,2.02007 0.425277,3.69755 0.437091,1.67749 1.169513,3.18958 0.708795,1.45303 1.618416,2.62255 0.90962,1.18132 1.819241,1.99644 z m 15.333606,-18.06247 -7.702242,18.06247 h -2.374465 l 2.457157,-5.50498 -5.256899,-12.55749 h 2.409905 l 4.051946,9.78138 4.087387,-9.78138 z m 21.665517,13.19541 h -2.20908 v -1.40578 q -0.29533,0.20082 -0.8033,0.56704 -0.49616,0.35439 -0.96869,0.56703 -0.55522,0.27171 -1.275833,0.44891 -0.720608,0.18901 -1.689295,0.18901 -1.783802,0 -3.024194,-1.18133 -1.240392,-1.18132 -1.240392,-3.01238 0,-1.50028 0.637916,-2.42172 0.649729,-0.93324 1.842868,-1.46484 1.204952,-0.5316 2.894248,-0.72061 1.689292,-0.18901 3.626672,-0.28352 v -0.34258 q 0,-0.75605 -0.27171,-1.25221 -0.25989,-0.49615 -0.75605,-0.77967 -0.47253,-0.27171 -1.13407,-0.36621 -0.661541,-0.0945 -1.38215,-0.0945 -0.874181,0 -1.949187,0.23627 -1.075006,0.22445 -2.220892,0.66154 h -0.118133 v -2.25633 q 0.64973,-0.1772 1.878308,-0.38984 1.228579,-0.21264 2.421718,-0.21264 1.393966,0 2.421716,0.23627 1.03957,0.22445 1.79562,0.77967 0.74423,0.54341 1.13407,1.40578 0.38984,0.86237 0.38984,2.1382 z m -2.20908,-3.24865 v -3.67392 q -1.01594,0.0591 -2.39809,0.1772 -1.370341,0.11813 -2.173643,0.34258 -0.956874,0.27171 -1.547536,0.85056 -0.590663,0.56703 -0.590663,1.57116 0,1.13407 0.685169,1.71292 0.685168,0.56704 2.090946,0.56704 1.169512,0 2.138197,-0.44891 0.96869,-0.46071 1.79562,-1.09863 z m 17.90889,3.24865 h -2.79974 l -3.7448,-5.06789 -3.76843,5.06789 h -2.5871 l 5.15058,-6.57999 -5.10333,-6.61542 h 2.79974 l 3.72118,4.98519 3.73299,-4.98519 h 2.59891 l -5.18602,6.49729 z m 5.28052,-15.40449 h -2.50441 v -2.30358 h 2.50441 z m -0.14176,15.40449 h -2.22089 v -13.19541 h 2.22089 z m 13.82153,-3.80387 q 0,1.80743 -1.50029,2.96513 -1.48847,1.15769 -4.07557,1.15769 -1.46484,0 -2.69342,-0.34258 -1.21677,-0.3544 -2.04369,-0.76786 v -2.4926 h 0.11813 q 1.05138,0.79149 2.33902,1.26402 1.28765,0.46072 2.46897,0.46072 1.46485,0 2.29178,-0.47253 0.82692,-0.47253 0.82692,-1.48847 0,-0.77968 -0.4489,-1.18133 -0.4489,-0.40165 -1.72474,-0.68517 -0.47253,-0.10632 -1.24039,-0.24808 -0.75605,-0.14176 -1.38215,-0.30714 -1.73655,-0.46072 -2.46897,-1.34671 -0.72061,-0.89781 -0.72061,-2.19727 0,-0.81511 0.33077,-1.53572 0.34259,-0.72061 1.02776,-1.28765 0.66154,-0.55522 1.67748,-0.87418 1.02775,-0.33077 2.29177,-0.33077 1.18133,0 2.38628,0.29533 1.21676,0.28352 2.02006,0.69699 v 2.37446 h -0.11813 q -0.85055,-0.6261 -2.06732,-1.05138 -1.21676,-0.43709 -2.38628,-0.43709 -1.21676,0 -2.0555,0.47253 -0.83874,0.46072 -0.83874,1.38215 0,0.81512 0.50797,1.22858 0.49615,0.41346 1.6066,0.67335 0.61429,0.14176 1.37034,0.28352 0.76786,0.14176 1.27583,0.25989 1.54754,0.3544 2.38628,1.21677 0.83874,0.87418 0.83874,2.3154 z m 9.84043,-2.95332 q 0,3.55579 -1.1577,6.39098 -1.1577,2.83518 -3.24864,5.23327 h -2.70524 v -0.11813 q 0.90962,-0.81512 1.81924,-1.99644 0.92144,-1.16952 1.61842,-2.62255 0.73242,-1.51209 1.1577,-3.18958 0.43709,-1.67748 0.43709,-3.69755 0,-1.93737 -0.43709,-3.68573 -0.43709,-1.74836 -1.1577,-3.20139 -0.74424,-1.50029 -1.61842,-2.62255 -0.86236,-1.13407 -1.81924,-1.99644 v -0.11813 h 2.70524 q 2.09094,2.39809 3.24864,5.23327 1.1577,2.83518 1.1577,6.39097 z"
     id="text67"
     style="font-size:24.1935px;text-anchor:middle"
     transform="rotate(270, 10, 190)"
     aria-label="position in mm (y axis)" />
  <path
     d="m 589.30874,392.19443 q 0,1.6066 -0.46072,2.9415 -0.46072,1.32309 -1.29946,2.24452 -0.77967,0.87418 -1.84287,1.35852 -1.05138,0.47253 -2.2327,0.47253 -1.02776,0 -1.8665,-0.22445 -0.82692,-0.22445 -1.68929,-0.69698 v 5.5286 h -2.22089 v -18.06246 h 2.22089 v 1.38215 q 0.88599,-0.74424 1.98462,-1.24039 1.11045,-0.50797 2.36266,-0.50797 2.38627,0 3.70936,1.80742 1.3349,1.79562 1.3349,4.99701 z m -2.29178,0.0591 q 0,-2.38628 -0.81511,-3.56761 -0.81511,-1.18132 -2.50441,-1.18132 -0.95687,0 -1.92556,0.41346 -0.96869,0.41347 -1.85468,1.08682 v 7.47779 q 0.94506,0.42528 1.61841,0.57885 0.68517,0.15357 1.54754,0.15357 1.85468,0 2.89425,-1.2522 1.03956,-1.25221 1.03956,-3.70936 z m 16.99928,0.10632 q 0,3.22502 -1.65386,5.09151 -1.65385,1.86649 -4.42997,1.86649 -2.79974,0 -4.45359,-1.86649 -1.64205,-1.86649 -1.64205,-5.09151 0,-3.22502 1.64205,-5.09152 1.65385,-1.8783 4.45359,-1.8783 2.77612,0 4.42997,1.8783 1.65386,1.8665 1.65386,5.09152 z m -2.29177,0 q 0,-2.56348 -1.00413,-3.80387 -1.00413,-1.25221 -2.78793,-1.25221 -1.80743,0 -2.81155,1.25221 -0.99232,1.24039 -0.99232,3.80387 0,2.48078 1.00413,3.76842 1.00413,1.27584 2.79974,1.27584 1.77199,0 2.77612,-1.26402 1.01594,-1.27583 1.01594,-3.78024 z m 15.15641,2.78792 q 0,1.80743 -1.50029,2.96513 -1.48847,1.1577 -4.07557,1.1577 -1.46485,0 -2.69342,-0.34258 -1.21677,-0.3544 -2.0437,-0.76787 v -2.49259 h 0.11814 q 1.05138,0.79149 2.33902,1.26402 1.28765,0.46071 2.46897,0.46071 1.46484,0 2.29177,-0.47253 0.82693,-0.47253 0.82693,-1.48847 0,-0.77967 -0.4489,-1.18132 -0.44891,-0.40165 -1.72474,-0.68517 -0.47253,-0.10632 -1.24039,-0.24808 -0.75605,-0.14176 -1.38215,-0.30714 -1.73655,-0.46072 -2.46897,-1.34672 -0.72061,-0.8978 -0.72061,-2.19726 0,-0.81512 0.33077,-1.53572 0.34258,-0.72061 1.02775,-1.28765 0.66155,-0.55522 1.67749,-0.87418 1.02775,-0.33077 2.29177,-0.33077 1.18132,0 2.38628,0.29533 1.21676,0.28352 2.02006,0.69698 v 2.37447 h -0.11813 q -0.85055,-0.62611 -2.06732,-1.05138 -1.21677,-0.43709 -2.38628,-0.43709 -1.21676,0 -2.0555,0.47253 -0.83875,0.46071 -0.83875,1.38215 0,0.81511 0.50797,1.22858 0.49616,0.41346 1.60661,0.67335 0.61429,0.14176 1.37033,0.28352 0.76787,0.14176 1.27584,0.25989 1.54753,0.3544 2.38627,1.21677 0.83875,0.87418 0.83875,2.31539 z m 5.56404,-11.60061 h -2.50441 v -2.30359 h 2.50441 z m -0.14176,15.40448 h -2.22089 v -13.1954 h 2.22089 z m 11.24622,-0.11813 q -0.6261,0.16539 -1.37034,0.27171 -0.73242,0.10631 -1.31127,0.10631 -2.02007,0 -3.07145,-1.08681 -1.05138,-1.08682 -1.05138,-3.48492 v -7.01707 h -1.50028 v -1.86649 h 1.50028 v -3.79206 h 2.2209 v 3.79206 h 4.58354 v 1.86649 h -4.58354 v 6.01295 q 0,1.03956 0.0473,1.63023 0.0472,0.57885 0.33077,1.08682 0.25989,0.47253 0.7088,0.69698 0.46071,0.21264 1.39396,0.21264 0.54341,0 1.13407,-0.15357 0.59066,-0.16539 0.85056,-0.27171 h 0.11813 z m 5.06789,-15.28635 h -2.50441 v -2.30359 h 2.50441 z m -0.14176,15.40448 h -2.22089 v -13.1954 h 2.22089 z m 15.64075,-6.59179 q 0,3.22502 -1.65385,5.09151 -1.65386,1.86649 -4.42997,1.86649 -2.79975,0 -4.4536,-1.86649 -1.64204,-1.86649 -1.64204,-5.09151 0,-3.22502 1.64204,-5.09152 1.65385,-1.8783 4.4536,-1.8783 2.77611,0 4.42997,1.8783 1.65385,1.8665 1.65385,5.09152 z m -2.29177,0 q 0,-2.56348 -1.00413,-3.80387 -1.00412,-1.25221 -2.78792,-1.25221 -1.80743,0 -2.81156,1.25221 -0.99231,1.24039 -0.99231,3.80387 0,2.48078 1.00412,3.76842 1.00413,1.27584 2.79975,1.27584 1.77198,0 2.77611,-1.26402 1.01594,-1.27583 1.01594,-3.78024 z m 16.76301,6.59179 h -2.22089 v -7.51323 q 0,-0.90962 -0.10632,-1.70111 -0.10632,-0.8033 -0.38984,-1.2522 -0.29533,-0.49616 -0.85055,-0.73242 -0.55523,-0.24808 -1.44122,-0.24808 -0.90962,0 -1.90194,0.4489 -0.99231,0.44891 -1.90193,1.14589 v 9.85225 h -2.22089 v -13.1954 h 2.22089 v 1.46484 q 1.03957,-0.86237 2.15001,-1.34671 1.11045,-0.48434 2.27996,-0.48434 2.1382,0 3.26046,1.28764 1.12226,1.28764 1.12226,3.70936 z m 15.16822,-15.40448 h -2.50441 v -2.30359 h 2.50441 z m -0.14176,15.40448 h -2.22089 v -13.1954 h 2.22089 z m 15.42811,0 h -2.22089 v -7.51323 q 0,-0.90962 -0.10632,-1.70111 -0.10632,-0.8033 -0.38983,-1.2522 -0.29534,-0.49616 -0.85056,-0.73242 -0.55522,-0.24808 -1.44122,-0.24808 -0.90962,0 -1.90193,0.4489 -0.99231,0.44891 -1.90193,1.14589 v 9.85225 h -2.2209 v -13.1954 h 2.2209 v 1.46484 q 1.03956,-0.86237 2.15001,-1.34671 1.11044,-0.48434 2.27996,-0.48434 2.1382,0 3.26045,1.28764 1.12226,1.28764 1.12226,3.70936 z m 32.03754,0 h -2.22089 v -7.51323 q 0,-0.85055 -0.0827,-1.64204 -0.0709,-0.79149 -0.31896,-1.26402 -0.2717,-0.50797 -0.77967,-0.76786 -0.50797,-0.25989 -1.46485,-0.25989 -0.93324,0 -1.86649,0.47253 -0.93325,0.46072 -1.8665,1.18132 0.0354,0.27171 0.0591,0.63792 0.0236,0.3544 0.0236,0.70879 v 8.44648 h -2.2209 v -7.51323 q 0,-0.87418 -0.0827,-1.65385 -0.0709,-0.79149 -0.31896,-1.26402 -0.2717,-0.50797 -0.77967,-0.75605 -0.50797,-0.25989 -1.46485,-0.25989 -0.90962,0 -1.83105,0.4489 -0.90962,0.44891 -1.81924,1.14589 v 9.85225 h -2.22089 v -13.1954 h 2.22089 v 1.46484 q 1.03957,-0.86237 2.06732,-1.34671 1.03957,-0.48434 2.20908,-0.48434 1.34671,0 2.27996,0.56703 0.94506,0.56704 1.40577,1.57116 1.34671,-1.13407 2.45716,-1.63022 1.11045,-0.50797 2.37446,-0.50797 2.17364,0 3.2014,1.32308 1.03956,1.31127 1.03956,3.67392 z m 23.53202,0 h -2.2209 v -7.51323 q 0,-0.85055 -0.0827,-1.64204 -0.0709,-0.79149 -0.31896,-1.26402 -0.2717,-0.50797 -0.77967,-0.76786 -0.50797,-0.25989 -1.46484,-0.25989 -0.93325,0 -1.8665,0.47253 -0.93325,0.46072 -1.86649,1.18132 0.0354,0.27171 0.0591,0.63792 0.0236,0.3544 0.0236,0.70879 v 8.44648 h -2.22089 v -7.51323 q 0,-0.87418 -0.0827,-1.65385 -0.0709,-0.79149 -0.31895,-1.26402 -0.27171,-0.50797 -0.77968,-0.75605 -0.50797,-0.25989 -1.46484,-0.25989 -0.90962,0 -1.83106,0.4489 -0.90962,0.44891 -1.81924,1.14589 v 9.85225 h -2.22089 v -13.1954 h 2.22089 v 1.46484 q 1.03957,-0.86237 2.06732,-1.34671 1.03957,-0.48434 2.20908,-0.48434 1.34671,0 2.27996,0.56703 0.94506,0.56704 1.40578,1.57116 1.34671,-1.13407 2.45715,-1.63022 1.11045,-0.50797 2.37447,-0.50797 2.17364,0 3.20139,1.32308 1.03957,1.31127 1.03957,3.67392 z m 19.84627,4.86706 h -2.70524 q -2.09094,-2.39809 -3.24864,-5.23327 -1.1577,-2.83518 -1.1577,-6.39097 0,-3.55579 1.1577,-6.39097 1.1577,-2.83518 3.24864,-5.23327 h 2.70524 v 0.11813 q -0.95688,0.86237 -1.83106,1.99644 -0.86236,1.12226 -1.6066,2.62254 -0.70879,1.45303 -1.1577,3.20139 -0.43709,1.74837 -0.43709,3.68574 0,2.02007 0.42528,3.69755 0.43709,1.67748 1.16951,3.18958 0.7088,1.45303 1.61842,2.62254 0.90962,1.18133 1.81924,1.99644 z m 13.49074,-4.86706 h -10.65556 v -1.64204 l 7.69043,-9.69868 h -7.52504 v -1.85468 h 10.28934 v 1.58297 l -7.72587,9.73413 h 7.9267 z m 21.90176,0 h -2.20907 v -1.40577 q -0.29534,0.20082 -0.80331,0.56703 -0.49615,0.3544 -0.96868,0.56704 -0.55523,0.2717 -1.27583,0.4489 -0.72061,0.18901 -1.6893,0.18901 -1.7838,0 -3.02419,-1.18132 -1.2404,-1.18133 -1.2404,-3.01238 0,-1.50029 0.63792,-2.42172 0.64973,-0.93325 1.84287,-1.46484 1.20495,-0.5316 2.89425,-0.72061 1.68929,-0.18901 3.62667,-0.28352 v -0.34258 q 0,-0.75605 -0.27171,-1.25221 -0.25989,-0.49616 -0.75605,-0.77967 -0.47253,-0.27171 -1.13407,-0.36622 -0.66154,-0.0945 -1.38215,-0.0945 -0.87418,0 -1.94919,0.23626 -1.075,0.22446 -2.22089,0.66155 h -0.11813 v -2.25634 q 0.64973,-0.17719 1.8783,-0.38983 1.22858,-0.21264 2.42172,-0.21264 1.39397,0 2.42172,0.23626 1.03957,0.22446 1.79561,0.77968 0.74424,0.54341 1.13408,1.40578 0.38983,0.86236 0.38983,2.13819 z m -2.20907,-3.24864 v -3.67393 q -1.01594,0.0591 -2.3981,0.1772 -1.37033,0.11814 -2.17363,0.34259 -0.95688,0.2717 -1.54754,0.85055 -0.59066,0.56704 -0.59066,1.57117 0,1.13407 0.68516,1.71292 0.68517,0.56703 2.09095,0.56703 1.16951,0 2.1382,-0.4489 0.96869,-0.46072 1.79562,-1.09863 z m 17.90891,3.24864 h -2.79975 l -3.7448,-5.06788 -3.76843,5.06788 h -2.5871 l 5.15058,-6.57998 -5.10333,-6.61542 h 2.79975 l 3.72117,4.98519 3.73299,-4.98519 h 2.59892 l -5.18602,6.49729 z m 5.28051,-15.40448 h -2.50441 v -2.30359 h 2.50441 z m -0.14176,15.40448 h -2.22089 v -13.1954 h 2.22089 z m 13.8215,-3.80387 q 0,1.80743 -1.50028,2.96513 -1.48847,1.1577 -4.07558,1.1577 -1.46484,0 -2.69342,-0.34258 -1.21676,-0.3544 -2.04369,-0.76787 v -2.49259 h 0.11813 q 1.05138,0.79149 2.33903,1.26402 1.28764,0.46071 2.46897,0.46071 1.46484,0 2.29177,-0.47253 0.82693,-0.47253 0.82693,-1.48847 0,-0.77967 -0.44891,-1.18132 -0.4489,-0.40165 -1.72473,-0.68517 -0.47253,-0.10632 -1.24039,-0.24808 -0.75605,-0.14176 -1.38216,-0.30714 -1.73654,-0.46072 -2.46897,-1.34672 -0.72061,-0.8978 -0.72061,-2.19726 0,-0.81512 0.33078,-1.53572 0.34258,-0.72061 1.02775,-1.28765 0.66154,-0.55522 1.67748,-0.87418 1.02776,-0.33077 2.29177,-0.33077 1.18133,0 2.38628,0.29533 1.21677,0.28352 2.02007,0.69698 v 2.37447 h -0.11813 q -0.85056,-0.62611 -2.06732,-1.05138 -1.21677,-0.43709 -2.38628,-0.43709 -1.21677,0 -2.05551,0.47253 -0.83874,0.46071 -0.83874,1.38215 0,0.81511 0.50797,1.22858 0.49616,0.41346 1.6066,0.67335 0.61429,0.14176 1.37034,0.28352 0.76786,0.14176 1.27583,0.25989 1.54754,0.3544 2.38628,1.21677 0.83874,0.87418 0.83874,2.31539 z m 9.84047,-2.95331 q 0,3.55579 -1.1577,6.39097 -1.1577,2.83518 -3.24865,5.23327 h -2.70523 v -0.11813 q 0.90962,-0.81511 1.81924,-1.99644 0.92143,-1.16951 1.61841,-2.62254 0.73243,-1.5121 1.1577,-3.18958 0.43709,-1.67748 0.43709,-3.69755 0,-1.93737 -0.43709,-3.68574 -0.43709,-1.74836 -1.1577,-3.20139 -0.74423,-1.50028 -1.61841,-2.62254 -0.86237,-1.13407 -1.81924,-1.99644 v -0.11813 h 2.70523 q 2.09095,2.39809 3.24865,5.23327 1.1577,2.83518 1.1577,6.39097 z"
     id="text68"
     style="font-size:24.1935px;text-anchor:middle"
     aria-label="position in mm (z axis)" />
  <line
     opacity="0.2"
     stroke="#000000"
     stroke-width="1"
     x1="170"
     y1="339"
     x2="170"
     y2="40"
     id="line68" />
  <line
     opacity="0.2"
     stroke="#000000"
     stroke-width="1"
     x1="569"
     y1="339"
     x2="569"
     y2="40"
     id="line69" />
  <line
     opacity="0.2"
     stroke="#000000"
     stroke-width="1"
     x1="969"
     y1="339"
     x2="969"
     y2="40"
     id="line70" />
  <line
     opacity="0.2"
     stroke="#000000"
     stroke-width="1"
     x1="116"
     y1="270"
     x2="1315"
     y2="270"
     id="line71" />
  <line
     opacity="0.2"
     stroke="#000000"
     stroke-width="1"
     x1="116"
     y1="190"
     x2="1315"
     y2="190"
     id="line72" />
  <line
     opacity="0.2"
     stroke="#000000"
     stroke-width="1"
     x1="116"
     y1="110"
     x2="1315"
     y2="110"
     id="line73" />
  <polyline
     fill="none"
     opacity="1"
     stroke="#000000"
     stroke-width="1"
     points="115,40 115,339 "
     id="polyline73" />
  <path
     d="m 49.249118,269.42115 h -7.371471 v -2.1382 h 7.371471 z m 15.617125,6.62724 H 52.958481 v -2.46897 q 1.240392,-1.0632 2.480784,-2.12639 1.252205,-1.06319 2.327211,-2.11457 2.268145,-2.19727 3.106886,-3.48491 0.838741,-1.29946 0.838741,-2.79974 0,-1.37034 -0.90962,-2.1382 -0.897808,-0.77968 -2.516224,-0.77968 -1.075006,0 -2.327211,0.37803 -1.252205,0.37802 -2.445344,1.15769 h -0.118133 v -2.48078 q 0.838741,-0.41346 2.232706,-0.75605 1.405777,-0.34258 2.717049,-0.34258 2.705235,0 4.240958,1.31127 1.535724,1.29946 1.535724,3.53216 0,1.00413 -0.259892,1.87831 -0.248078,0.86237 -0.744235,1.64204 -0.460717,0.73243 -1.08682,1.44122 -0.614289,0.7088 -1.500283,1.57116 -1.264018,1.2404 -2.61073,2.40991 -1.346711,1.1577 -2.516223,2.15001 h 9.462418 z m 15.357233,-8.80088 q 0,4.73712 -1.488471,6.95801 -1.476657,2.20908 -4.595356,2.20908 -3.165953,0 -4.630796,-2.24452 -1.453031,-2.24452 -1.453031,-6.89894 0,-4.68986 1.476657,-6.92257 1.476657,-2.24452 4.60717,-2.24452 3.165952,0 4.618983,2.27996 1.464844,2.26814 1.464844,6.8635 z m -3.106887,5.36322 q 0.413464,-0.95687 0.555223,-2.24452 0.153573,-1.29946 0.153573,-3.1187 0,-1.79561 -0.153573,-3.1187 -0.141759,-1.32308 -0.567036,-2.24452 -0.413464,-0.90962 -1.134072,-1.37033 -0.708796,-0.46072 -1.831055,-0.46072 -1.110446,0 -1.842868,0.46072 -0.720609,0.46071 -1.145886,1.39396 -0.401651,0.87418 -0.555223,2.27996 -0.141759,1.40578 -0.141759,3.08326 0,1.84287 0.129946,3.08326 0.129946,1.24039 0.555223,2.22089 0.389837,0.92143 1.098633,1.40578 0.720608,0.48434 1.901934,0.48434 1.110446,0 1.842868,-0.46072 0.732422,-0.46071 1.134072,-1.39396 z m 10.513798,3.43766 h -2.823368 v -3.36678 h 2.823368 z m 16.774823,-8.80088 q 0,4.73712 -1.48847,6.95801 -1.47666,2.20908 -4.595355,2.20908 -3.165953,0 -4.630796,-2.24452 -1.453031,-2.24452 -1.453031,-6.89894 0,-4.68986 1.476657,-6.92257 1.476657,-2.24452 4.60717,-2.24452 3.165955,0 4.618985,2.27996 1.46484,2.26814 1.46484,6.8635 z m -3.10688,5.36322 q 0.41346,-0.95687 0.55522,-2.24452 0.15357,-1.29946 0.15357,-3.1187 0,-1.79561 -0.15357,-3.1187 -0.14176,-1.32308 -0.56704,-2.24452 -0.41346,-0.90962 -1.13407,-1.37033 -0.708796,-0.46072 -1.831055,-0.46072 -1.110446,0 -1.842868,0.46072 -0.720609,0.46071 -1.145886,1.39396 -0.401651,0.87418 -0.555223,2.27996 -0.141759,1.40578 -0.141759,3.08326 0,1.84287 0.129946,3.08326 0.129946,1.24039 0.555223,2.22089 0.389837,0.92143 1.098633,1.40578 0.720608,0.48434 1.901934,0.48434 1.110446,0 1.842865,-0.46072 0.73242,-0.46071 1.13408,-1.39396 z"
     id="text73"
     style="font-size:24.1935px;text-anchor:end"
     aria-label="-20.0" />
  <polyline
     fill="none"
     opacity="1"
     stroke="#000000"
     stroke-width="1"
     points="110,270 115,270 "
     id="polyline74" />
  <path
     d="m 80.223475,187.24751 q 0,4.73712 -1.48847,6.95801 -1.476657,2.20908 -4.595356,2.20908 -3.165953,0 -4.630797,-2.24452 -1.45303,-2.24452 -1.45303,-6.89894 0,-4.68986 1.476657,-6.92257 1.476657,-2.24452 4.60717,-2.24452 3.165952,0 4.618983,2.27996 1.464843,2.26814 1.464843,6.8635 z m -3.106886,5.36322 q 0.413464,-0.95687 0.555223,-2.24452 0.153573,-1.29946 0.153573,-3.1187 0,-1.79561 -0.153573,-3.1187 -0.141759,-1.32308 -0.567036,-2.24452 -0.413464,-0.90962 -1.134073,-1.37033 -0.708795,-0.46072 -1.831054,-0.46072 -1.110446,0 -1.842868,0.46072 -0.720609,0.46071 -1.145886,1.39396 -0.401651,0.87418 -0.555223,2.27996 -0.141759,1.40578 -0.141759,3.08326 0,1.84287 0.129946,3.08326 0.129945,1.24039 0.555223,2.22089 0.389837,0.92143 1.098632,1.40578 0.720609,0.48434 1.901935,0.48434 1.110446,0 1.842868,-0.46072 0.732421,-0.46071 1.134072,-1.39396 z m 10.513798,3.43766 h -2.823368 v -3.36678 h 2.823368 z m 16.774823,-8.80088 q 0,4.73712 -1.48847,6.95801 -1.47666,2.20908 -4.595355,2.20908 -3.165953,0 -4.630797,-2.24452 -1.45303,-2.24452 -1.45303,-6.89894 0,-4.68986 1.476657,-6.92257 1.476657,-2.24452 4.60717,-2.24452 3.165955,0 4.618985,2.27996 1.46484,2.26814 1.46484,6.8635 z m -3.10688,5.36322 q 0.41346,-0.95687 0.55522,-2.24452 0.15357,-1.29946 0.15357,-3.1187 0,-1.79561 -0.15357,-3.1187 -0.14176,-1.32308 -0.56704,-2.24452 -0.41346,-0.90962 -1.13407,-1.37033 -0.708796,-0.46072 -1.831055,-0.46072 -1.110446,0 -1.842868,0.46072 -0.720609,0.46071 -1.145886,1.39396 -0.401651,0.87418 -0.555223,2.27996 -0.141759,1.40578 -0.141759,3.08326 0,1.84287 0.129946,3.08326 0.129945,1.24039 0.555223,2.22089 0.389837,0.92143 1.098632,1.40578 0.720609,0.48434 1.901935,0.48434 1.110446,0 1.842865,-0.46072 0.73242,-0.46071 1.13408,-1.39396 z"
     id="text74"
     style="font-size:24.1935px;text-anchor:end"
     aria-label="0.0" />
  <polyline
     fill="none"
     opacity="1"
     stroke="#000000"
     stroke-width="1"
     points="110,190 115,190 "
     id="polyline75" />
  <path
     d="M 64.866243,116.04839 H 52.958481 v -2.46897 q 1.240392,-1.0632 2.480783,-2.12639 1.252206,-1.06319 2.327212,-2.11457 2.268145,-2.19727 3.106886,-3.48491 0.838741,-1.29946 0.838741,-2.79974 0,-1.37034 -0.90962,-2.1382 -0.897808,-0.77968 -2.516224,-0.77968 -1.075006,0 -2.327211,0.37803 -1.252205,0.37802 -2.445344,1.15769 h -0.118133 v -2.480779 q 0.838741,-0.413464 2.232706,-0.756049 1.405777,-0.342584 2.717048,-0.342584 2.705236,0 4.240959,1.311271 1.535724,1.299461 1.535724,3.532161 0,1.00413 -0.259892,1.87831 -0.248078,0.86237 -0.744235,1.64204 -0.460717,0.73243 -1.08682,1.44122 -0.614289,0.7088 -1.500283,1.57116 -1.264019,1.2404 -2.61073,2.40991 -1.346711,1.1577 -2.516223,2.15001 h 9.462418 z m 15.357233,-8.80088 q 0,4.73712 -1.488471,6.95801 -1.476657,2.20908 -4.595356,2.20908 -3.165953,0 -4.630797,-2.24452 -1.45303,-2.24452 -1.45303,-6.89894 0,-4.68986 1.476657,-6.92257 1.476657,-2.244519 4.60717,-2.244519 3.165952,0 4.618983,2.279959 1.464844,2.26814 1.464844,6.8635 z m -3.106887,5.36322 q 0.413464,-0.95687 0.555223,-2.24452 0.153573,-1.29946 0.153573,-3.1187 0,-1.79561 -0.153573,-3.1187 -0.141759,-1.32308 -0.567036,-2.24452 -0.413464,-0.90962 -1.134073,-1.37033 -0.708795,-0.46072 -1.831054,-0.46072 -1.110446,0 -1.842868,0.46072 -0.720609,0.46071 -1.145886,1.39396 -0.401651,0.87418 -0.555223,2.27996 -0.141759,1.40578 -0.141759,3.08326 0,1.84287 0.129946,3.08326 0.129946,1.24039 0.555223,2.22089 0.389837,0.92143 1.098633,1.40578 0.720608,0.48434 1.901934,0.48434 1.110446,0 1.842868,-0.46072 0.732422,-0.46071 1.134072,-1.39396 z m 10.513798,3.43766 h -2.823368 v -3.36678 h 2.823368 z m 16.774823,-8.80088 q 0,4.73712 -1.48847,6.95801 -1.47666,2.20908 -4.595355,2.20908 -3.165953,0 -4.630797,-2.24452 -1.45303,-2.24452 -1.45303,-6.89894 0,-4.68986 1.476657,-6.92257 1.476657,-2.244519 4.60717,-2.244519 3.165955,0 4.618985,2.279959 1.46484,2.26814 1.46484,6.8635 z m -3.10688,5.36322 q 0.41346,-0.95687 0.55522,-2.24452 0.15357,-1.29946 0.15357,-3.1187 0,-1.79561 -0.15357,-3.1187 -0.14176,-1.32308 -0.56704,-2.24452 -0.41346,-0.90962 -1.13407,-1.37033 -0.708796,-0.46072 -1.831055,-0.46072 -1.110446,0 -1.842868,0.46072 -0.720609,0.46071 -1.145886,1.39396 -0.401651,0.87418 -0.555223,2.27996 -0.141759,1.40578 -0.141759,3.08326 0,1.84287 0.129946,3.08326 0.129946,1.24039 0.555223,2.22089 0.389837,0.92143 1.098633,1.40578 0.720608,0.48434 1.901934,0.48434 1.110446,0 1.842865,-0.46072 0.73242,-0.46071 1.13408,-1.39396 z"
     id="text75"
     style="font-size:24.1935px;text-anchor:end"
     aria-label="20.0" />
  <polyline
     fill="none"
     opacity="1"
     stroke="#000000"
     stroke-width="1"
     points="110,110 115,110 "
     id="polyline76" />
  <polyline
     fill="none"
     opacity="1"
     stroke="#000000"
     stroke-width="1"
     points="116,340 1315,340 "
     id="polyline77" />
  <path
     d="m 176.09564,359.58622 q 0,4.73712 -1.48847,6.95801 -1.47666,2.20908 -4.59536,2.20908 -3.16595,0 -4.63079,-2.24452 -1.45303,-2.24452 -1.45303,-6.89894 0,-4.68987 1.47665,-6.92257 1.47666,-2.24452 4.60717,-2.24452 3.16596,0 4.61899,2.27996 1.46484,2.26814 1.46484,6.8635 z m -3.10689,5.36322 q 0.41347,-0.95687 0.55523,-2.24452 0.15357,-1.29946 0.15357,-3.1187 0,-1.79561 -0.15357,-3.1187 -0.14176,-1.32308 -0.56704,-2.24452 -0.41346,-0.90962 -1.13407,-1.37034 -0.7088,-0.46071 -1.83106,-0.46071 -1.11044,0 -1.84286,0.46071 -0.72061,0.46072 -1.14589,1.39397 -0.40165,0.87418 -0.55522,2.27996 -0.14176,1.40577 -0.14176,3.08326 0,1.84287 0.12994,3.08326 0.12995,1.24039 0.55523,2.22089 0.38983,0.92143 1.09863,1.40578 0.72061,0.48434 1.90193,0.48434 1.11045,0 1.84287,-0.46072 0.73242,-0.46071 1.13407,-1.39396 z"
     id="text77"
     style="font-size:24.1935px;text-anchor:middle"
     aria-label="0" />
  <polyline
     fill="none"
     opacity="1"
     stroke="#000000"
     stroke-width="1"
     points="170,340 170,345 "
     id="polyline78" />
  <path
     d="m 558.73428,368.3871 h -9.52148 v -1.79562 h 3.66211 v -11.78963 h -3.66211 v -1.6066 q 0.74423,0 1.59479,-0.11813 0.85055,-0.12995 1.28764,-0.36621 0.54341,-0.29534 0.85056,-0.74424 0.31895,-0.46072 0.36621,-1.22858 h 1.83105 v 15.85339 h 3.59123 z m 16.36136,-8.80088 q 0,4.73712 -1.48847,6.95801 -1.47666,2.20908 -4.59536,2.20908 -3.16595,0 -4.63079,-2.24452 -1.45303,-2.24452 -1.45303,-6.89894 0,-4.68987 1.47665,-6.92257 1.47666,-2.24452 4.60717,-2.24452 3.16596,0 4.61899,2.27996 1.46484,2.26814 1.46484,6.8635 z m -3.10689,5.36322 q 0.41347,-0.95687 0.55523,-2.24452 0.15357,-1.29946 0.15357,-3.1187 0,-1.79561 -0.15357,-3.1187 -0.14176,-1.32308 -0.56704,-2.24452 -0.41346,-0.90962 -1.13407,-1.37034 -0.7088,-0.46071 -1.83106,-0.46071 -1.11044,0 -1.84286,0.46071 -0.72061,0.46072 -1.14589,1.39397 -0.40165,0.87418 -0.55522,2.27996 -0.14176,1.40577 -0.14176,3.08326 0,1.84287 0.12994,3.08326 0.12995,1.24039 0.55523,2.22089 0.38983,0.92143 1.09863,1.40578 0.72061,0.48434 1.90193,0.48434 1.11045,0 1.84287,-0.46072 0.73242,-0.46071 1.13407,-1.39396 z m 18.48775,-5.36322 q 0,4.73712 -1.48847,6.95801 -1.47666,2.20908 -4.59536,2.20908 -3.16595,0 -4.63079,-2.24452 -1.45303,-2.24452 -1.45303,-6.89894 0,-4.68987 1.47665,-6.92257 1.47666,-2.24452 4.60717,-2.24452 3.16596,0 4.61899,2.27996 1.46484,2.26814 1.46484,6.8635 z m -3.10689,5.36322 q 0.41347,-0.95687 0.55523,-2.24452 0.15357,-1.29946 0.15357,-3.1187 0,-1.79561 -0.15357,-3.1187 -0.14176,-1.32308 -0.56704,-2.24452 -0.41346,-0.90962 -1.13407,-1.37034 -0.7088,-0.46071 -1.83106,-0.46071 -1.11044,0 -1.84287,0.46071 -0.7206,0.46072 -1.14588,1.39397 -0.40165,0.87418 -0.55522,2.27996 -0.14176,1.40577 -0.14176,3.08326 0,1.84287 0.12994,3.08326 0.12995,1.24039 0.55523,2.22089 0.38983,0.92143 1.09863,1.40578 0.72061,0.48434 1.90193,0.48434 1.11045,0 1.84287,-0.46072 0.73242,-0.46071 1.13407,-1.39396 z"
     id="text78"
     style="font-size:24.1935px;text-anchor:middle"
     aria-label="100" />
  <polyline
     fill="none"
     opacity="1"
     stroke="#000000"
     stroke-width="1"
     points="569,340 569,345 "
     id="polyline79" />
  <path
     d="m 959.73841,368.3871 h -11.90776 v -2.46897 q 1.24039,-1.0632 2.48078,-2.12639 1.2522,-1.06319 2.32721,-2.11457 2.26815,-2.19727 3.10689,-3.48491 0.83874,-1.29946 0.83874,-2.79975 0,-1.37033 -0.90962,-2.13819 -0.89781,-0.77968 -2.51623,-0.77968 -1.075,0 -2.32721,0.37802 -1.2522,0.37803 -2.44534,1.1577 h -0.11813 v -2.48078 q 0.83874,-0.41346 2.2327,-0.75605 1.40578,-0.34258 2.71705,-0.34258 2.70524,0 4.24096,1.31127 1.53572,1.29946 1.53572,3.53216 0,1.00413 -0.25989,1.87831 -0.24808,0.86237 -0.74423,1.64204 -0.46072,0.73242 -1.08682,1.44122 -0.61429,0.7088 -1.50029,1.57116 -1.26402,1.24039 -2.61073,2.40991 -1.34671,1.1577 -2.51622,2.15001 h 9.46242 z m 15.35723,-8.80088 q 0,4.73712 -1.48847,6.95801 -1.47666,2.20908 -4.59536,2.20908 -3.16595,0 -4.63079,-2.24452 -1.45303,-2.24452 -1.45303,-6.89894 0,-4.68987 1.47665,-6.92257 1.47666,-2.24452 4.60717,-2.24452 3.16596,0 4.61899,2.27996 1.46484,2.26814 1.46484,6.8635 z m -3.10689,5.36322 q 0.41347,-0.95687 0.55523,-2.24452 0.15357,-1.29946 0.15357,-3.1187 0,-1.79561 -0.15357,-3.1187 -0.14176,-1.32308 -0.56704,-2.24452 -0.41346,-0.90962 -1.13407,-1.37034 -0.7088,-0.46071 -1.83106,-0.46071 -1.11044,0 -1.84286,0.46071 -0.72061,0.46072 -1.14589,1.39397 -0.40165,0.87418 -0.55522,2.27996 -0.14176,1.40577 -0.14176,3.08326 0,1.84287 0.12994,3.08326 0.12995,1.24039 0.55523,2.22089 0.38983,0.92143 1.09863,1.40578 0.72061,0.48434 1.90193,0.48434 1.11045,0 1.84287,-0.46072 0.73242,-0.46071 1.13407,-1.39396 z m 18.48775,-5.36322 q 0,4.73712 -1.48847,6.95801 -1.47666,2.20908 -4.59536,2.20908 -3.16595,0 -4.63079,-2.24452 -1.45303,-2.24452 -1.45303,-6.89894 0,-4.68987 1.47665,-6.92257 1.47666,-2.24452 4.60717,-2.24452 3.16596,0 4.61899,2.27996 1.46484,2.26814 1.46484,6.8635 z m -3.10689,5.36322 q 0.41347,-0.95687 0.55523,-2.24452 0.15357,-1.29946 0.15357,-3.1187 0,-1.79561 -0.15357,-3.1187 -0.14176,-1.32308 -0.56704,-2.24452 -0.41346,-0.90962 -1.13407,-1.37034 -0.7088,-0.46071 -1.83106,-0.46071 -1.11044,0 -1.84287,0.46071 -0.7206,0.46072 -1.14588,1.39397 -0.40165,0.87418 -0.55522,2.27996 -0.14176,1.40577 -0.14176,3.08326 0,1.84287 0.12994,3.08326 0.12995,1.24039 0.55523,2.22089 0.38983,0.92143 1.09863,1.40578 0.72061,0.48434 1.90193,0.48434 1.11045,0 1.84287,-0.46072 0.73242,-0.46071 1.13407,-1.39396 z"
     id="text79"
     style="font-size:24.1935px;text-anchor:middle"
     aria-label="200" />
  <polyline
     fill="none"
     opacity="1"
     stroke="#000000"
     stroke-width="1"
     points="969,340 969,345 "
     id="polyline80" />
  <polyline
     fill="none"
     opacity="1"
     stroke="#1F77B4"
     stroke-width="1"
     points="170,190 170,190 449,190 489,190 988,190 1028,190 1260,190 "
     id="polyline81" />
  <polyline
     fill="none"
     opacity="1"
     stroke="#1F77B4"
     stroke-width="1"
     points="170,190 170,190 450,183 489,182 989,181 1028,181 1260,189 "
     id="polyline82" />
  <polyline
     fill="none"
     opacity="1"
     stroke="#1F77B4"
     stroke-width="1"
     points="170,190 170,190 450,186 489,186 989,185 1028,186 1260,190 "
     id="polyline83" />
  <polyline
     fill="none"
     opacity="1"
     stroke="#1F77B4"
     stroke-width="1"
     points="170,190 170,190 450,194 489,194 989,195 1028,194 1260,190 "
     id="polyline84" />
  <polyline
     fill="none"
     opacity="1"
     stroke="#1F77B4"
     stroke-width="1"
     points="170,190 170,190 450,197 489,198 989,199 1028,199 1260,191 "
     id="polyline85" />
  <polyline
     fill="none"
     opacity="1"
     stroke="#1F77B4"
     stroke-width="1"
     points="170,190 170,190 450,194 489,194 989,195 1028,194 1260,190 "
     id="polyline86" />
  <polyline
     fill="none"
     opacity="1"
     stroke="#1F77B4"
     stroke-width="1"
     points="170,190 170,190 450,186 489,186 989,185 1028,186 1260,190 "
     id="polyline87" />
  <polyline
     fill="none"
     opacity="1"
     stroke="#1F77B4"
     stroke-width="1"
     points="170,190 170,190 450,175 489,174 989,172 1028,172 1260,188 "
     id="polyline88" />
  <polyline
     fill="none"
     opacity="1"
     stroke="#1F77B4"
     stroke-width="1"
     points="170,190 170,190 450,177 489,176 989,174 1028,175 1260,188 "
     id="polyline89" />
  <polyline
     fill="none"
     opacity="1"
     stroke="#1F77B4"
     stroke-width="1"
     points="170,190 170,190 450,183 489,182 989,181 1028,181 1260,189 "
     id="polyline90" />
  <polyline
     fill="none"
     opacity="1"
     stroke="#1F77B4"
     stroke-width="1"
     points="170,190 170,190 450,190 489,190 989,190 1028,190 1260,190 "
     id="polyline91" />
  <polyline
     fill="none"
     opacity="1"
     stroke="#1F77B4"
     stroke-width="1"
     points="170,190 170,190 450,197 489,198 989,199 1028,199 1260,191 "
     id="polyline92" />
  <polyline
     fill="none"
     opacity="1"
     stroke="#1F77B4"
     stroke-width="1"
     points="170,190 170,190 450,203 489,204 989,206 1028,205 1260,192 "
     id="polyline93" />
  <polyline
     fill="none"
     opacity="1"
     stroke="#1F77B4"
     stroke-width="1"
     points="170,190 170,190 450,205 489,206 989,208 1028,208 1260,192 "
     id="polyline94" />
  <polyline
     fill="none"
     opacity="1"
     stroke="#1F77B4"
     stroke-width="1"
     points="170,190 170,190 450,203 489,204 989,206 1028,205 1260,192 "
     id="polyline95" />
  <polyline
     fill="none"
     opacity="1"
     stroke="#1F77B4"
     stroke-width="1"
     points="170,190 170,190 450,197 489,198 989,199 1028,199 1260,191 "
     id="polyline96" />
  <polyline
     fill="none"
     opacity="1"
     stroke="#1F77B4"
     stroke-width="1"
     points="170,190 170,190 450,190 489,190 989,190 1028,190 1260,190 "
     id="polyline97" />
  <polyline
     fill="none"
     opacity="1"
     stroke="#1F77B4"
     stroke-width="1"
     points="170,190 170,190 450,183 489,182 989,181 1028,181 1260,189 "
     id="polyline98" />
  <polyline
     fill="none"
     opacity="1"
     stroke="#1F77B4"
     stroke-width="1"
     points="170,190 170,190 450,177 489,176 989,174 1028,175 1260,188 "
     id="polyline99" />
  <polyline
     fill="none"
     opacity="1"
     stroke="#1F77B4"
     stroke-width="1"
     points="170,190 170,190 450,168 489,167 989,163 1028,164 1260,188 "
     id="polyline100" />
  <polyline
     fill="none"
     opacity="1"
     stroke="#1F77B4"
     stroke-width="1"
     points="170,190 170,190 450,169 489,168 989,164 1028,165 1260,188 "
     id="polyline101" />
  <polyline
     fill="none"
     opacity="1"
     stroke="#1F77B4"
     stroke-width="1"
     points="170,190 170,190 450,173 489,172 989,169 1028,170 1260,188 "
     id="polyline102" />
  <polyline
     fill="none"
     opacity="1"
     stroke="#1F77B4"
     stroke-width="1"
     points="170,190 170,190 450,179 489,178 989,176 1028,177 1260,189 "
     id="polyline103" />
  <polyline
     fill="none"
     opacity="1"
     stroke="#1F77B4"
     stroke-width="1"
     points="170,190 170,190 450,186 489,186 989,185 1028,185 1260,190 "
     id="polyline104" />
  <polyline
     fill="none"
     opacity="1"
     stroke="#1F77B4"
     stroke-width="1"
     points="170,190 170,190 450,194 489,194 989,195 1028,195 1260,190 "
     id="polyline105" />
  <polyline
     fill="none"
     opacity="1"
     stroke="#1F77B4"
     stroke-width="1"
     points="170,190 170,190 450,201 489,202 989,204 1028,203 1260,191 "
     id="polyline106" />
  <polyline
     fill="none"
     opacity="1"
     stroke="#1F77B4"
     stroke-width="1"
     points="170,190 170,190 450,207 489,208 989,211 1028,210 1260,192 "
     id="polyline107" />
  <polyline
     fill="none"
     opacity="1"
     stroke="#1F77B4"
     stroke-width="1"
     points="170,190 170,190 450,211 489,212 989,216 1028,215 1260,192 "
     id="polyline108" />
  <polyline
     fill="none"
     opacity="1"
     stroke="#1F77B4"
     stroke-width="1"
     points="170,190 170,190 450,212 489,213 989,217 1028,216 1260,192 "
     id="polyline109" />
  <polyline
     fill="none"
     opacity="1"
     stroke="#1F77B4"
     stroke-width="1"
     points="170,190 170,190 450,211 489,212 989,216 1028,215 1260,192 "
     id="polyline110" />
  <polyline
     fill="none"
     opacity="1"
     stroke="#1F77B4"
     stroke-width="1"
     points="170,190 170,190 450,207 489,208 989,211 1028,210 1260,192 "
     id="polyline111" />
  <polyline
     fill="none"
     opacity="1"
     stroke="#1F77B4"
     stroke-width="1"
     points="170,190 170,190 450,201 489,202 989,204 1028,203 1260,191 "
     id="polyline112" />
  <polyline
     fill="none"
     opacity="1"
     stroke="#1F77B4"
     stroke-width="1"
     points="170,190 170,190 450,194 489,194 989,195 1028,195 1260,190 "
     id="polyline113" />
  <polyline
     fill="none"
     opacity="1"
     stroke="#1F77B4"
     stroke-width="1"
     points="170,190 170,190 450,186 489,186 989,185 1028,185 1260,190 "
     id="polyline114" />
  <polyline
     fill="none"
     opacity="1"
     stroke="#1F77B4"
     stroke-width="1"
     points="170,190 170,190 450,179 489,178 989,176 1028,177 1260,189 "
     id="polyline115" />
  <polyline
     fill="none"
     opacity="1"
     stroke="#1F77B4"
     stroke-width="1"
     points="170,190 170,190 450,173 489,172 989,169 1028,170 1260,188 "
     id="polyline116" />
  <polyline
     fill="none"
     opacity="1"
     stroke="#1F77B4"
     stroke-width="1"
     points="170,190 170,190 450,169 489,168 989,164 1028,165 1260,188 "
     id="polyline117" />
  <polyline
     fill="none"
     opacity="1"
     stroke="#1F77B4"
     stroke-width="1"
     points="170,190 170,190 450,160 488,159 990,154 1027,155 1260,187 "
     id="polyline118" />
  <polyline
     fill="none"
     opacity="1"
     stroke="#1F77B4"
     stroke-width="1"
     points="170,190 170,190 450,161 488,160 990,155 1027,156 1260,187 "
     id="polyline119" />
  <polyline
     fill="none"
     opacity="1"
     stroke="#1F77B4"
     stroke-width="1"
     points="170,190 170,190 450,164 488,163 990,159 1027,160 1260,188 "
     id="polyline120" />
  <polyline
     fill="none"
     opacity="1"
     stroke="#1F77B4"
     stroke-width="1"
     points="170,190 170,190 450,169 488,168 990,164 1027,165 1260,188 "
     id="polyline121" />
  <polyline
     fill="none"
     opacity="1"
     stroke="#1F77B4"
     stroke-width="1"
     points="170,190 170,190 450,175 488,174 990,172 1027,173 1260,189 "
     id="polyline122" />
  <polyline
     fill="none"
     opacity="1"
     stroke="#1F77B4"
     stroke-width="1"
     points="170,190 170,190 450,182 488,182 990,181 1027,181 1260,189 "
     id="polyline123" />
  <polyline
     fill="none"
     opacity="1"
     stroke="#1F77B4"
     stroke-width="1"
     points="170,190 170,190 450,190 488,190 990,190 1027,190 1260,190 "
     id="polyline124" />
  <polyline
     fill="none"
     opacity="1"
     stroke="#1F77B4"
     stroke-width="1"
     points="170,190 170,190 450,198 488,198 990,199 1027,199 1260,191 "
     id="polyline125" />
  <polyline
     fill="none"
     opacity="1"
     stroke="#1F77B4"
     stroke-width="1"
     points="170,190 170,190 450,205 488,206 990,208 1027,207 1260,191 "
     id="polyline126" />
  <polyline
     fill="none"
     opacity="1"
     stroke="#1F77B4"
     stroke-width="1"
     points="170,190 170,190 450,211 488,212 990,216 1027,215 1260,192 "
     id="polyline127" />
  <polyline
     fill="none"
     opacity="1"
     stroke="#1F77B4"
     stroke-width="1"
     points="170,190 170,190 450,216 488,217 990,221 1027,220 1260,192 "
     id="polyline128" />
  <polyline
     fill="none"
     opacity="1"
     stroke="#1F77B4"
     stroke-width="1"
     points="170,190 170,190 450,219 488,220 990,225 1027,224 1260,193 "
     id="polyline129" />
  <polyline
     fill="none"
     opacity="1"
     stroke="#1F77B4"
     stroke-width="1"
     points="170,190 170,190 450,220 488,221 990,226 1027,225 1260,193 "
     id="polyline130" />
  <polyline
     fill="none"
     opacity="1"
     stroke="#1F77B4"
     stroke-width="1"
     points="170,190 170,190 450,219 488,220 990,225 1027,224 1260,193 "
     id="polyline131" />
  <polyline
     fill="none"
     opacity="1"
     stroke="#1F77B4"
     stroke-width="1"
     points="170,190 170,190 450,216 488,217 990,221 1027,220 1260,192 "
     id="polyline132" />
  <polyline
     fill="none"
     opacity="1"
     stroke="#1F77B4"
     stroke-width="1"
     points="170,190 170,190 450,211 488,212 990,216 1027,215 1260,192 "
     id="polyline133" />
  <polyline
     fill="none"
     opacity="1"
     stroke="#1F77B4"
     stroke-width="1"
     points="170,190 170,190 450,205 488,206 990,208 1027,207 1260,191 "
     id="polyline134" />
  <polyline
     fill="none"
     opacity="1"
     stroke="#1F77B4"
     stroke-width="1"
     points="170,190 170,190 450,198 488,198 990,199 1027,199 1260,191 "
     id="polyline135" />
  <polyline
     fill="none"
     opacity="1"
     stroke="#1F77B4"
     stroke-width="1"
     points="170,190 170,190 450,190 488,190 990,190 1027,190 1260,190 "
     id="polyline136" />
  <polyline
     fill="none"
     opacity="1"
     stroke="#1F77B4"
     stroke-width="1"
     points="170,190 170,190 450,182 488,182 990,181 1027,181 1260,189 "
     id="polyline137" />
  <polyline
     fill="none"
     opacity="1"
     stroke="#1F77B4"
     stroke-width="1"
     points="170,190 170,190 450,175 488,174 990,172 1027,173 1260,189 "
     id="polyline138" />
  <polyline
     fill="none"
     opacity="1"
     stroke="#1F77B4"
     stroke-width="1"
     points="170,190 170,190 450,169 488,168 990,164 1027,165 1260,188 "
     id="polyline139" />
  <polyline
     fill="none"
     opacity="1"
     stroke="#1F77B4"
     stroke-width="1"
     points="170,190 170,190 450,164 488,163 990,159 1027,160 1260,188 "
     id="polyline140" />
  <polyline
     fill="none"
     opacity="1"
     stroke="#1F77B4"
     stroke-width="1"
     points="170,190 170,190 450,161 488,160 990,155 1027,156 1260,187 "
     id="polyline141" />
  <polyline
     fill="none"
     opacity="1"
     stroke="#1F77B4"
     stroke-width="1"
     points="170,190 170,190 451,152 488,151 991,145 1026,147 1260,187 "
     id="polyline142" />
  <polyline
     fill="none"
     opacity="1"
     stroke="#1F77B4"
     stroke-width="1"
     points="170,190 170,190 451,153 488,152 991,146 1026,148 1260,187 "
     id="polyline143" />
  <polyline
     fill="none"
     opacity="1"
     stroke="#1F77B4"
     stroke-width="1"
     points="170,190 170,190 451,156 488,154 991,149 1026,150 1260,187 "
     id="polyline144" />
  <polyline
     fill="none"
     opacity="1"
     stroke="#1F77B4"
     stroke-width="1"
     points="170,190 170,190 451,160 488,158 991,154 1026,155 1260,188 "
     id="polyline145" />
  <polyline
     fill="none"
     opacity="1"
     stroke="#1F77B4"
     stroke-width="1"
     points="170,190 170,190 451,165 488,164 991,160 1026,161 1260,188 "
     id="polyline146" />
  <polyline
     fill="none"
     opacity="1"
     stroke="#1F77B4"
     stroke-width="1"
     points="170,190 170,190 451,171 488,170 991,168 1026,168 1260,189 "
     id="polyline147" />
  <polyline
     fill="none"
     opacity="1"
     stroke="#1F77B4"
     stroke-width="1"
     points="170,190 170,190 451,178 488,178 991,176 1026,177 1260,189 "
     id="polyline148" />
  <polyline
     fill="none"
     opacity="1"
     stroke="#1F77B4"
     stroke-width="1"
     points="170,190 170,190 451,186 488,186 991,185 1026,185 1260,190 "
     id="polyline149" />
  <polyline
     fill="none"
     opacity="1"
     stroke="#1F77B4"
     stroke-width="1"
     points="170,190 170,190 451,194 488,194 991,195 1026,195 1260,190 "
     id="polyline150" />
  <polyline
     fill="none"
     opacity="1"
     stroke="#1F77B4"
     stroke-width="1"
     points="170,190 170,190 451,202 488,202 991,204 1026,203 1260,191 "
     id="polyline151" />
  <polyline
     fill="none"
     opacity="1"
     stroke="#1F77B4"
     stroke-width="1"
     points="170,190 170,190 451,209 488,210 991,212 1026,212 1260,191 "
     id="polyline152" />
  <polyline
     fill="none"
     opacity="1"
     stroke="#1F77B4"
     stroke-width="1"
     points="170,190 170,190 451,215 488,216 991,220 1026,219 1260,192 "
     id="polyline153" />
  <polyline
     fill="none"
     opacity="1"
     stroke="#1F77B4"
     stroke-width="1"
     points="170,190 170,190 451,220 488,222 991,226 1026,225 1260,192 "
     id="polyline154" />
  <polyline
     fill="none"
     opacity="1"
     stroke="#1F77B4"
     stroke-width="1"
     points="170,190 170,190 451,224 488,226 991,231 1026,230 1260,193 "
     id="polyline155" />
  <polyline
     fill="none"
     opacity="1"
     stroke="#1F77B4"
     stroke-width="1"
     points="170,190 170,190 451,227 488,228 991,234 1026,232 1260,193 "
     id="polyline156" />
  <polyline
     fill="none"
     opacity="1"
     stroke="#1F77B4"
     stroke-width="1"
     points="170,190 170,190 451,228 488,229 991,235 1026,233 1260,193 "
     id="polyline157" />
  <polyline
     fill="none"
     opacity="1"
     stroke="#1F77B4"
     stroke-width="1"
     points="170,190 170,190 451,227 488,228 991,234 1026,232 1260,193 "
     id="polyline158" />
  <polyline
     fill="none"
     opacity="1"
     stroke="#1F77B4"
     stroke-width="1"
     points="170,190 170,190 451,224 488,226 991,231 1026,230 1260,193 "
     id="polyline159" />
  <polyline
     fill="none"
     opacity="1"
     stroke="#1F77B4"
     stroke-width="1"
     points="170,190 170,190 451,220 488,222 991,226 1026,225 1260,192 "
     id="polyline160" />
  <polyline
     fill="none"
     opacity="1"
     stroke="#1F77B4"
     stroke-width="1"
     points="170,190 170,190 451,215 488,216 991,220 1026,219 1260,192 "
     id="polyline161" />
  <polyline
     fill="none"
     opacity="1"
     stroke="#1F77B4"
     stroke-width="1"
     points="170,190 170,190 451,209 488,210 991,212 1026,212 1260,191 "
     id="polyline162" />
  <polyline
     fill="none"
     opacity="1"
     stroke="#1F77B4"
     stroke-width="1"
     points="170,190 170,190 451,202 488,202 991,204 1026,203 1260,191 "
     id="polyline163" />
  <polyline
     fill="none"
     opacity="1"
     stroke="#1F77B4"
     stroke-width="1"
     points="170,190 170,190 451,194 488,194 991,195 1026,195 1260,190 "
     id="polyline164" />
  <polyline
     fill="none"
     opacity="1"
     stroke="#1F77B4"
     stroke-width="1"
     points="170,190 170,190 451,186 488,186 991,185 1026,185 1260,190 "
     id="polyline165" />
  <polyline
     fill="none"
     opacity="1"
     stroke="#1F77B4"
     stroke-width="1"
     points="170,190 170,190 451,178 488,178 991,176 1026,177 1260,189 "
     id="polyline166" />
  <polyline
     fill="none"
     opacity="1"
     stroke="#1F77B4"
     stroke-width="1"
     points="170,190 170,190 451,171 488,170 991,168 1026,168 1260,189 "
     id="polyline167" />
  <polyline
     fill="none"
     opacity="1"
     stroke="#1F77B4"
     stroke-width="1"
     points="170,190 170,190 451,165 488,164 991,160 1026,161 1260,188 "
     id="polyline168" />
  <polyline
     fill="none"
     opacity="1"
     stroke="#1F77B4"
     stroke-width="1"
     points="170,190 170,190 451,160 488,158 991,154 1026,155 1260,188 "
     id="polyline169" />
  <polyline
     fill="none"
     opacity="1"
     stroke="#1F77B4"
     stroke-width="1"
     points="170,190 170,190 451,156 488,154 991,149 1026,150 1260,187 "
     id="polyline170" />
  <polyline
     fill="none"
     opacity="1"
     stroke="#1F77B4"
     stroke-width="1"
     points="170,190 170,190 451,153 488,152 991,146 1026,148 1260,187 "
     id="polyline171" />
  <polyline
     fill="none"
     opacity="1"
     stroke="#1F77B4"
     stroke-width="1"
     points="170,190 170,190 451,145 487,143 992,137 1025,138 1260,188 "
     id="polyline172" />
  <polyline
     fill="none"
     opacity="1"
     stroke="#1F77B4"
     stroke-width="1"
     points="170,190 170,190 451,146 487,144 992,138 1025,139 1260,188 "
     id="polyline173" />
  <polyline
     fill="none"
     opacity="1"
     stroke="#1F77B4"
     stroke-width="1"
     points="170,190 170,190 451,148 487,146 992,140 1025,142 1260,188 "
     id="polyline174" />
  <polyline
     fill="none"
     opacity="1"
     stroke="#1F77B4"
     stroke-width="1"
     points="170,190 170,190 451,151 487,149 992,144 1025,145 1260,188 "
     id="polyline175" />
  <polyline
     fill="none"
     opacity="1"
     stroke="#1F77B4"
     stroke-width="1"
     points="170,190 170,190 451,155 487,154 992,149 1025,151 1260,188 "
     id="polyline176" />
  <polyline
     fill="none"
     opacity="1"
     stroke="#1F77B4"
     stroke-width="1"
     points="170,190 170,190 451,161 487,160 992,156 1025,157 1260,188 "
     id="polyline177" />
  <polyline
     fill="none"
     opacity="1"
     stroke="#1F77B4"
     stroke-width="1"
     points="170,190 170,190 451,167 487,167 992,163 1025,164 1260,189 "
     id="polyline178" />
  <polyline
     fill="none"
     opacity="1"
     stroke="#1F77B4"
     stroke-width="1"
     points="170,190 170,190 451,175 487,174 992,172 1025,172 1260,189 "
     id="polyline179" />
  <polyline
     fill="none"
     opacity="1"
     stroke="#1F77B4"
     stroke-width="1"
     points="170,190 170,190 451,182 487,182 992,181 1025,181 1260,190 "
     id="polyline180" />
  <polyline
     fill="none"
     opacity="1"
     stroke="#1F77B4"
     stroke-width="1"
     points="170,190 170,190 451,190 487,190 992,190 1025,190 1260,190 "
     id="polyline181" />
  <polyline
     fill="none"
     opacity="1"
     stroke="#1F77B4"
     stroke-width="1"
     points="170,190 170,190 451,198 487,198 992,199 1025,199 1260,190 "
     id="polyline182" />
  <polyline
     fill="none"
     opacity="1"
     stroke="#1F77B4"
     stroke-width="1"
     points="170,190 170,190 451,205 487,206 992,208 1025,208 1260,191 "
     id="polyline183" />
  <polyline
     fill="none"
     opacity="1"
     stroke="#1F77B4"
     stroke-width="1"
     points="170,190 170,190 451,213 487,213 992,217 1025,216 1260,191 "
     id="polyline184" />
  <polyline
     fill="none"
     opacity="1"
     stroke="#1F77B4"
     stroke-width="1"
     points="170,190 170,190 451,219 487,220 992,224 1025,223 1260,192 "
     id="polyline185" />
  <polyline
     fill="none"
     opacity="1"
     stroke="#1F77B4"
     stroke-width="1"
     points="170,190 170,190 451,225 487,226 992,231 1025,229 1260,192 "
     id="polyline186" />
  <polyline
     fill="none"
     opacity="1"
     stroke="#1F77B4"
     stroke-width="1"
     points="170,190 170,190 451,229 487,231 992,236 1025,235 1260,192 "
     id="polyline187" />
  <polyline
     fill="none"
     opacity="1"
     stroke="#1F77B4"
     stroke-width="1"
     points="170,190 170,190 451,232 487,234 992,240 1025,238 1260,192 "
     id="polyline188" />
  <polyline
     fill="none"
     opacity="1"
     stroke="#1F77B4"
     stroke-width="1"
     points="170,190 170,190 451,234 487,236 992,242 1025,241 1260,192 "
     id="polyline189" />
  <polyline
     fill="none"
     opacity="1"
     stroke="#1F77B4"
     stroke-width="1"
     points="170,190 170,190 451,235 487,237 992,243 1025,242 1260,192 "
     id="polyline190" />
  <polyline
     fill="none"
     opacity="1"
     stroke="#1F77B4"
     stroke-width="1"
     points="170,190 170,190 451,234 487,236 992,242 1025,241 1260,192 "
     id="polyline191" />
  <polyline
     fill="none"
     opacity="1"
     stroke="#1F77B4"
     stroke-width="1"
     points="170,190 170,190 451,232 487,234 992,240 1025,238 1260,192 "
     id="polyline192" />
  <polyline
     fill="none"
     opacity="1"
     stroke="#1F77B4"
     stroke-width="1"
     points="170,190 170,190 451,229 487,231 992,236 1025,235 1260,192 "
     id="polyline193" />
  <polyline
     fill="none"
     opacity="1"
     stroke="#1F77B4"
     stroke-width="1"
     points="170,190 170,190 451,225 487,226 992,231 1025,229 1260,192 "
     id="polyline194" />
  <polyline
     fill="none"
     opacity="1"
     stroke="#1F77B4"
     stroke-width="1"
     points="170,190 170,190 451,219 487,220 992,224 1025,223 1260,192 "
     id="polyline195" />
  <polyline
     fill="none"
     opacity="1"
     stroke="#1F77B4"
     stroke-width="1"
     points="170,190 170,190 451,213 487,213 992,217 1025,216 1260,191 "
     id="polyline196" />
  <polyline
     fill="none"
     opacity="1"
     stroke="#1F77B4"
     stroke-width="1"
     points="170,190 170,190 451,205 487,206 992,208 1025,208 1260,191 "
     id="polyline197" />
  <polyline
     fill="none"
     opacity="1"
     stroke="#1F77B4"
     stroke-width="1"
     points="170,190 170,190 451,198 487,198 992,199 1025,199 1260,190 "
     id="polyline198" />
  <polyline
     fill="none"
     opacity="1"
     stroke="#1F77B4"
     stroke-width="1"
     points="170,190 170,190 451,190 487,190 992,190 1025,190 1260,190 "
     id="polyline199" />
  <polyline
     fill="none"
     opacity="1"
     stroke="#1F77B4"
     stroke-width="1"
     points="170,190 170,190 451,182 487,182 992,181 1025,181 1260,190 "
     id="polyline200" />
  <polyline
     fill="none"
     opacity="1"
     stroke="#1F77B4"
     stroke-width="1"
     points="170,190 170,190 451,175 487,174 992,172 1025,172 1260,189 "
     id="polyline201" />
  <polyline
     fill="none"
     opacity="1"
     stroke="#1F77B4"
     stroke-width="1"
     points="170,190 170,190 451,167 487,167 992,163 1025,164 1260,189 "
     id="polyline202" />
  <polyline
     fill="none"
     opacity="1"
     stroke="#1F77B4"
     stroke-width="1"
     points="170,190 170,190 451,161 487,160 992,156 1025,157 1260,188 "
     id="polyline203" />
  <polyline
     fill="none"
     opacity="1"
     stroke="#1F77B4"
     stroke-width="1"
     points="170,190 170,190 451,155 487,154 992,149 1025,151 1260,188 "
     id="polyline204" />
  <polyline
     fill="none"
     opacity="1"
     stroke="#1F77B4"
     stroke-width="1"
     points="170,190 170,190 451,151 487,149 992,144 1025,145 1260,188 "
     id="polyline205" />
  <polyline
     fill="none"
     opacity="1"
     stroke="#1F77B4"
     stroke-width="1"
     points="170,190 170,190 451,148 487,146 992,140 1025,142 1260,188 "
     id="polyline206" />
  <polyline
     fill="none"
     opacity="1"
     stroke="#1F77B4"
     stroke-width="1"
     points="170,190 170,190 451,146 487,144 992,138 1025,139 1260,188 "
     id="polyline207" />
  <polyline
     fill="none"
     opacity="1"
     stroke="#1F77B4"
     stroke-width="1"
     points="170,190 170,190 452,137 487,135 993,129 1024,131 1260,189 "
     id="polyline208" />
  <polyline
     fill="none"
     opacity="1"
     stroke="#1F77B4"
     stroke-width="1"
     points="170,190 170,190 452,138 487,136 993,129 1024,131 1260,189 "
     id="polyline209" />
  <polyline
     fill="none"
     opacity="1"
     stroke="#1F77B4"
     stroke-width="1"
     points="170,190 170,190 452,140 487,138 993,131 1024,133 1260,189 "
     id="polyline210" />
  <polyline
     fill="none"
     opacity="1"
     stroke="#1F77B4"
     stroke-width="1"
     points="170,190 170,190 452,142 487,141 993,135 1024,136 1260,189 "
     id="polyline211" />
  <polyline
     fill="none"
     opacity="1"
     stroke="#1F77B4"
     stroke-width="1"
     points="170,190 170,190 452,146 487,145 993,139 1024,141 1260,189 "
     id="polyline212" />
  <polyline
     fill="none"
     opacity="1"
     stroke="#1F77B4"
     stroke-width="1"
     points="170,190 170,190 452,151 487,150 993,145 1024,146 1260,189 "
     id="polyline213" />
  <polyline
     fill="none"
     opacity="1"
     stroke="#1F77B4"
     stroke-width="1"
     points="170,190 170,190 452,157 487,156 993,152 1024,153 1260,189 "
     id="polyline214" />
  <polyline
     fill="none"
     opacity="1"
     stroke="#1F77B4"
     stroke-width="1"
     points="170,190 170,190 452,164 487,163 993,159 1024,160 1260,189 "
     id="polyline215" />
  <polyline
     fill="none"
     opacity="1"
     stroke="#1F77B4"
     stroke-width="1"
     points="170,190 170,190 452,171 487,170 993,168 1024,168 1260,190 "
     id="polyline216" />
  <polyline
     fill="none"
     opacity="1"
     stroke="#1F77B4"
     stroke-width="1"
     points="170,190 170,190 452,178 487,178 993,176 1024,177 1260,190 "
     id="polyline217" />
  <polyline
     fill="none"
     opacity="1"
     stroke="#1F77B4"
     stroke-width="1"
     points="170,190 170,190 452,186 487,186 993,185 1024,186 1260,190 "
     id="polyline218" />
  <polyline
     fill="none"
     opacity="1"
     stroke="#1F77B4"
     stroke-width="1"
     points="170,190 170,190 452,194 487,194 993,195 1024,194 1260,190 "
     id="polyline219" />
  <polyline
     fill="none"
     opacity="1"
     stroke="#1F77B4"
     stroke-width="1"
     points="170,190 170,190 452,202 487,202 993,204 1024,203 1260,190 "
     id="polyline220" />
  <polyline
     fill="none"
     opacity="1"
     stroke="#1F77B4"
     stroke-width="1"
     points="170,190 170,190 452,209 487,210 993,212 1024,212 1260,190 "
     id="polyline221" />
  <polyline
     fill="none"
     opacity="1"
     stroke="#1F77B4"
     stroke-width="1"
     points="170,190 170,190 452,216 487,217 993,221 1024,220 1260,191 "
     id="polyline222" />
  <polyline
     fill="none"
     opacity="1"
     stroke="#1F77B4"
     stroke-width="1"
     points="170,190 170,190 452,223 487,224 993,228 1024,227 1260,191 "
     id="polyline223" />
  <polyline
     fill="none"
     opacity="1"
     stroke="#1F77B4"
     stroke-width="1"
     points="170,190 170,190 452,229 487,230 993,235 1024,234 1260,191 "
     id="polyline224" />
  <polyline
     fill="none"
     opacity="1"
     stroke="#1F77B4"
     stroke-width="1"
     points="170,190 170,190 452,234 487,235 993,241 1024,239 1260,191 "
     id="polyline225" />
  <polyline
     fill="none"
     opacity="1"
     stroke="#1F77B4"
     stroke-width="1"
     points="170,190 170,190 452,238 487,239 993,245 1024,244 1260,191 "
     id="polyline226" />
  <polyline
     fill="none"
     opacity="1"
     stroke="#1F77B4"
     stroke-width="1"
     points="170,190 170,190 452,240 487,242 993,249 1024,247 1260,191 "
     id="polyline227" />
  <polyline
     fill="none"
     opacity="1"
     stroke="#1F77B4"
     stroke-width="1"
     points="170,190 170,190 452,242 487,244 993,251 1024,249 1260,191 "
     id="polyline228" />
  <polyline
     fill="none"
     opacity="1"
     stroke="#1F77B4"
     stroke-width="1"
     points="170,190 170,190 452,243 487,245 993,251 1024,249 1260,191 "
     id="polyline229" />
  <polyline
     fill="none"
     opacity="1"
     stroke="#1F77B4"
     stroke-width="1"
     points="170,190 170,190 452,242 487,244 993,251 1024,249 1260,191 "
     id="polyline230" />
  <polyline
     fill="none"
     opacity="1"
     stroke="#1F77B4"
     stroke-width="1"
     points="170,190 170,190 452,240 487,242 993,249 1024,247 1260,191 "
     id="polyline231" />
  <polyline
     fill="none"
     opacity="1"
     stroke="#1F77B4"
     stroke-width="1"
     points="170,190 170,190 452,238 487,239 993,245 1024,244 1260,191 "
     id="polyline232" />
  <polyline
     fill="none"
     opacity="1"
     stroke="#1F77B4"
     stroke-width="1"
     points="170,190 170,190 452,234 487,235 993,241 1024,239 1260,191 "
     id="polyline233" />
  <polyline
     fill="none"
     opacity="1"
     stroke="#1F77B4"
     stroke-width="1"
     points="170,190 170,190 452,229 487,230 993,235 1024,234 1260,191 "
     id="polyline234" />
  <polyline
     fill="none"
     opacity="1"
     stroke="#1F77B4"
     stroke-width="1"
     points="170,190 170,190 452,223 487,224 993,228 1024,227 1260,191 "
     id="polyline235" />
  <polyline
     fill="none"
     opacity="1"
     stroke="#1F77B4"
     stroke-width="1"
     points="170,190 170,190 452,216 487,217 993,221 1024,220 1260,191 "
     id="polyline236" />
  <polyline
     fill="none"
     opacity="1"
     stroke="#1F77B4"
     stroke-width="1"
     points="170,190 170,190 452,209 487,210 993,212 1024,212 1260,190 "
     id="polyline237" />
  <polyline
     fill="none"
     opacity="1"
     stroke="#1F77B4"
     stroke-width="1"
     points="170,190 170,190 452,202 487,202 993,204 1024,203 1260,190 "
     id="polyline238" />
  <polyline
     fill="none"
     opacity="1"
     stroke="#1F77B4"
     stroke-width="1"
     points="170,190 170,190 452,194 487,194 993,195 1024,194 1260,190 "
     id="polyline239" />
  <polyline
     fill="none"
     opacity="1"
     stroke="#1F77B4"
     stroke-width="1"
     points="170,190 170,190 452,186 487,186 993,185 1024,186 1260,190 "
     id="polyline240" />
  <polyline
     fill="none"
     opacity="1"
     stroke="#1F77B4"
     stroke-width="1"
     points="170,190 170,190 452,178 487,178 993,176 1024,177 1260,190 "
     id="polyline241" />
  <polyline
     fill="none"
     opacity="1"
     stroke="#1F77B4"
     stroke-width="1"
     points="170,190 170,190 452,171 487,170 993,168 1024,168 1260,190 "
     id="polyline242" />
  <polyline
     fill="none"
     opacity="1"
     stroke="#1F77B4"
     stroke-width="1"
     points="170,190 170,190 452,164 487,163 993,159 1024,160 1260,189 "
     id="polyline243" />
  <polyline
     fill="none"
     opacity="1"
     stroke="#1F77B4"
     stroke-width="1"
     points="170,190 170,190 452,157 487,156 993,152 1024,153 1260,189 "
     id="polyline244" />
  <polyline
     fill="none"
     opacity="1"
     stroke="#1F77B4"
     stroke-width="1"
     points="170,190 170,190 452,151 487,150 993,145 1024,146 1260,189 "
     id="polyline245" />
  <polyline
     fill="none"
     opacity="1"
     stroke="#1F77B4"
     stroke-width="1"
     points="170,190 170,190 452,146 487,145 993,139 1024,141 1260,189 "
     id="polyline246" />
  <polyline
     fill="none"
     opacity="1"
     stroke="#1F77B4"
     stroke-width="1"
     points="170,190 170,190 452,142 487,141 993,135 1024,136 1260,189 "
     id="polyline247" />
  <polyline
     fill="none"
     opacity="1"
     stroke="#1F77B4"
     stroke-width="1"
     points="170,190 170,190 452,140 487,138 993,131 1024,133 1260,189 "
     id="polyline248" />
  <polyline
     fill="none"
     opacity="1"
     stroke="#1F77B4"
     stroke-width="1"
     points="170,190 170,190 452,138 487,136 993,129 1024,131 1260,189 "
     id="polyline249" />
  <polyline
     fill="none"
     opacity="1"
     stroke="#1F77B4"
     stroke-width="1"
     points="170,190 170,190 453,129 486,127 995,121 1023,123 1260,190 "
     id="polyline250" />
  <polyline
     fill="none"
     opacity="1"
     stroke="#1F77B4"
     stroke-width="1"
     points="170,190 170,190 453,130 486,128 995,121 1023,123 1260,190 "
     id="polyline251" />
  <polyline
     fill="none"
     opacity="1"
     stroke="#1F77B4"
     stroke-width="1"
     points="170,190 170,190 453,132 486,130 995,123 1023,125 1260,190 "
     id="polyline252" />
  <polyline
     fill="none"
     opacity="1"
     stroke="#1F77B4"
     stroke-width="1"
     points="170,190 170,190 453,134 486,132 995,126 1023,128 1260,190 "
     id="polyline253" />
  <polyline
     fill="none"
     opacity="1"
     stroke="#1F77B4"
     stroke-width="1"
     points="170,190 170,190 453,138 486,136 995,130 1023,132 1260,190 "
     id="polyline254" />
  <polyline
     fill="none"
     opacity="1"
     stroke="#1F77B4"
     stroke-width="1"
     points="170,190 170,190 453,142 486,140 995,135 1023,137 1260,190 "
     id="polyline255" />
  <polyline
     fill="none"
     opacity="1"
     stroke="#1F77B4"
     stroke-width="1"
     points="170,190 170,190 453,147 486,146 995,141 1023,143 1260,190 "
     id="polyline256" />
  <polyline
     fill="none"
     opacity="1"
     stroke="#1F77B4"
     stroke-width="1"
     points="170,190 170,190 453,153 486,152 995,148 1023,149 1260,190 "
     id="polyline257" />
  <polyline
     fill="none"
     opacity="1"
     stroke="#1F77B4"
     stroke-width="1"
     points="170,190 170,190 453,160 486,159 995,155 1023,156 1260,190 "
     id="polyline258" />
  <polyline
     fill="none"
     opacity="1"
     stroke="#1F77B4"
     stroke-width="1"
     points="170,190 170,190 453,167 486,166 995,164 1023,164 1260,190 "
     id="polyline259" />
  <polyline
     fill="none"
     opacity="1"
     stroke="#1F77B4"
     stroke-width="1"
     points="170,190 170,190 453,174 486,174 995,172 1023,173 1260,190 "
     id="polyline260" />
  <polyline
     fill="none"
     opacity="1"
     stroke="#1F77B4"
     stroke-width="1"
     points="170,190 170,190 453,182 486,182 995,181 1023,181 1260,190 "
     id="polyline261" />
  <polyline
     fill="none"
     opacity="1"
     stroke="#1F77B4"
     stroke-width="1"
     points="170,190 170,190 453,190 486,190 995,190 1023,190 1260,190 "
     id="polyline262" />
  <polyline
     fill="none"
     opacity="1"
     stroke="#1F77B4"
     stroke-width="1"
     points="170,190 170,190 453,198 486,198 995,199 1023,199 1260,190 "
     id="polyline263" />
  <polyline
     fill="none"
     opacity="1"
     stroke="#1F77B4"
     stroke-width="1"
     points="170,190 170,190 453,206 486,206 995,208 1023,207 1260,190 "
     id="polyline264" />
  <polyline
     fill="none"
     opacity="1"
     stroke="#1F77B4"
     stroke-width="1"
     points="170,190 170,190 453,213 486,214 995,216 1023,216 1260,190 "
     id="polyline265" />
  <polyline
     fill="none"
     opacity="1"
     stroke="#1F77B4"
     stroke-width="1"
     points="170,190 170,190 453,220 486,221 995,225 1023,224 1260,190 "
     id="polyline266" />
  <polyline
     fill="none"
     opacity="1"
     stroke="#1F77B4"
     stroke-width="1"
     points="170,190 170,190 453,227 486,228 995,232 1023,231 1260,190 "
     id="polyline267" />
  <polyline
     fill="none"
     opacity="1"
     stroke="#1F77B4"
     stroke-width="1"
     points="170,190 170,190 453,233 486,234 995,239 1023,237 1260,190 "
     id="polyline268" />
  <polyline
     fill="none"
     opacity="1"
     stroke="#1F77B4"
     stroke-width="1"
     points="170,190 170,190 453,238 486,240 995,245 1023,243 1260,190 "
     id="polyline269" />
  <polyline
     fill="none"
     opacity="1"
     stroke="#1F77B4"
     stroke-width="1"
     points="170,190 170,190 453,242 486,244 995,250 1023,248 1260,190 "
     id="polyline270" />
  <polyline
     fill="none"
     opacity="1"
     stroke="#1F77B4"
     stroke-width="1"
     points="170,190 170,190 453,246 486,248 995,254 1023,252 1260,190 "
     id="polyline271" />
  <polyline
     fill="none"
     opacity="1"
     stroke="#1F77B4"
     stroke-width="1"
     points="170,190 170,190 453,248 486,250 995,257 1023,255 1260,190 "
     id="polyline272" />
  <polyline
     fill="none"
     opacity="1"
     stroke="#1F77B4"
     stroke-width="1"
     points="170,190 170,190 453,250 486,252 995,259 1023,257 1260,190 "
     id="polyline273" />
  <polyline
     fill="none"
     opacity="1"
     stroke="#1F77B4"
     stroke-width="1"
     points="170,190 170,190 453,250 486,253 995,259 1023,257 1260,190 "
     id="polyline274" />
  <polyline
     fill="none"
     opacity="1"
     stroke="#1F77B4"
     stroke-width="1"
     points="170,190 170,190 453,250 486,252 995,259 1023,257 1260,190 "
     id="polyline275" />
  <polyline
     fill="none"
     opacity="1"
     stroke="#1F77B4"
     stroke-width="1"
     points="170,190 170,190 453,248 486,250 995,257 1023,255 1260,190 "
     id="polyline276" />
  <polyline
     fill="none"
     opacity="1"
     stroke="#1F77B4"
     stroke-width="1"
     points="170,190 170,190 453,246 486,248 995,254 1023,252 1260,190 "
     id="polyline277" />
  <polyline
     fill="none"
     opacity="1"
     stroke="#1F77B4"
     stroke-width="1"
     points="170,190 170,190 453,242 486,244 995,250 1023,248 1260,190 "
     id="polyline278" />
  <polyline
     fill="none"
     opacity="1"
     stroke="#1F77B4"
     stroke-width="1"
     points="170,190 170,190 453,238 486,240 995,245 1023,243 1260,190 "
     id="polyline279" />
  <polyline
     fill="none"
     opacity="1"
     stroke="#1F77B4"
     stroke-width="1"
     points="170,190 170,190 453,233 486,234 995,239 1023,237 1260,190 "
     id="polyline280" />
  <polyline
     fill="none"
     opacity="1"
     stroke="#1F77B4"
     stroke-width="1"
     points="170,190 170,190 453,227 486,228 995,232 1023,231 1260,190 "
     id="polyline281" />
  <polyline
     fill="none"
     opacity="1"
     stroke="#1F77B4"
     stroke-width="1"
     points="170,190 170,190 453,220 486,221 995,225 1023,224 1260,190 "
     id="polyline282" />
  <polyline
     fill="none"
     opacity="1"
     stroke="#1F77B4"
     stroke-width="1"
     points="170,190 170,190 453,213 486,214 995,216 1023,216 1260,190 "
     id="polyline283" />
  <polyline
     fill="none"
     opacity="1"
     stroke="#1F77B4"
     stroke-width="1"
     points="170,190 170,190 453,206 486,206 995,208 1023,207 1260,190 "
     id="polyline284" />
  <polyline
     fill="none"
     opacity="1"
     stroke="#1F77B4"
     stroke-width="1"
     points="170,190 170,190 453,198 486,198 995,199 1023,199 1260,190 "
     id="polyline285" />
  <polyline
     fill="none"
     opacity="1"
     stroke="#1F77B4"
     stroke-width="1"
     points="170,190 170,190 453,190 486,190 995,190 1023,190 1260,190 "
     id="polyline286" />
  <polyline
     fill="none"
     opacity="1"
     stroke="#1F77B4"
     stroke-width="1"
     points="170,190 170,190 453,182 486,182 995,181 1023,181 1260,190 "
     id="polyline287" />
  <polyline
     fill="none"
     opacity="1"
     stroke="#1F77B4"
     stroke-width="1"
     points="170,190 170,190 453,174 486,174 995,172 1023,173 1260,190 "
     id="polyline288" />
  <polyline
     fill="none"
     opacity="1"
     stroke="#1F77B4"
     stroke-width="1"
     points="170,190 170,190 453,167 486,166 995,164 1023,164 1260,190 "
     id="polyline289" />
  <polyline
     fill="none"
     opacity="1"
     stroke="#1F77B4"
     stroke-width="1"
     points="170,190 170,190 453,160 486,159 995,155 1023,156 1260,190 "
     id="polyline290" />
  <polyline
     fill="none"
     opacity="1"
     stroke="#1F77B4"
     stroke-width="1"
     points="170,190 170,190 453,153 486,152 995,148 1023,149 1260,190 "
     id="polyline291" />
  <polyline
     fill="none"
     opacity="1"
     stroke="#1F77B4"
     stroke-width="1"
     points="170,190 170,190 453,147 486,146 995,141 1023,143 1260,190 "
     id="polyline292" />
  <polyline
     fill="none"
     opacity="1"
     stroke="#1F77B4"
     stroke-width="1"
     points="170,190 170,190 453,142 486,140 995,135 1023,137 1260,190 "
     id="polyline293" />
  <polyline
     fill="none"
     opacity="1"
     stroke="#1F77B4"
     stroke-width="1"
     points="170,190 170,190 453,138 486,136 995,130 1023,132 1260,190 "
     id="polyline294" />
  <polyline
     fill="none"
     opacity="1"
     stroke="#1F77B4"
     stroke-width="1"
     points="170,190 170,190 453,134 486,132 995,126 1023,128 1260,190 "
     id="polyline295" />
  <polyline
     fill="none"
     opacity="1"
     stroke="#1F77B4"
     stroke-width="1"
     points="170,190 170,190 453,132 486,130 995,123 1023,125 1260,190 "
     id="polyline296" />
  <polyline
     fill="none"
     opacity="1"
     stroke="#1F77B4"
     stroke-width="1"
     points="170,190 170,190 453,130 486,128 995,121 1023,123 1260,190 "
     id="polyline297" />
</svg>
