<?xml version="1.0" encoding="UTF-8" standalone="no"?>
<svg
   width="1346"
   height="435"
   viewBox="0 0 1346 435"
   version="1.1"
   id="svg76"
   sodipodi:docname="workshop__08_Ray_plot.svg"
   xml:space="preserve"
   inkscape:version="1.4 (86a8ad7, 2024-10-11)"
   inkscape:export-filename="workshop__08_Ray_plot.png"
   inkscape:export-xdpi="96"
   inkscape:export-ydpi="96"
   xmlns:inkscape="http://www.inkscape.org/namespaces/inkscape"
   xmlns:sodipodi="http://sodipodi.sourceforge.net/DTD/sodipodi-0.dtd"
   xmlns="http://www.w3.org/2000/svg"
   xmlns:svg="http://www.w3.org/2000/svg"><defs
     id="defs76"><marker
       style="overflow:visible"
       id="Triangle"
       refX="0"
       refY="0"
       orient="auto-start-reverse"
       inkscape:stockid="Triangle arrow"
       markerWidth="1"
       markerHeight="1"
       viewBox="0 0 1 1"
       inkscape:isstock="true"
       inkscape:collect="always"
       preserveAspectRatio="xMidYMid"><path
         transform="scale(0.5)"
         style="fill:context-stroke;fill-rule:evenodd;stroke:context-stroke;stroke-width:1pt"
         d="M 5.77,0 -2.88,5 V -5 Z"
         id="path135" /></marker><marker
       style="overflow:visible"
       id="Triangle-7"
       refX="0"
       refY="0"
       orient="auto-start-reverse"
       inkscape:stockid="Triangle arrow"
       markerWidth="1"
       markerHeight="1"
       viewBox="0 0 1 1"
       inkscape:isstock="true"
       inkscape:collect="always"
       preserveAspectRatio="xMidYMid"><path
         transform="scale(0.5)"
         style="fill:context-stroke;fill-rule:evenodd;stroke:context-stroke;stroke-width:1pt"
         d="M 5.77,0 -2.88,5 V -5 Z"
         id="path135-2" /></marker></defs><sodipodi:namedview
     id="namedview76"
     pagecolor="#ffffff"
     bordercolor="#000000"
     borderopacity="0.25"
     inkscape:showpageshadow="2"
     inkscape:pageopacity="0.0"
     inkscape:pagecheckerboard="0"
     inkscape:deskcolor="#d1d1d1"
     showgrid="false"
     inkscape:zoom="0.6593009"
     inkscape:cx="446.68527"
     inkscape:cy="219.17155"
     inkscape:window-width="1920"
     inkscape:window-height="1147"
     inkscape:window-x="-8"
     inkscape:window-y="-8"
     inkscape:window-maximized="1"
     inkscape:current-layer="svg76" /><line
     opacity="0.1"
     stroke="#000000"
     stroke-width="1"
     x1="125"
     y1="339"
     x2="125"
     y2="40"
     id="line1" /><line
     opacity="0.1"
     stroke="#000000"
     stroke-width="1"
     x1="170"
     y1="339"
     x2="170"
     y2="40"
     id="line2" /><line
     opacity="0.1"
     stroke="#000000"
     stroke-width="1"
     x1="215"
     y1="339"
     x2="215"
     y2="40"
     id="line3" /><line
     opacity="0.1"
     stroke="#000000"
     stroke-width="1"
     x1="260"
     y1="339"
     x2="260"
     y2="40"
     id="line4" /><line
     opacity="0.1"
     stroke="#000000"
     stroke-width="1"
     x1="306"
     y1="339"
     x2="306"
     y2="40"
     id="line5" /><line
     opacity="0.1"
     stroke="#000000"
     stroke-width="1"
     x1="351"
     y1="339"
     x2="351"
     y2="40"
     id="line6" /><line
     opacity="0.1"
     stroke="#000000"
     stroke-width="1"
     x1="396"
     y1="339"
     x2="396"
     y2="40"
     id="line7" /><line
     opacity="0.1"
     stroke="#000000"
     stroke-width="1"
     x1="441"
     y1="339"
     x2="441"
     y2="40"
     id="line8" /><line
     opacity="0.1"
     stroke="#000000"
     stroke-width="1"
     x1="487"
     y1="339"
     x2="487"
     y2="40"
     id="line9" /><line
     opacity="0.1"
     stroke="#000000"
     stroke-width="1"
     x1="532"
     y1="339"
     x2="532"
     y2="40"
     id="line10" /><line
     opacity="0.1"
     stroke="#000000"
     stroke-width="1"
     x1="577"
     y1="339"
     x2="577"
     y2="40"
     id="line11" /><line
     opacity="0.1"
     stroke="#000000"
     stroke-width="1"
     x1="622"
     y1="339"
     x2="622"
     y2="40"
     id="line12" /><line
     opacity="0.1"
     stroke="#000000"
     stroke-width="1"
     x1="667"
     y1="339"
     x2="667"
     y2="40"
     id="line13" /><line
     opacity="0.1"
     stroke="#000000"
     stroke-width="1"
     x1="713"
     y1="339"
     x2="713"
     y2="40"
     id="line14" /><line
     opacity="0.1"
     stroke="#000000"
     stroke-width="1"
     x1="758"
     y1="339"
     x2="758"
     y2="40"
     id="line15" /><line
     opacity="0.1"
     stroke="#000000"
     stroke-width="1"
     x1="803"
     y1="339"
     x2="803"
     y2="40"
     id="line16" /><line
     opacity="0.1"
     stroke="#000000"
     stroke-width="1"
     x1="848"
     y1="339"
     x2="848"
     y2="40"
     id="line17" /><line
     opacity="0.1"
     stroke="#000000"
     stroke-width="1"
     x1="894"
     y1="339"
     x2="894"
     y2="40"
     id="line18" /><line
     opacity="0.1"
     stroke="#000000"
     stroke-width="1"
     x1="939"
     y1="339"
     x2="939"
     y2="40"
     id="line19" /><line
     opacity="0.1"
     stroke="#000000"
     stroke-width="1"
     x1="984"
     y1="339"
     x2="984"
     y2="40"
     id="line20" /><line
     opacity="0.1"
     stroke="#000000"
     stroke-width="1"
     x1="1029"
     y1="339"
     x2="1029"
     y2="40"
     id="line21" /><line
     opacity="0.1"
     stroke="#000000"
     stroke-width="1"
     x1="1074"
     y1="339"
     x2="1074"
     y2="40"
     id="line22" /><line
     opacity="0.1"
     stroke="#000000"
     stroke-width="1"
     x1="1120"
     y1="339"
     x2="1120"
     y2="40"
     id="line23" /><line
     opacity="0.1"
     stroke="#000000"
     stroke-width="1"
     x1="1165"
     y1="339"
     x2="1165"
     y2="40"
     id="line24" /><line
     opacity="0.1"
     stroke="#000000"
     stroke-width="1"
     x1="1210"
     y1="339"
     x2="1210"
     y2="40"
     id="line25" /><line
     opacity="0.1"
     stroke="#000000"
     stroke-width="1"
     x1="1255"
     y1="339"
     x2="1255"
     y2="40"
     id="line26" /><line
     opacity="0.1"
     stroke="#000000"
     stroke-width="1"
     x1="1300"
     y1="339"
     x2="1300"
     y2="40"
     id="line27" /><line
     opacity="0.1"
     stroke="#000000"
     stroke-width="1"
     x1="116"
     y1="337"
     x2="1315"
     y2="337"
     id="line28" /><line
     opacity="0.1"
     stroke="#000000"
     stroke-width="1"
     x1="116"
     y1="328"
     x2="1315"
     y2="328"
     id="line29" /><line
     opacity="0.1"
     stroke="#000000"
     stroke-width="1"
     x1="116"
     y1="318"
     x2="1315"
     y2="318"
     id="line30" /><line
     opacity="0.1"
     stroke="#000000"
     stroke-width="1"
     x1="116"
     y1="309"
     x2="1315"
     y2="309"
     id="line31" /><line
     opacity="0.1"
     stroke="#000000"
     stroke-width="1"
     x1="116"
     y1="299"
     x2="1315"
     y2="299"
     id="line32" /><line
     opacity="0.1"
     stroke="#000000"
     stroke-width="1"
     x1="116"
     y1="290"
     x2="1315"
     y2="290"
     id="line33" /><line
     opacity="0.1"
     stroke="#000000"
     stroke-width="1"
     x1="116"
     y1="281"
     x2="1315"
     y2="281"
     id="line34" /><line
     opacity="0.1"
     stroke="#000000"
     stroke-width="1"
     x1="116"
     y1="271"
     x2="1315"
     y2="271"
     id="line35" /><line
     opacity="0.1"
     stroke="#000000"
     stroke-width="1"
     x1="116"
     y1="262"
     x2="1315"
     y2="262"
     id="line36" /><line
     opacity="0.1"
     stroke="#000000"
     stroke-width="1"
     x1="116"
     y1="252"
     x2="1315"
     y2="252"
     id="line37" /><line
     opacity="0.1"
     stroke="#000000"
     stroke-width="1"
     x1="116"
     y1="243"
     x2="1315"
     y2="243"
     id="line38" /><line
     opacity="0.1"
     stroke="#000000"
     stroke-width="1"
     x1="116"
     y1="234"
     x2="1315"
     y2="234"
     id="line39" /><line
     opacity="0.1"
     stroke="#000000"
     stroke-width="1"
     x1="116"
     y1="224"
     x2="1315"
     y2="224"
     id="line40" /><line
     opacity="0.1"
     stroke="#000000"
     stroke-width="1"
     x1="116"
     y1="215"
     x2="1315"
     y2="215"
     id="line41" /><line
     opacity="0.1"
     stroke="#000000"
     stroke-width="1"
     x1="116"
     y1="205"
     x2="1315"
     y2="205"
     id="line42" /><line
     opacity="0.1"
     stroke="#000000"
     stroke-width="1"
     x1="116"
     y1="196"
     x2="1315"
     y2="196"
     id="line43" /><line
     opacity="0.1"
     stroke="#000000"
     stroke-width="1"
     x1="116"
     y1="187"
     x2="1315"
     y2="187"
     id="line44" /><line
     opacity="0.1"
     stroke="#000000"
     stroke-width="1"
     x1="116"
     y1="177"
     x2="1315"
     y2="177"
     id="line45" /><line
     opacity="0.1"
     stroke="#000000"
     stroke-width="1"
     x1="116"
     y1="168"
     x2="1315"
     y2="168"
     id="line46" /><line
     opacity="0.1"
     stroke="#000000"
     stroke-width="1"
     x1="116"
     y1="158"
     x2="1315"
     y2="158"
     id="line47" /><line
     opacity="0.1"
     stroke="#000000"
     stroke-width="1"
     x1="116"
     y1="149"
     x2="1315"
     y2="149"
     id="line48" /><line
     opacity="0.1"
     stroke="#000000"
     stroke-width="1"
     x1="116"
     y1="140"
     x2="1315"
     y2="140"
     id="line49" /><line
     opacity="0.1"
     stroke="#000000"
     stroke-width="1"
     x1="116"
     y1="130"
     x2="1315"
     y2="130"
     id="line50" /><line
     opacity="0.1"
     stroke="#000000"
     stroke-width="1"
     x1="116"
     y1="121"
     x2="1315"
     y2="121"
     id="line51" /><line
     opacity="0.1"
     stroke="#000000"
     stroke-width="1"
     x1="116"
     y1="111"
     x2="1315"
     y2="111"
     id="line52" /><line
     opacity="0.1"
     stroke="#000000"
     stroke-width="1"
     x1="116"
     y1="102"
     x2="1315"
     y2="102"
     id="line53" /><line
     opacity="0.1"
     stroke="#000000"
     stroke-width="1"
     x1="116"
     y1="93"
     x2="1315"
     y2="93"
     id="line54" /><line
     opacity="0.1"
     stroke="#000000"
     stroke-width="1"
     x1="116"
     y1="83"
     x2="1315"
     y2="83"
     id="line55" /><line
     opacity="0.1"
     stroke="#000000"
     stroke-width="1"
     x1="116"
     y1="74"
     x2="1315"
     y2="74"
     id="line56" /><line
     opacity="0.1"
     stroke="#000000"
     stroke-width="1"
     x1="116"
     y1="64"
     x2="1315"
     y2="64"
     id="line57" /><line
     opacity="0.1"
     stroke="#000000"
     stroke-width="1"
     x1="116"
     y1="55"
     x2="1315"
     y2="55"
     id="line58" /><path
     d="m -117.49456,201.62991 q 0,1.60661 -0.46072,2.9415 -0.46072,1.32309 -1.29946,2.24452 -0.77967,0.87418 -1.84287,1.35853 -1.05138,0.47253 -2.2327,0.47253 -1.02776,0 -1.8665,-0.22445 -0.82693,-0.22446 -1.68929,-0.69699 v 5.52861 h -2.2209 v -18.06247 h 2.2209 v 1.38215 q 0.88599,-0.74423 1.98462,-1.24039 1.11045,-0.50797 2.36265,-0.50797 2.38628,0 3.70937,1.80743 1.3349,1.79561 1.3349,4.997 z m -2.29178,0.0591 q 0,-2.38628 -0.81511,-3.5676 -0.81512,-1.18133 -2.50441,-1.18133 -0.95688,0 -1.92556,0.41347 -0.96869,0.41346 -1.85468,1.08681 v 7.4778 q 0.94506,0.42527 1.61841,0.57885 0.68517,0.15357 1.54754,0.15357 1.85468,0 2.89425,-1.25221 1.03956,-1.2522 1.03956,-3.70936 z m 16.99928,0.10632 q 0,3.22502 -1.65386,5.09151 -1.65385,1.8665 -4.42997,1.8665 -2.79974,0 -4.4536,-1.8665 -1.64204,-1.86649 -1.64204,-5.09151 0,-3.22502 1.64204,-5.09151 1.65386,-1.87831 4.4536,-1.87831 2.77612,0 4.42997,1.87831 1.65386,1.86649 1.65386,5.09151 z m -2.29177,0 q 0,-2.56348 -1.00413,-3.80387 -1.00413,-1.2522 -2.78793,-1.2522 -1.80743,0 -2.81155,1.2522 -0.99232,1.24039 -0.99232,3.80387 0,2.48078 1.00413,3.76843 1.00413,1.27583 2.79974,1.27583 1.77199,0 2.77612,-1.26402 1.01594,-1.27583 1.01594,-3.78024 z m 15.156404,2.78793 q 0,1.80743 -1.500284,2.96513 -1.48847,1.15769 -4.075573,1.15769 -1.464844,0 -2.693422,-0.34258 -1.216766,-0.3544 -2.043695,-0.76786 v -2.4926 h 0.11813 q 1.051384,0.79149 2.339029,1.26402 1.287645,0.46072 2.46897,0.46072 1.464844,0 2.291772,-0.47253 0.826928,-0.47253 0.826928,-1.48847 0,-0.77968 -0.448904,-1.18133 -0.448904,-0.40165 -1.724735,-0.68517 -0.472531,-0.10632 -1.240392,-0.24808 -0.756049,-0.14176 -1.382151,-0.30714 -1.736549,-0.46072 -2.468971,-1.34671 -0.720606,-0.89781 -0.720606,-2.19727 0,-0.81511 0.330769,-1.53572 0.342584,-0.72061 1.027753,-1.28765 0.661543,-0.55522 1.677483,-0.87418 1.027753,-0.33077 2.291771,-0.33077 1.181326,0 2.386278,0.29533 1.216765,0.28352 2.020067,0.69699 v 2.37446 h -0.118133 q -0.850554,-0.6261 -2.06732,-1.05138 -1.216765,-0.43709 -2.386277,-0.43709 -1.216766,0 -2.055507,0.47253 -0.838741,0.46072 -0.838741,1.38215 0,0.81512 0.50797,1.22858 0.496157,0.41346 1.606603,0.67335 0.614289,0.14176 1.370337,0.28352 0.767862,0.14176 1.275832,0.25989 1.547537,0.3544 2.386278,1.21677 0.838741,0.87418 0.838741,2.3154 z m 5.564043,-11.60062 h -2.50441 v -2.30358 h 2.50441 z m -0.141759,15.40449 h -2.220892 v -13.19541 h 2.220892 z m 11.24622,-0.11814 q -0.626103,0.16539 -1.370338,0.27171 -0.732422,0.10632 -1.311271,0.10632 -2.020067,0 -3.071447,-1.08682 -1.05138,-1.08682 -1.05138,-3.48491 v -7.01708 h -1.500283 v -1.86649 h 1.500283 v -3.79206 h 2.220892 v 3.79206 h 4.583544 v 1.86649 h -4.583544 v 6.01295 q 0,1.03957 0.04725,1.63023 0.04725,0.57885 0.330772,1.08682 0.259891,0.47253 0.708795,0.69698 0.460717,0.21264 1.393964,0.21264 0.54341,0 1.134073,-0.15357 0.590662,-0.16539 0.850554,-0.27171 h 0.118133 z m 5.067887,-15.28635 h -2.50441 v -2.30358 h 2.50441 z m -0.141759,15.40449 h -2.220892 v -13.19541 h 2.220892 z m 15.640755,-6.5918 q 0,3.22502 -1.653856,5.09151 -1.653856,1.8665 -4.429971,1.8665 -2.799742,0 -4.453598,-1.8665 -1.642042,-1.86649 -1.642042,-5.09151 0,-3.22502 1.642042,-5.09151 1.653856,-1.87831 4.453598,-1.87831 2.776115,0 4.429971,1.87831 1.653856,1.86649 1.653856,5.09151 z m -2.291772,0 q 0,-2.56348 -1.004127,-3.80387 -1.004126,-1.2522 -2.787928,-1.2522 -1.807428,0 -2.811555,1.2522 -0.992314,1.24039 -0.992314,3.80387 0,2.48078 1.004127,3.76843 1.004127,1.27583 2.799742,1.27583 1.771988,0 2.776115,-1.26402 1.01594,-1.27583 1.01594,-3.78024 z m 16.763009,6.5918 h -2.220892 v -7.51323 q 0,-0.90963 -0.106319,-1.70111 -0.10632,-0.8033 -0.389838,-1.25221 -0.295331,-0.49616 -0.850554,-0.73242 -0.555223,-0.24808 -1.441217,-0.24808 -0.909621,0 -1.901935,0.44891 -0.992313,0.4489 -1.901934,1.14588 v 9.85226 h -2.220892 v -13.19541 h 2.220892 v 1.46484 q 1.039567,-0.86236 2.150013,-1.34671 1.110446,-0.48434 2.279958,-0.48434 2.1382,0 3.260459,1.28764 1.122259,1.28765 1.122259,3.70937 z m 15.168218,-15.40449 h -2.50441 v -2.30358 h 2.50441 z m -0.141759,15.40449 h -2.220892 v -13.19541 h 2.220892 z m 15.4281157,0 h -2.2208921 v -7.51323 q 0,-0.90963 -0.1063196,-1.70111 -0.106319,-0.8033 -0.389837,-1.25221 -0.295332,-0.49616 -0.850555,-0.73242 -0.555223,-0.24808 -1.441217,-0.24808 -0.909621,0 -1.901934,0.44891 -0.992314,0.4489 -1.901934,1.14588 v 9.85226 h -2.220892 v -13.19541 h 2.220892 v 1.46484 q 1.039566,-0.86236 2.150012,-1.34671 1.110446,-0.48434 2.279959,-0.48434 2.138199,0 3.2604584,1.28764 1.1222593,1.28765 1.1222593,3.70937 z m 32.0375393,0 H 22.05542 v -7.51323 q 0,-0.85056 -0.08269,-1.64205 -0.07088,-0.79149 -0.318958,-1.26402 -0.271705,-0.50797 -0.779675,-0.76786 -0.50797,-0.25989 -1.464844,-0.25989 -0.933247,0 -1.866494,0.47253 -0.933248,0.46072 -1.866495,1.18133 0.03544,0.2717 0.05907,0.63791 0.02363,0.3544 0.02363,0.7088 v 8.44648 h -2.220892 v -7.51323 q 0,-0.87419 -0.08269,-1.65386 -0.07088,-0.79149 -0.318958,-1.26402 -0.271705,-0.50797 -0.779675,-0.75605 -0.50797,-0.25989 -1.464844,-0.25989 -0.9096202,0 -1.8310542,0.44891 -0.9096207,0.4489 -1.8192414,1.14588 v 9.85226 H 5.0207053 v -13.19541 h 2.2208921 v 1.46484 q 1.0395665,-0.86236 2.0673198,-1.34671 1.0395668,-0.48434 2.2090788,-0.48434 1.346711,0 2.279958,0.56703 0.945061,0.56704 1.405778,1.57117 1.346711,-1.13407 2.457157,-1.63023 1.110446,-0.50797 2.374465,-0.50797 2.173639,0 3.201392,1.32308 1.039566,1.31127 1.039566,3.67393 z m 23.532013,0 h -2.220892 v -7.51323 q 0,-0.85056 -0.08269,-1.64205 -0.07088,-0.79149 -0.318958,-1.26402 -0.271705,-0.50797 -0.779675,-0.76786 -0.50797,-0.25989 -1.464844,-0.25989 -0.933247,0 -1.866494,0.47253 -0.933248,0.46072 -1.866495,1.18133 0.03544,0.2717 0.05907,0.63791 0.02363,0.3544 0.02363,0.7088 v 8.44648 h -2.220892 v -7.51323 q 0,-0.87419 -0.08269,-1.65386 -0.07088,-0.79149 -0.318958,-1.26402 -0.271705,-0.50797 -0.779675,-0.75605 -0.50797,-0.25989 -1.464844,-0.25989 -0.90962,0 -1.831054,0.44891 -0.909621,0.4489 -1.819242,1.14588 v 9.85226 h -2.220892 v -13.19541 h 2.220892 v 1.46484 q 1.039567,-0.86236 2.06732,-1.34671 1.039567,-0.48434 2.209079,-0.48434 1.346711,0 2.279958,0.56703 0.945061,0.56704 1.405778,1.57117 1.346711,-1.13407 2.457157,-1.63023 1.110446,-0.50797 2.374465,-0.50797 2.173639,0 3.201392,1.32308 1.039566,1.31127 1.039566,3.67393 z m 19.846272,4.86706 h -2.705235 q -2.090947,-2.39809 -3.248646,-5.23327 -1.157699,-2.83519 -1.157699,-6.39098 0,-3.55579 1.157699,-6.39097 1.157699,-2.83518 3.248646,-5.23327 h 2.705235 v 0.11813 q -0.956874,0.86237 -1.831055,1.99644 -0.862367,1.12226 -1.606602,2.62255 -0.708796,1.45303 -1.157699,3.20139 -0.437091,1.74836 -0.437091,3.68573 0,2.02007 0.425277,3.69755 0.437091,1.67749 1.169513,3.18958 0.708795,1.45303 1.618416,2.62255 0.90962,1.18132 1.819241,1.99644 z m 15.333606,-18.06247 -7.702242,18.06247 h -2.374465 l 2.457157,-5.50498 -5.256899,-12.55749 h 2.409905 l 4.051946,9.78138 4.087387,-9.78138 z m 21.665517,13.19541 h -2.20908 v -1.40578 q -0.29533,0.20082 -0.8033,0.56704 -0.49616,0.35439 -0.96869,0.56703 -0.55522,0.27171 -1.275833,0.44891 -0.720608,0.18901 -1.689295,0.18901 -1.783802,0 -3.024194,-1.18133 -1.240392,-1.18132 -1.240392,-3.01238 0,-1.50028 0.637916,-2.42172 0.649729,-0.93324 1.842868,-1.46484 1.204952,-0.5316 2.894248,-0.72061 1.689292,-0.18901 3.626672,-0.28352 v -0.34258 q 0,-0.75605 -0.27171,-1.25221 -0.25989,-0.49615 -0.75605,-0.77967 -0.47253,-0.27171 -1.13407,-0.36621 -0.661541,-0.0945 -1.38215,-0.0945 -0.874181,0 -1.949187,0.23627 -1.075006,0.22445 -2.220892,0.66154 h -0.118133 v -2.25633 q 0.64973,-0.1772 1.878308,-0.38984 1.228579,-0.21264 2.421718,-0.21264 1.393966,0 2.421716,0.23627 1.03957,0.22445 1.79562,0.77967 0.74423,0.54341 1.13407,1.40578 0.38984,0.86237 0.38984,2.1382 z m -2.20908,-3.24865 v -3.67392 q -1.01594,0.0591 -2.39809,0.1772 -1.370341,0.11813 -2.173643,0.34258 -0.956874,0.27171 -1.547536,0.85056 -0.590663,0.56703 -0.590663,1.57116 0,1.13407 0.685169,1.71292 0.685168,0.56704 2.090946,0.56704 1.169512,0 2.138197,-0.44891 0.96869,-0.46071 1.79562,-1.09863 z m 17.90889,3.24865 h -2.79974 l -3.7448,-5.06789 -3.76843,5.06789 h -2.5871 l 5.15058,-6.57999 -5.10333,-6.61542 h 2.79974 l 3.72118,4.98519 3.73299,-4.98519 h 2.59891 l -5.18602,6.49729 z m 5.28052,-15.40449 h -2.50441 v -2.30358 h 2.50441 z m -0.14176,15.40449 h -2.22089 v -13.19541 h 2.22089 z m 13.82153,-3.80387 q 0,1.80743 -1.50029,2.96513 -1.48847,1.15769 -4.07557,1.15769 -1.46484,0 -2.69342,-0.34258 -1.21677,-0.3544 -2.04369,-0.76786 v -2.4926 h 0.11813 q 1.05138,0.79149 2.33902,1.26402 1.28765,0.46072 2.46897,0.46072 1.46485,0 2.29178,-0.47253 0.82692,-0.47253 0.82692,-1.48847 0,-0.77968 -0.4489,-1.18133 -0.4489,-0.40165 -1.72474,-0.68517 -0.47253,-0.10632 -1.24039,-0.24808 -0.75605,-0.14176 -1.38215,-0.30714 -1.73655,-0.46072 -2.46897,-1.34671 -0.72061,-0.89781 -0.72061,-2.19727 0,-0.81511 0.33077,-1.53572 0.34259,-0.72061 1.02776,-1.28765 0.66154,-0.55522 1.67748,-0.87418 1.02775,-0.33077 2.29177,-0.33077 1.18133,0 2.38628,0.29533 1.21676,0.28352 2.02006,0.69699 v 2.37446 h -0.11813 q -0.85055,-0.6261 -2.06732,-1.05138 -1.21676,-0.43709 -2.38628,-0.43709 -1.21676,0 -2.0555,0.47253 -0.83874,0.46072 -0.83874,1.38215 0,0.81512 0.50797,1.22858 0.49615,0.41346 1.6066,0.67335 0.61429,0.14176 1.37034,0.28352 0.76786,0.14176 1.27583,0.25989 1.54754,0.3544 2.38628,1.21677 0.83874,0.87418 0.83874,2.3154 z m 9.84043,-2.95332 q 0,3.55579 -1.1577,6.39098 -1.1577,2.83518 -3.24864,5.23327 h -2.70524 v -0.11813 q 0.90962,-0.81512 1.81924,-1.99644 0.92144,-1.16952 1.61842,-2.62255 0.73242,-1.51209 1.1577,-3.18958 0.43709,-1.67748 0.43709,-3.69755 0,-1.93737 -0.43709,-3.68573 -0.43709,-1.74836 -1.1577,-3.20139 -0.74424,-1.50029 -1.61842,-2.62255 -0.86236,-1.13407 -1.81924,-1.99644 v -0.11813 h 2.70524 q 2.09094,2.39809 3.24864,5.23327 1.1577,2.83518 1.1577,6.39097 z"
     id="text58"
     style="font-size:24.1935px;text-anchor:middle"
     transform="rotate(270, 10, 190)"
     aria-label="position in mm (y axis)" /><path
     d="m 589.30874,392.19443 q 0,1.6066 -0.46072,2.9415 -0.46072,1.32309 -1.29946,2.24452 -0.77967,0.87418 -1.84287,1.35852 -1.05138,0.47253 -2.2327,0.47253 -1.02776,0 -1.8665,-0.22445 -0.82692,-0.22445 -1.68929,-0.69698 v 5.5286 h -2.22089 v -18.06246 h 2.22089 v 1.38215 q 0.88599,-0.74424 1.98462,-1.24039 1.11045,-0.50797 2.36266,-0.50797 2.38627,0 3.70936,1.80742 1.3349,1.79562 1.3349,4.99701 z m -2.29178,0.0591 q 0,-2.38628 -0.81511,-3.56761 -0.81511,-1.18132 -2.50441,-1.18132 -0.95687,0 -1.92556,0.41346 -0.96869,0.41347 -1.85468,1.08682 v 7.47779 q 0.94506,0.42528 1.61841,0.57885 0.68517,0.15357 1.54754,0.15357 1.85468,0 2.89425,-1.2522 1.03956,-1.25221 1.03956,-3.70936 z m 16.99928,0.10632 q 0,3.22502 -1.65386,5.09151 -1.65385,1.86649 -4.42997,1.86649 -2.79974,0 -4.45359,-1.86649 -1.64205,-1.86649 -1.64205,-5.09151 0,-3.22502 1.64205,-5.09152 1.65385,-1.8783 4.45359,-1.8783 2.77612,0 4.42997,1.8783 1.65386,1.8665 1.65386,5.09152 z m -2.29177,0 q 0,-2.56348 -1.00413,-3.80387 -1.00413,-1.25221 -2.78793,-1.25221 -1.80743,0 -2.81155,1.25221 -0.99232,1.24039 -0.99232,3.80387 0,2.48078 1.00413,3.76842 1.00413,1.27584 2.79974,1.27584 1.77199,0 2.77612,-1.26402 1.01594,-1.27583 1.01594,-3.78024 z m 15.15641,2.78792 q 0,1.80743 -1.50029,2.96513 -1.48847,1.1577 -4.07557,1.1577 -1.46485,0 -2.69342,-0.34258 -1.21677,-0.3544 -2.0437,-0.76787 v -2.49259 h 0.11814 q 1.05138,0.79149 2.33902,1.26402 1.28765,0.46071 2.46897,0.46071 1.46484,0 2.29177,-0.47253 0.82693,-0.47253 0.82693,-1.48847 0,-0.77967 -0.4489,-1.18132 -0.44891,-0.40165 -1.72474,-0.68517 -0.47253,-0.10632 -1.24039,-0.24808 -0.75605,-0.14176 -1.38215,-0.30714 -1.73655,-0.46072 -2.46897,-1.34672 -0.72061,-0.8978 -0.72061,-2.19726 0,-0.81512 0.33077,-1.53572 0.34258,-0.72061 1.02775,-1.28765 0.66155,-0.55522 1.67749,-0.87418 1.02775,-0.33077 2.29177,-0.33077 1.18132,0 2.38628,0.29533 1.21676,0.28352 2.02006,0.69698 v 2.37447 h -0.11813 q -0.85055,-0.62611 -2.06732,-1.05138 -1.21677,-0.43709 -2.38628,-0.43709 -1.21676,0 -2.0555,0.47253 -0.83875,0.46071 -0.83875,1.38215 0,0.81511 0.50797,1.22858 0.49616,0.41346 1.60661,0.67335 0.61429,0.14176 1.37033,0.28352 0.76787,0.14176 1.27584,0.25989 1.54753,0.3544 2.38627,1.21677 0.83875,0.87418 0.83875,2.31539 z m 5.56404,-11.60061 h -2.50441 v -2.30359 h 2.50441 z m -0.14176,15.40448 h -2.22089 v -13.1954 h 2.22089 z m 11.24622,-0.11813 q -0.6261,0.16539 -1.37034,0.27171 -0.73242,0.10631 -1.31127,0.10631 -2.02007,0 -3.07145,-1.08681 -1.05138,-1.08682 -1.05138,-3.48492 v -7.01707 h -1.50028 v -1.86649 h 1.50028 v -3.79206 h 2.2209 v 3.79206 h 4.58354 v 1.86649 h -4.58354 v 6.01295 q 0,1.03956 0.0473,1.63023 0.0472,0.57885 0.33077,1.08682 0.25989,0.47253 0.7088,0.69698 0.46071,0.21264 1.39396,0.21264 0.54341,0 1.13407,-0.15357 0.59066,-0.16539 0.85056,-0.27171 h 0.11813 z m 5.06789,-15.28635 h -2.50441 v -2.30359 h 2.50441 z m -0.14176,15.40448 h -2.22089 v -13.1954 h 2.22089 z m 15.64075,-6.59179 q 0,3.22502 -1.65385,5.09151 -1.65386,1.86649 -4.42997,1.86649 -2.79975,0 -4.4536,-1.86649 -1.64204,-1.86649 -1.64204,-5.09151 0,-3.22502 1.64204,-5.09152 1.65385,-1.8783 4.4536,-1.8783 2.77611,0 4.42997,1.8783 1.65385,1.8665 1.65385,5.09152 z m -2.29177,0 q 0,-2.56348 -1.00413,-3.80387 -1.00412,-1.25221 -2.78792,-1.25221 -1.80743,0 -2.81156,1.25221 -0.99231,1.24039 -0.99231,3.80387 0,2.48078 1.00412,3.76842 1.00413,1.27584 2.79975,1.27584 1.77198,0 2.77611,-1.26402 1.01594,-1.27583 1.01594,-3.78024 z m 16.76301,6.59179 h -2.22089 v -7.51323 q 0,-0.90962 -0.10632,-1.70111 -0.10632,-0.8033 -0.38984,-1.2522 -0.29533,-0.49616 -0.85055,-0.73242 -0.55523,-0.24808 -1.44122,-0.24808 -0.90962,0 -1.90194,0.4489 -0.99231,0.44891 -1.90193,1.14589 v 9.85225 h -2.22089 v -13.1954 h 2.22089 v 1.46484 q 1.03957,-0.86237 2.15001,-1.34671 1.11045,-0.48434 2.27996,-0.48434 2.1382,0 3.26046,1.28764 1.12226,1.28764 1.12226,3.70936 z m 15.16822,-15.40448 h -2.50441 v -2.30359 h 2.50441 z m -0.14176,15.40448 h -2.22089 v -13.1954 h 2.22089 z m 15.42811,0 h -2.22089 v -7.51323 q 0,-0.90962 -0.10632,-1.70111 -0.10632,-0.8033 -0.38983,-1.2522 -0.29534,-0.49616 -0.85056,-0.73242 -0.55522,-0.24808 -1.44122,-0.24808 -0.90962,0 -1.90193,0.4489 -0.99231,0.44891 -1.90193,1.14589 v 9.85225 h -2.2209 v -13.1954 h 2.2209 v 1.46484 q 1.03956,-0.86237 2.15001,-1.34671 1.11044,-0.48434 2.27996,-0.48434 2.1382,0 3.26045,1.28764 1.12226,1.28764 1.12226,3.70936 z m 32.03754,0 h -2.22089 v -7.51323 q 0,-0.85055 -0.0827,-1.64204 -0.0709,-0.79149 -0.31896,-1.26402 -0.2717,-0.50797 -0.77967,-0.76786 -0.50797,-0.25989 -1.46485,-0.25989 -0.93324,0 -1.86649,0.47253 -0.93325,0.46072 -1.8665,1.18132 0.0354,0.27171 0.0591,0.63792 0.0236,0.3544 0.0236,0.70879 v 8.44648 h -2.2209 v -7.51323 q 0,-0.87418 -0.0827,-1.65385 -0.0709,-0.79149 -0.31896,-1.26402 -0.2717,-0.50797 -0.77967,-0.75605 -0.50797,-0.25989 -1.46485,-0.25989 -0.90962,0 -1.83105,0.4489 -0.90962,0.44891 -1.81924,1.14589 v 9.85225 h -2.22089 v -13.1954 h 2.22089 v 1.46484 q 1.03957,-0.86237 2.06732,-1.34671 1.03957,-0.48434 2.20908,-0.48434 1.34671,0 2.27996,0.56703 0.94506,0.56704 1.40577,1.57116 1.34671,-1.13407 2.45716,-1.63022 1.11045,-0.50797 2.37446,-0.50797 2.17364,0 3.2014,1.32308 1.03956,1.31127 1.03956,3.67392 z m 23.53202,0 h -2.2209 v -7.51323 q 0,-0.85055 -0.0827,-1.64204 -0.0709,-0.79149 -0.31896,-1.26402 -0.2717,-0.50797 -0.77967,-0.76786 -0.50797,-0.25989 -1.46484,-0.25989 -0.93325,0 -1.8665,0.47253 -0.93325,0.46072 -1.86649,1.18132 0.0354,0.27171 0.0591,0.63792 0.0236,0.3544 0.0236,0.70879 v 8.44648 h -2.22089 v -7.51323 q 0,-0.87418 -0.0827,-1.65385 -0.0709,-0.79149 -0.31895,-1.26402 -0.27171,-0.50797 -0.77968,-0.75605 -0.50797,-0.25989 -1.46484,-0.25989 -0.90962,0 -1.83106,0.4489 -0.90962,0.44891 -1.81924,1.14589 v 9.85225 h -2.22089 v -13.1954 h 2.22089 v 1.46484 q 1.03957,-0.86237 2.06732,-1.34671 1.03957,-0.48434 2.20908,-0.48434 1.34671,0 2.27996,0.56703 0.94506,0.56704 1.40578,1.57116 1.34671,-1.13407 2.45715,-1.63022 1.11045,-0.50797 2.37447,-0.50797 2.17364,0 3.20139,1.32308 1.03957,1.31127 1.03957,3.67392 z m 19.84627,4.86706 h -2.70524 q -2.09094,-2.39809 -3.24864,-5.23327 -1.1577,-2.83518 -1.1577,-6.39097 0,-3.55579 1.1577,-6.39097 1.1577,-2.83518 3.24864,-5.23327 h 2.70524 v 0.11813 q -0.95688,0.86237 -1.83106,1.99644 -0.86236,1.12226 -1.6066,2.62254 -0.70879,1.45303 -1.1577,3.20139 -0.43709,1.74837 -0.43709,3.68574 0,2.02007 0.42528,3.69755 0.43709,1.67748 1.16951,3.18958 0.7088,1.45303 1.61842,2.62254 0.90962,1.18133 1.81924,1.99644 z m 13.49074,-4.86706 h -10.65556 v -1.64204 l 7.69043,-9.69868 h -7.52504 v -1.85468 h 10.28934 v 1.58297 l -7.72587,9.73413 h 7.9267 z m 21.90176,0 h -2.20907 v -1.40577 q -0.29534,0.20082 -0.80331,0.56703 -0.49615,0.3544 -0.96868,0.56704 -0.55523,0.2717 -1.27583,0.4489 -0.72061,0.18901 -1.6893,0.18901 -1.7838,0 -3.02419,-1.18132 -1.2404,-1.18133 -1.2404,-3.01238 0,-1.50029 0.63792,-2.42172 0.64973,-0.93325 1.84287,-1.46484 1.20495,-0.5316 2.89425,-0.72061 1.68929,-0.18901 3.62667,-0.28352 v -0.34258 q 0,-0.75605 -0.27171,-1.25221 -0.25989,-0.49616 -0.75605,-0.77967 -0.47253,-0.27171 -1.13407,-0.36622 -0.66154,-0.0945 -1.38215,-0.0945 -0.87418,0 -1.94919,0.23626 -1.075,0.22446 -2.22089,0.66155 h -0.11813 v -2.25634 q 0.64973,-0.17719 1.8783,-0.38983 1.22858,-0.21264 2.42172,-0.21264 1.39397,0 2.42172,0.23626 1.03957,0.22446 1.79561,0.77968 0.74424,0.54341 1.13408,1.40578 0.38983,0.86236 0.38983,2.13819 z m -2.20907,-3.24864 v -3.67393 q -1.01594,0.0591 -2.3981,0.1772 -1.37033,0.11814 -2.17363,0.34259 -0.95688,0.2717 -1.54754,0.85055 -0.59066,0.56704 -0.59066,1.57117 0,1.13407 0.68516,1.71292 0.68517,0.56703 2.09095,0.56703 1.16951,0 2.1382,-0.4489 0.96869,-0.46072 1.79562,-1.09863 z m 17.90891,3.24864 h -2.79975 l -3.7448,-5.06788 -3.76843,5.06788 h -2.5871 l 5.15058,-6.57998 -5.10333,-6.61542 h 2.79975 l 3.72117,4.98519 3.73299,-4.98519 h 2.59892 l -5.18602,6.49729 z m 5.28051,-15.40448 h -2.50441 v -2.30359 h 2.50441 z m -0.14176,15.40448 h -2.22089 v -13.1954 h 2.22089 z m 13.8215,-3.80387 q 0,1.80743 -1.50028,2.96513 -1.48847,1.1577 -4.07558,1.1577 -1.46484,0 -2.69342,-0.34258 -1.21676,-0.3544 -2.04369,-0.76787 v -2.49259 h 0.11813 q 1.05138,0.79149 2.33903,1.26402 1.28764,0.46071 2.46897,0.46071 1.46484,0 2.29177,-0.47253 0.82693,-0.47253 0.82693,-1.48847 0,-0.77967 -0.44891,-1.18132 -0.4489,-0.40165 -1.72473,-0.68517 -0.47253,-0.10632 -1.24039,-0.24808 -0.75605,-0.14176 -1.38216,-0.30714 -1.73654,-0.46072 -2.46897,-1.34672 -0.72061,-0.8978 -0.72061,-2.19726 0,-0.81512 0.33078,-1.53572 0.34258,-0.72061 1.02775,-1.28765 0.66154,-0.55522 1.67748,-0.87418 1.02776,-0.33077 2.29177,-0.33077 1.18133,0 2.38628,0.29533 1.21677,0.28352 2.02007,0.69698 v 2.37447 h -0.11813 q -0.85056,-0.62611 -2.06732,-1.05138 -1.21677,-0.43709 -2.38628,-0.43709 -1.21677,0 -2.05551,0.47253 -0.83874,0.46071 -0.83874,1.38215 0,0.81511 0.50797,1.22858 0.49616,0.41346 1.6066,0.67335 0.61429,0.14176 1.37034,0.28352 0.76786,0.14176 1.27583,0.25989 1.54754,0.3544 2.38628,1.21677 0.83874,0.87418 0.83874,2.31539 z m 9.84047,-2.95331 q 0,3.55579 -1.1577,6.39097 -1.1577,2.83518 -3.24865,5.23327 h -2.70523 v -0.11813 q 0.90962,-0.81511 1.81924,-1.99644 0.92143,-1.16951 1.61841,-2.62254 0.73243,-1.5121 1.1577,-3.18958 0.43709,-1.67748 0.43709,-3.69755 0,-1.93737 -0.43709,-3.68574 -0.43709,-1.74836 -1.1577,-3.20139 -0.74423,-1.50028 -1.61841,-2.62254 -0.86237,-1.13407 -1.81924,-1.99644 v -0.11813 h 2.70523 q 2.09095,2.39809 3.24865,5.23327 1.1577,2.83518 1.1577,6.39097 z"
     id="text59"
     style="font-size:24.1935px;text-anchor:middle"
     aria-label="position in mm (z axis)" /><line
     opacity="0.2"
     stroke="#000000"
     stroke-width="1"
     x1="170"
     y1="339"
     x2="170"
     y2="40"
     id="line59" /><line
     opacity="0.2"
     stroke="#000000"
     stroke-width="1"
     x1="622"
     y1="339"
     x2="622"
     y2="40"
     id="line60" /><line
     opacity="0.2"
     stroke="#000000"
     stroke-width="1"
     x1="1074"
     y1="339"
     x2="1074"
     y2="40"
     id="line61" /><line
     opacity="0.2"
     stroke="#000000"
     stroke-width="1"
     x1="116"
     y1="299"
     x2="1315"
     y2="299"
     id="line62" /><line
     opacity="0.2"
     stroke="#000000"
     stroke-width="1"
     x1="116"
     y1="205"
     x2="1315"
     y2="205"
     id="line63" /><line
     opacity="0.2"
     stroke="#000000"
     stroke-width="1"
     x1="116"
     y1="111"
     x2="1315"
     y2="111"
     id="line64" /><polyline
     fill="none"
     opacity="1"
     stroke="#000000"
     stroke-width="1"
     points="115,40 115,339 "
     id="polyline64" /><path
     d="m 49.249118,298.42115 h -7.371471 v -2.1382 h 7.371471 z m 15.617125,6.62724 H 52.958481 v -2.46897 q 1.240392,-1.0632 2.480784,-2.12639 1.252205,-1.06319 2.327211,-2.11457 2.268145,-2.19727 3.106886,-3.48491 0.838741,-1.29946 0.838741,-2.79974 0,-1.37034 -0.90962,-2.1382 -0.897808,-0.77968 -2.516224,-0.77968 -1.075006,0 -2.327211,0.37803 -1.252205,0.37802 -2.445344,1.15769 h -0.118133 v -2.48078 q 0.838741,-0.41346 2.232706,-0.75605 1.405777,-0.34258 2.717049,-0.34258 2.705235,0 4.240958,1.31127 1.535724,1.29946 1.535724,3.53216 0,1.00413 -0.259892,1.87831 -0.248078,0.86237 -0.744235,1.64204 -0.460717,0.73243 -1.08682,1.44122 -0.614289,0.7088 -1.500283,1.57116 -1.264018,1.2404 -2.61073,2.40991 -1.346711,1.1577 -2.516223,2.15001 h 9.462418 z m 7.383285,0 H 69.42616 v -3.36678 h 2.823368 z m 16.774824,-8.80088 q 0,4.73712 -1.48847,6.95801 -1.476657,2.20908 -4.595357,2.20908 -3.165952,0 -4.630796,-2.24452 -1.45303,-2.24452 -1.45303,-6.89894 0,-4.68986 1.476657,-6.92257 1.476657,-2.24452 4.607169,-2.24452 3.165953,0 4.618984,2.27996 1.464843,2.26814 1.464843,6.8635 z m -3.106886,5.36322 q 0.413464,-0.95687 0.555223,-2.24452 0.153572,-1.29946 0.153572,-3.1187 0,-1.79561 -0.153572,-3.1187 -0.141759,-1.32308 -0.567036,-2.24452 -0.413464,-0.90962 -1.134073,-1.37033 -0.708795,-0.46072 -1.831055,-0.46072 -1.110446,0 -1.842867,0.46072 -0.720609,0.46071 -1.145886,1.39396 -0.401651,0.87418 -0.555223,2.27996 -0.141759,1.40578 -0.141759,3.08326 0,1.84287 0.129945,3.08326 0.129946,1.24039 0.555223,2.22089 0.389838,0.92143 1.098633,1.40578 0.720609,0.48434 1.901934,0.48434 1.110447,0 1.842868,-0.46072 0.732422,-0.46071 1.134073,-1.39396 z m 18.487744,-5.36322 q 0,4.73712 -1.48847,6.95801 -1.47666,2.20908 -4.595355,2.20908 -3.165953,0 -4.630796,-2.24452 -1.453031,-2.24452 -1.453031,-6.89894 0,-4.68986 1.476657,-6.92257 1.476657,-2.24452 4.60717,-2.24452 3.165955,0 4.618985,2.27996 1.46484,2.26814 1.46484,6.8635 z m -3.10688,5.36322 q 0.41346,-0.95687 0.55522,-2.24452 0.15357,-1.29946 0.15357,-3.1187 0,-1.79561 -0.15357,-3.1187 -0.14176,-1.32308 -0.56704,-2.24452 -0.41346,-0.90962 -1.13407,-1.37033 -0.708796,-0.46072 -1.831055,-0.46072 -1.110446,0 -1.842868,0.46072 -0.720609,0.46071 -1.145886,1.39396 -0.401651,0.87418 -0.555223,2.27996 -0.141759,1.40578 -0.141759,3.08326 0,1.84287 0.129946,3.08326 0.129946,1.24039 0.555223,2.22089 0.389837,0.92143 1.098633,1.40578 0.720608,0.48434 1.901934,0.48434 1.110446,0 1.842865,-0.46072 0.73242,-0.46071 1.13408,-1.39396 z"
     id="text64"
     style="font-size:24.1935px;text-anchor:end"
     aria-label="-2.00" /><polyline
     fill="none"
     opacity="1"
     stroke="#000000"
     stroke-width="1"
     points="110,299 115,299 "
     id="polyline65" /><path
     d="m 64.842616,202.24751 q 0,4.73712 -1.48847,6.95801 -1.476657,2.20908 -4.595357,2.20908 -3.165952,0 -4.630796,-2.24452 -1.45303,-2.24452 -1.45303,-6.89894 0,-4.68986 1.476657,-6.92257 1.476657,-2.24452 4.607169,-2.24452 3.165953,0 4.618984,2.27996 1.464843,2.26814 1.464843,6.8635 z m -3.106886,5.36322 q 0.413464,-0.95687 0.555223,-2.24452 0.153572,-1.29946 0.153572,-3.1187 0,-1.79561 -0.153572,-3.1187 -0.141759,-1.32308 -0.567036,-2.24452 -0.413464,-0.90962 -1.134073,-1.37033 -0.708795,-0.46072 -1.831055,-0.46072 -1.110446,0 -1.842868,0.46072 -0.720608,0.46071 -1.145885,1.39396 -0.401651,0.87418 -0.555223,2.27996 -0.141759,1.40578 -0.141759,3.08326 0,1.84287 0.129945,3.08326 0.129946,1.24039 0.555223,2.22089 0.389838,0.92143 1.098633,1.40578 0.720609,0.48434 1.901934,0.48434 1.110446,0 1.842868,-0.46072 0.732422,-0.46071 1.134073,-1.39396 z m 10.513798,3.43766 H 69.42616 v -3.36678 h 2.823368 z m 16.774824,-8.80088 q 0,4.73712 -1.48847,6.95801 -1.476657,2.20908 -4.595357,2.20908 -3.165952,0 -4.630796,-2.24452 -1.45303,-2.24452 -1.45303,-6.89894 0,-4.68986 1.476657,-6.92257 1.476657,-2.24452 4.607169,-2.24452 3.165953,0 4.618983,2.27996 1.464844,2.26814 1.464844,6.8635 z m -3.106886,5.36322 q 0.413464,-0.95687 0.555223,-2.24452 0.153572,-1.29946 0.153572,-3.1187 0,-1.79561 -0.153572,-3.1187 -0.141759,-1.32308 -0.567036,-2.24452 -0.413464,-0.90962 -1.134073,-1.37033 -0.708795,-0.46072 -1.831055,-0.46072 -1.110446,0 -1.842868,0.46072 -0.720608,0.46071 -1.145885,1.39396 -0.401651,0.87418 -0.555223,2.27996 -0.141759,1.40578 -0.141759,3.08326 0,1.84287 0.129945,3.08326 0.129946,1.24039 0.555223,2.22089 0.389838,0.92143 1.098633,1.40578 0.720609,0.48434 1.901934,0.48434 1.110446,0 1.842868,-0.46072 0.732422,-0.46071 1.134073,-1.39396 z m 18.487744,-5.36322 q 0,4.73712 -1.48847,6.95801 -1.47666,2.20908 -4.595355,2.20908 -3.165953,0 -4.630797,-2.24452 -1.45303,-2.24452 -1.45303,-6.89894 0,-4.68986 1.476657,-6.92257 1.476657,-2.24452 4.60717,-2.24452 3.165955,0 4.618985,2.27996 1.46484,2.26814 1.46484,6.8635 z m -3.10688,5.36322 q 0.41346,-0.95687 0.55522,-2.24452 0.15357,-1.29946 0.15357,-3.1187 0,-1.79561 -0.15357,-3.1187 -0.14176,-1.32308 -0.56704,-2.24452 -0.41346,-0.90962 -1.13407,-1.37033 -0.708796,-0.46072 -1.831055,-0.46072 -1.110446,0 -1.842868,0.46072 -0.720609,0.46071 -1.145886,1.39396 -0.401651,0.87418 -0.555223,2.27996 -0.141759,1.40578 -0.141759,3.08326 0,1.84287 0.129946,3.08326 0.129946,1.24039 0.555223,2.22089 0.389837,0.92143 1.098633,1.40578 0.720608,0.48434 1.901934,0.48434 1.110446,0 1.842865,-0.46072 0.73242,-0.46071 1.13408,-1.39396 z"
     id="text65"
     style="font-size:24.1935px;text-anchor:end"
     aria-label="0.00" /><polyline
     fill="none"
     opacity="1"
     stroke="#000000"
     stroke-width="1"
     points="110,205 115,205 "
     id="polyline66" /><path
     d="M 64.866243,117.04839 H 52.958481 v -2.46897 q 1.240392,-1.0632 2.480783,-2.12639 1.252206,-1.06319 2.327212,-2.11457 2.268145,-2.19727 3.106886,-3.48491 0.838741,-1.29946 0.838741,-2.79974 0,-1.37034 -0.90962,-2.1382 -0.897808,-0.77968 -2.516224,-0.77968 -1.075006,0 -2.327211,0.37803 -1.252205,0.37802 -2.445344,1.15769 h -0.118133 v -2.48078 q 0.838741,-0.413463 2.232706,-0.756048 1.405777,-0.342584 2.717048,-0.342584 2.705236,0 4.240959,1.311272 1.535724,1.29946 1.535724,3.53216 0,1.00413 -0.259892,1.87831 -0.248078,0.86237 -0.744235,1.64204 -0.460717,0.73243 -1.08682,1.44122 -0.614289,0.7088 -1.500283,1.57116 -1.264019,1.2404 -2.61073,2.40991 -1.346711,1.1577 -2.516223,2.15001 h 9.462418 z m 7.383285,0 H 69.42616 v -3.36678 h 2.823368 z m 16.774824,-8.80088 q 0,4.73712 -1.48847,6.95801 -1.476657,2.20908 -4.595357,2.20908 -3.165952,0 -4.630796,-2.24452 -1.45303,-2.24452 -1.45303,-6.89894 0,-4.68986 1.476657,-6.92257 1.476657,-2.244519 4.607169,-2.244519 3.165953,0 4.618983,2.279959 1.464844,2.26814 1.464844,6.8635 z m -3.106886,5.36322 q 0.413464,-0.95687 0.555223,-2.24452 0.153572,-1.29946 0.153572,-3.1187 0,-1.79561 -0.153572,-3.1187 -0.141759,-1.32308 -0.567036,-2.24452 -0.413464,-0.90962 -1.134073,-1.37033 -0.708795,-0.46072 -1.831055,-0.46072 -1.110446,0 -1.842868,0.46072 -0.720608,0.46071 -1.145885,1.39396 -0.401651,0.87418 -0.555223,2.27996 -0.141759,1.40578 -0.141759,3.08326 0,1.84287 0.129945,3.08326 0.129946,1.24039 0.555223,2.22089 0.389838,0.92143 1.098633,1.40578 0.720609,0.48434 1.901934,0.48434 1.110446,0 1.842868,-0.46072 0.732422,-0.46071 1.134073,-1.39396 z m 18.487744,-5.36322 q 0,4.73712 -1.48847,6.95801 -1.47666,2.20908 -4.595355,2.20908 -3.165953,0 -4.630797,-2.24452 -1.45303,-2.24452 -1.45303,-6.89894 0,-4.68986 1.476657,-6.92257 1.476657,-2.244519 4.60717,-2.244519 3.165955,0 4.618985,2.279959 1.46484,2.26814 1.46484,6.8635 z m -3.10688,5.36322 q 0.41346,-0.95687 0.55522,-2.24452 0.15357,-1.29946 0.15357,-3.1187 0,-1.79561 -0.15357,-3.1187 -0.14176,-1.32308 -0.56704,-2.24452 -0.41346,-0.90962 -1.13407,-1.37033 -0.708796,-0.46072 -1.831055,-0.46072 -1.110446,0 -1.842868,0.46072 -0.720609,0.46071 -1.145886,1.39396 -0.401651,0.87418 -0.555223,2.27996 -0.141759,1.40578 -0.141759,3.08326 0,1.84287 0.129946,3.08326 0.129946,1.24039 0.555223,2.22089 0.389837,0.92143 1.098633,1.40578 0.720608,0.48434 1.901934,0.48434 1.110446,0 1.842865,-0.46072 0.73242,-0.46071 1.13408,-1.39396 z"
     id="text66"
     style="font-size:24.1935px;text-anchor:end"
     aria-label="2.00" /><polyline
     fill="none"
     opacity="1"
     stroke="#000000"
     stroke-width="1"
     points="110,111 115,111 "
     id="polyline67" /><polyline
     fill="none"
     opacity="1"
     stroke="#000000"
     stroke-width="1"
     points="116,340 1315,340 "
     id="polyline68" /><path
     d="m 176.09564,359.58622 q 0,4.73712 -1.48847,6.95801 -1.47666,2.20908 -4.59536,2.20908 -3.16595,0 -4.63079,-2.24452 -1.45303,-2.24452 -1.45303,-6.89894 0,-4.68987 1.47665,-6.92257 1.47666,-2.24452 4.60717,-2.24452 3.16596,0 4.61899,2.27996 1.46484,2.26814 1.46484,6.8635 z m -3.10689,5.36322 q 0.41347,-0.95687 0.55523,-2.24452 0.15357,-1.29946 0.15357,-3.1187 0,-1.79561 -0.15357,-3.1187 -0.14176,-1.32308 -0.56704,-2.24452 -0.41346,-0.90962 -1.13407,-1.37034 -0.7088,-0.46071 -1.83106,-0.46071 -1.11044,0 -1.84286,0.46071 -0.72061,0.46072 -1.14589,1.39397 -0.40165,0.87418 -0.55522,2.27996 -0.14176,1.40577 -0.14176,3.08326 0,1.84287 0.12994,3.08326 0.12995,1.24039 0.55523,2.22089 0.38983,0.92143 1.09863,1.40578 0.72061,0.48434 1.90193,0.48434 1.11045,0 1.84287,-0.46072 0.73242,-0.46071 1.13407,-1.39396 z"
     id="text68"
     style="font-size:24.1935px;text-anchor:middle"
     aria-label="0" /><polyline
     fill="none"
     opacity="1"
     stroke="#000000"
     stroke-width="1"
     points="170,340 170,345 "
     id="polyline69" /><path
     d="m 620.28708,362.79943 q 0,1.22857 -0.44891,2.35083 -0.4489,1.12226 -1.22857,1.89013 -0.85056,0.82692 -2.03188,1.27583 -1.16952,0.43709 -2.71705,0.43709 -1.44122,0 -2.77612,-0.30715 -1.3349,-0.29533 -2.25633,-0.72061 v -2.49259 h 0.16539 q 0.96868,0.61429 2.26814,1.05138 1.29946,0.42527 2.55166,0.42527 0.83874,0 1.61842,-0.23626 0.79149,-0.23627 1.40578,-0.82693 0.51978,-0.50797 0.77967,-1.21676 0.27171,-0.7088 0.27171,-1.64205 0,-0.90962 -0.31896,-1.53572 -0.30715,-0.6261 -0.86237,-1.00413 -0.61429,-0.4489 -1.50028,-0.6261 -0.87418,-0.18901 -1.961,-0.18901 -1.03957,0 -2.00826,0.14176 -0.95687,0.14176 -1.65385,0.28352 v -9.06077 h 10.58468 v 2.06732 h -8.30472 v 4.67805 q 0.50797,-0.0473 1.03956,-0.0709 0.5316,-0.0236 0.92144,-0.0236 1.4294,0 2.50441,0.24808 1.075,0.23626 1.97281,0.85055 0.94506,0.64973 1.46484,1.67749 0.51979,1.02775 0.51979,2.57529 z m 15.49899,-3.21321 q 0,4.73712 -1.48847,6.95801 -1.47666,2.20908 -4.59536,2.20908 -3.16595,0 -4.63079,-2.24452 -1.45303,-2.24452 -1.45303,-6.89894 0,-4.68987 1.47665,-6.92257 1.47666,-2.24452 4.60717,-2.24452 3.16596,0 4.61899,2.27996 1.46484,2.26814 1.46484,6.8635 z m -3.10689,5.36322 q 0.41347,-0.95687 0.55523,-2.24452 0.15357,-1.29946 0.15357,-3.1187 0,-1.79561 -0.15357,-3.1187 -0.14176,-1.32308 -0.56704,-2.24452 -0.41346,-0.90962 -1.13407,-1.37034 -0.7088,-0.46071 -1.83106,-0.46071 -1.11044,0 -1.84286,0.46071 -0.72061,0.46072 -1.14589,1.39397 -0.40165,0.87418 -0.55522,2.27996 -0.14176,1.40577 -0.14176,3.08326 0,1.84287 0.12994,3.08326 0.12995,1.24039 0.55523,2.22089 0.38983,0.92143 1.09863,1.40578 0.72061,0.48434 1.90193,0.48434 1.11045,0 1.84287,-0.46072 0.73242,-0.46071 1.13407,-1.39396 z"
     id="text69"
     style="font-size:24.1935px;text-anchor:middle"
     aria-label="50" /><polyline
     fill="none"
     opacity="1"
     stroke="#000000"
     stroke-width="1"
     points="622,340 622,345 "
     id="polyline70" /><path
     d="m 1063.7343,368.3871 h -9.5215 v -1.79562 h 3.6621 v -11.78963 h -3.6621 v -1.6066 q 0.7442,0 1.5948,-0.11813 0.8505,-0.12995 1.2876,-0.36621 0.5434,-0.29534 0.8506,-0.74424 0.3189,-0.46072 0.3662,-1.22858 h 1.8311 v 15.85339 h 3.5912 z m 16.3613,-8.80088 q 0,4.73712 -1.4884,6.95801 -1.4767,2.20908 -4.5954,2.20908 -3.1659,0 -4.6308,-2.24452 -1.453,-2.24452 -1.453,-6.89894 0,-4.68987 1.4766,-6.92257 1.4767,-2.24452 4.6072,-2.24452 3.166,0 4.619,2.27996 1.4648,2.26814 1.4648,6.8635 z m -3.1068,5.36322 q 0.4134,-0.95687 0.5552,-2.24452 0.1535,-1.29946 0.1535,-3.1187 0,-1.79561 -0.1535,-3.1187 -0.1418,-1.32308 -0.5671,-2.24452 -0.4134,-0.90962 -1.134,-1.37034 -0.7088,-0.46071 -1.8311,-0.46071 -1.1104,0 -1.8429,0.46071 -0.7206,0.46072 -1.1458,1.39397 -0.4017,0.87418 -0.5553,2.27996 -0.1417,1.40577 -0.1417,3.08326 0,1.84287 0.1299,3.08326 0.13,1.24039 0.5552,2.22089 0.3899,0.92143 1.0987,1.40578 0.7206,0.48434 1.9019,0.48434 1.1105,0 1.8429,-0.46072 0.7324,-0.46071 1.1341,-1.39396 z m 18.4877,-5.36322 q 0,4.73712 -1.4885,6.95801 -1.4766,2.20908 -4.5953,2.20908 -3.166,0 -4.6308,-2.24452 -1.4531,-2.24452 -1.4531,-6.89894 0,-4.68987 1.4767,-6.92257 1.4767,-2.24452 4.6072,-2.24452 3.1659,0 4.619,2.27996 1.4648,2.26814 1.4648,6.8635 z m -3.1069,5.36322 q 0.4135,-0.95687 0.5552,-2.24452 0.1536,-1.29946 0.1536,-3.1187 0,-1.79561 -0.1536,-3.1187 -0.1417,-1.32308 -0.567,-2.24452 -0.4135,-0.90962 -1.1341,-1.37034 -0.7088,-0.46071 -1.831,-0.46071 -1.1105,0 -1.8429,0.46071 -0.7206,0.46072 -1.1459,1.39397 -0.4016,0.87418 -0.5552,2.27996 -0.1418,1.40577 -0.1418,3.08326 0,1.84287 0.13,3.08326 0.1299,1.24039 0.5552,2.22089 0.3898,0.92143 1.0986,1.40578 0.7206,0.48434 1.902,0.48434 1.1104,0 1.8428,-0.46072 0.7325,-0.46071 1.1341,-1.39396 z"
     id="text70"
     style="font-size:24.1935px;text-anchor:middle"
     aria-label="100" /><polyline
     fill="none"
     opacity="1"
     stroke="#000000"
     stroke-width="1"
     points="1074,340 1074,345 "
     id="polyline71" /><polyline
     fill="none"
     opacity="1"
     stroke="#1F77B4"
     stroke-width="1"
     points="170,205 853,324 898,326 1260,325 898,291 853,287 170,139 "
     id="polyline72" /><polyline
     fill="none"
     opacity="1"
     stroke="#1F77B4"
     stroke-width="1"
     points="170,205 853,265 898,266 1260,265 898,232 853,229 170,141 "
     id="polyline73" /><polyline
     fill="none"
     opacity="1"
     stroke="#1F77B4"
     stroke-width="1"
     points="170,205 853,205 898,205 1260,205 898,173 853,171 170,143 "
     id="polyline74" /><polyline
     fill="none"
     opacity="1"
     stroke="#1F77B4"
     stroke-width="1"
     points="170,205 853,146 898,145 1260,146 898,113 853,113 170,145 "
     id="polyline75" /><polyline
     fill="none"
     opacity="1"
     stroke="#1F77B4"
     stroke-width="1"
     points="170,205 853,87 898,85 1260,86 898,54 853,55 170,147 "
     id="polyline76" /><path
     style="fill:#87aade;fill-opacity:0.699531;stroke:#808080;stroke-width:1.55686;stroke-linejoin:bevel;stroke-dasharray:none"
     d="m 862.35185,26.554329 c 0,0 -5.6722,23.598481 -7.30725,35.382755 -1.63506,11.784274 -3.66141,24.181604 -4.98463,35.973086 -1.32321,11.79148 -2.15694,22.94655 -2.99077,34.73263 -0.83373,11.78609 -1.49818,24.18699 -1.99385,35.97309 -0.49567,11.7861 -0.99692,23.14771 -0.99692,34.73263 0,11.58493 0.50125,22.94654 0.99692,34.73264 0.49567,11.7861 1.16012,24.187 1.99385,35.97308 0.83383,11.78609 1.66756,22.94116 2.99077,34.73264 1.32322,11.79148 2.8204,24.1726 4.98463,35.97308 2.16422,11.80049 7.2269,34.9625 7.2269,34.9625 l 15.70186,0.0693 c 0,0 5.73042,-26.65847 6.97897,-38.75318 1.24855,-12.09471 2.6585,-23.15509 3.9877,-34.73263 1.32919,-11.57754 2.24377,-22.97595 3.07331,-34.5701 0.82964,-11.59416 1.57893,-23.52439 1.91131,-34.89518 0.33247,-11.3708 0.99692,-22.32047 0.99692,-33.49219 0,-11.17171 -0.66445,-22.12138 -0.99692,-33.49218 -0.33238,-11.37079 -1.34296,-22.97595 -2.1725,-34.5701 -0.82964,-11.59415 -1.48293,-23.31763 -2.81212,-34.89517 -1.3292,-11.577539 -2.50278,-22.430383 -3.9877,-34.732632 -1.48492,-12.30225 -7.1637,-39.074214 -7.1637,-39.074214 z"
     id="path107"
     sodipodi:nodetypes="czzzzzzzzzcczzzzzzzzzcc" /><rect
     style="fill:#86aadd;fill-opacity:0.701961;stroke:#808080;stroke-width:1.48028;stroke-linejoin:bevel;stroke-dasharray:none;stroke-opacity:1"
     id="rect76"
     width="22.981501"
     height="353.314"
     x="1260.8574"
     y="-9.424983"
     transform="rotate(1.7268637)" /><path
     style="fill:#ff0000;fill-opacity:0.701961;stroke:#ff0000;stroke-width:4;stroke-linejoin:bevel;stroke-dasharray:none;stroke-opacity:1;marker-end:url(#Triangle)"
     d="M 170,205 H 396"
     id="path76" /><path
     style="fill:#ff0000;fill-opacity:0.701961;stroke:#ff0000;stroke-width:4;stroke-linejoin:bevel;stroke-dasharray:none;stroke-opacity:1;marker-end:url(#Triangle-7)"
     d="M 511.5,157 306,149"
     id="path76-2"
     sodipodi:nodetypes="cc" /></svg>
