<?xml version="1.0" encoding="UTF-8" standalone="no"?>
<svg
   width="1346"
   height="435"
   viewBox="0 0 1346 435"
   version="1.1"
   id="svg99"
   sodipodi:docname="workshop__09_Ray_plot.svg"
   xml:space="preserve"
   inkscape:version="1.4 (86a8ad7, 2024-10-11)"
   inkscape:export-filename="workshop__09_Ray_plot.png"
   inkscape:export-xdpi="96"
   inkscape:export-ydpi="96"
   xmlns:inkscape="http://www.inkscape.org/namespaces/inkscape"
   xmlns:sodipodi="http://sodipodi.sourceforge.net/DTD/sodipodi-0.dtd"
   xmlns="http://www.w3.org/2000/svg"
   xmlns:svg="http://www.w3.org/2000/svg"><defs
     id="defs99" /><sodipodi:namedview
     id="namedview99"
     pagecolor="#ffffff"
     bordercolor="#000000"
     borderopacity="0.25"
     inkscape:showpageshadow="2"
     inkscape:pageopacity="0.0"
     inkscape:pagecheckerboard="0"
     inkscape:deskcolor="#d1d1d1"
     showgrid="false"
     inkscape:zoom="1.3186018"
     inkscape:cx="692.40009"
     inkscape:cy="227.13453"
     inkscape:window-width="1920"
     inkscape:window-height="1147"
     inkscape:window-x="-8"
     inkscape:window-y="-8"
     inkscape:window-maximized="1"
     inkscape:current-layer="svg99" /><rect
     style="fill:#86aadd;fill-opacity:0.701961;stroke:#818285;stroke-width:1;stroke-linejoin:bevel;stroke-dasharray:none;stroke-opacity:0.67451"
     id="rect100-4"
     width="12.427708"
     height="71.202087"
     x="-43.702881"
     y="271.80212"
     transform="rotate(-45)" /><rect
     style="fill:#86aadd;fill-opacity:0.701961;stroke:#818285;stroke-width:1;stroke-linejoin:bevel;stroke-dasharray:none;stroke-opacity:0.67451"
     id="rect100-9"
     width="12.427708"
     height="71.202087"
     x="802.75122"
     y="943.25983"
     transform="rotate(-45)" /><rect
     style="fill:#86aadd;fill-opacity:0.701961;stroke:#818285;stroke-width:1;stroke-linejoin:bevel;stroke-dasharray:none;stroke-opacity:0.67451"
     id="rect100-6"
     width="12.427708"
     height="71.202087"
     x="213.04549"
     y="-86.382233"
     transform="rotate(45)" /><path
     style="fill:#87aade;fill-opacity:0.699531;stroke:#808080;stroke-width:0.250378;stroke-linejoin:bevel;stroke-dasharray:none"
     d="m 1222.7951,93.765808 c 0,0 -0.9121,3.79517 -1.1751,5.69034 -0.2629,1.895182 -0.5888,3.888952 -0.8016,5.785302 -0.2128,1.89633 -0.3469,3.69032 -0.481,5.58579 -0.1341,1.89547 -0.241,3.88982 -0.3207,5.78529 -0.08,1.89547 -0.1603,3.72268 -0.1603,5.5858 0,1.86312 0.081,3.69032 0.1603,5.58579 0.08,1.89547 0.1866,3.88982 0.3207,5.78529 0.1341,1.89547 0.2682,3.68946 0.481,5.58579 0.2128,1.89634 0.4535,3.88751 0.8016,5.78529 0.348,1.89779 1.1622,5.62276 1.1622,5.62276 l 2.5253,0.0111 c 0,0 0.9216,-4.28729 1.1223,-6.23239 0.2008,-1.9451 0.4276,-3.72386 0.6413,-5.58579 0.2138,-1.86193 0.3609,-3.69505 0.4943,-5.55966 0.1334,-1.8646 0.2539,-3.78325 0.3074,-5.61193 0.053,-1.82868 0.1603,-3.58964 0.1603,-5.38631 0,-1.79666 -0.1068,-3.55762 -0.1603,-5.3863 -0.053,-1.82868 -0.216,-3.69506 -0.3494,-5.55966 -0.1334,-1.8646 -0.2385,-3.75 -0.4523,-5.61193 -0.2137,-1.86193 -0.4025,-3.60732 -0.6413,-5.5858 -0.2388,-1.978482 -1.1521,-6.284022 -1.1521,-6.284022 z"
     id="path107-2"
     sodipodi:nodetypes="czzzzzzzzzcczzzzzzzzzcc" /><path
     style="fill:#87aade;fill-opacity:0.699531;stroke:#808080;stroke-width:0.250378;stroke-linejoin:bevel;stroke-dasharray:none"
     d="m 229.14112,94.074558 c 0,0 -0.9121,3.79518 -1.1751,5.69035 -0.2629,1.895182 -0.5888,3.888952 -0.8016,5.785302 -0.2128,1.89633 -0.3469,3.69032 -0.481,5.58579 -0.1341,1.89546 -0.241,3.88981 -0.3207,5.78528 -0.08,1.89547 -0.1603,3.72268 -0.1603,5.5858 0,1.86312 0.081,3.69032 0.1603,5.58579 0.08,1.89547 0.1866,3.88982 0.3207,5.78529 0.1341,1.89547 0.2682,3.68946 0.481,5.58579 0.2128,1.89634 0.4535,3.88751 0.8016,5.78529 0.348,1.89779 1.1622,5.62276 1.1622,5.62276 l 2.5253,0.0111 c 0,0 0.9216,-4.28729 1.1223,-6.23239 0.2008,-1.9451 0.4276,-3.72386 0.6413,-5.58579 0.2138,-1.86193 0.3609,-3.69505 0.4943,-5.55966 0.1334,-1.8646 0.2539,-3.78325 0.3074,-5.61193 0.053,-1.82868 0.1603,-3.58964 0.1603,-5.38631 0,-1.79666 -0.1068,-3.55762 -0.1603,-5.3863 -0.053,-1.82868 -0.216,-3.69506 -0.3494,-5.55965 -0.1334,-1.8646 -0.2385,-3.75 -0.4523,-5.61193 -0.2137,-1.86193 -0.4025,-3.60732 -0.6413,-5.5858 -0.2388,-1.978482 -1.1521,-6.284032 -1.1521,-6.284032 z"
     id="path107-2-3"
     sodipodi:nodetypes="czzzzzzzzzcczzzzzzzzzcc" /><rect
     style="fill:#86aadd;fill-opacity:0.701961;stroke:#818285;stroke-width:1;stroke-linejoin:bevel;stroke-dasharray:none;stroke-opacity:0.67451"
     id="rect100"
     width="12.427708"
     height="71.202087"
     x="891.92999"
     y="225.04703"
     transform="rotate(-1.6360867)" /><g
     id="g1"
     transform="translate(10.617307,441.91287)"><line
       opacity="0.1"
       stroke="#000000"
       stroke-width="1"
       x1="116.77769"
       y1="-107.25538"
       x2="116.77769"
       y2="-406.25537"
       id="line1-8" /><line
       opacity="0.1"
       stroke="#000000"
       stroke-width="1"
       x1="151.77769"
       y1="-107.25538"
       x2="151.77769"
       y2="-406.25537"
       id="line2-8" /><line
       opacity="0.1"
       stroke="#000000"
       stroke-width="1"
       x1="187.77769"
       y1="-107.25538"
       x2="187.77769"
       y2="-406.25537"
       id="line3-2" /><line
       opacity="0.1"
       stroke="#000000"
       stroke-width="1"
       x1="222.77769"
       y1="-107.25538"
       x2="222.77769"
       y2="-406.25537"
       id="line4-4" /><line
       opacity="0.1"
       stroke="#000000"
       stroke-width="1"
       x1="257.77768"
       y1="-107.25538"
       x2="257.77768"
       y2="-406.25537"
       id="line5-5" /><line
       opacity="0.1"
       stroke="#000000"
       stroke-width="1"
       x1="293.77768"
       y1="-107.25538"
       x2="293.77768"
       y2="-406.25537"
       id="line6-5" /><line
       opacity="0.1"
       stroke="#000000"
       stroke-width="1"
       x1="328.77768"
       y1="-107.25538"
       x2="328.77768"
       y2="-406.25537"
       id="line7-1" /><line
       opacity="0.1"
       stroke="#000000"
       stroke-width="1"
       x1="364.77768"
       y1="-107.25538"
       x2="364.77768"
       y2="-406.25537"
       id="line8-7" /><line
       opacity="0.1"
       stroke="#000000"
       stroke-width="1"
       x1="399.77768"
       y1="-107.25538"
       x2="399.77768"
       y2="-406.25537"
       id="line9-1" /><line
       opacity="0.1"
       stroke="#000000"
       stroke-width="1"
       x1="434.77768"
       y1="-107.25538"
       x2="434.77768"
       y2="-406.25537"
       id="line10-1" /><line
       opacity="0.1"
       stroke="#000000"
       stroke-width="1"
       x1="470.77768"
       y1="-107.25538"
       x2="470.77768"
       y2="-406.25537"
       id="line11-5" /><line
       opacity="0.1"
       stroke="#000000"
       stroke-width="1"
       x1="505.77768"
       y1="-107.25538"
       x2="505.77768"
       y2="-406.25537"
       id="line12-2" /><line
       opacity="0.1"
       stroke="#000000"
       stroke-width="1"
       x1="541.77771"
       y1="-107.25538"
       x2="541.77771"
       y2="-406.25537"
       id="line13-7" /><line
       opacity="0.1"
       stroke="#000000"
       stroke-width="1"
       x1="576.77771"
       y1="-107.25538"
       x2="576.77771"
       y2="-406.25537"
       id="line14-6" /><line
       opacity="0.1"
       stroke="#000000"
       stroke-width="1"
       x1="611.77771"
       y1="-107.25538"
       x2="611.77771"
       y2="-406.25537"
       id="line15-1" /><line
       opacity="0.1"
       stroke="#000000"
       stroke-width="1"
       x1="647.77771"
       y1="-107.25538"
       x2="647.77771"
       y2="-406.25537"
       id="line16-4" /><line
       opacity="0.1"
       stroke="#000000"
       stroke-width="1"
       x1="682.77771"
       y1="-107.25538"
       x2="682.77771"
       y2="-406.25537"
       id="line17-2" /><line
       opacity="0.1"
       stroke="#000000"
       stroke-width="1"
       x1="718.77771"
       y1="-107.25538"
       x2="718.77771"
       y2="-406.25537"
       id="line18-3" /><line
       opacity="0.1"
       stroke="#000000"
       stroke-width="1"
       x1="753.77771"
       y1="-107.25538"
       x2="753.77771"
       y2="-406.25537"
       id="line19-2" /><line
       opacity="0.1"
       stroke="#000000"
       stroke-width="1"
       x1="788.77771"
       y1="-107.25538"
       x2="788.77771"
       y2="-406.25537"
       id="line20-2" /><line
       opacity="0.1"
       stroke="#000000"
       stroke-width="1"
       x1="824.77771"
       y1="-107.25538"
       x2="824.77771"
       y2="-406.25537"
       id="line21-1" /><line
       opacity="0.1"
       stroke="#000000"
       stroke-width="1"
       x1="859.77771"
       y1="-107.25538"
       x2="859.77771"
       y2="-406.25537"
       id="line22-6" /><line
       opacity="0.1"
       stroke="#000000"
       stroke-width="1"
       x1="895.77771"
       y1="-107.25538"
       x2="895.77771"
       y2="-406.25537"
       id="line23-8" /><line
       opacity="0.1"
       stroke="#000000"
       stroke-width="1"
       x1="930.77771"
       y1="-107.25538"
       x2="930.77771"
       y2="-406.25537"
       id="line24-5" /><line
       opacity="0.1"
       stroke="#000000"
       stroke-width="1"
       x1="965.77771"
       y1="-107.25538"
       x2="965.77771"
       y2="-406.25537"
       id="line25-7" /><line
       opacity="0.1"
       stroke="#000000"
       stroke-width="1"
       x1="1001.7777"
       y1="-107.25538"
       x2="1001.7777"
       y2="-406.25537"
       id="line26-6" /><line
       opacity="0.1"
       stroke="#000000"
       stroke-width="1"
       x1="1036.7777"
       y1="-107.25538"
       x2="1036.7777"
       y2="-406.25537"
       id="line27-1" /><line
       opacity="0.1"
       stroke="#000000"
       stroke-width="1"
       x1="1072.7777"
       y1="-107.25538"
       x2="1072.7777"
       y2="-406.25537"
       id="line28-8" /><line
       opacity="0.1"
       stroke="#000000"
       stroke-width="1"
       x1="1107.7777"
       y1="-107.25538"
       x2="1107.7777"
       y2="-406.25537"
       id="line29-9" /><line
       opacity="0.1"
       stroke="#000000"
       stroke-width="1"
       x1="1142.7777"
       y1="-107.25538"
       x2="1142.7777"
       y2="-406.25537"
       id="line30-2" /><line
       opacity="0.1"
       stroke="#000000"
       stroke-width="1"
       x1="1178.7777"
       y1="-107.25538"
       x2="1178.7777"
       y2="-406.25537"
       id="line31-7" /><line
       opacity="0.1"
       stroke="#000000"
       stroke-width="1"
       x1="1213.7777"
       y1="-107.25538"
       x2="1213.7777"
       y2="-406.25537"
       id="line32-9" /><line
       opacity="0.1"
       stroke="#000000"
       stroke-width="1"
       x1="1249.7777"
       y1="-107.25538"
       x2="1249.7777"
       y2="-406.25537"
       id="line33-5" /><line
       opacity="0.1"
       stroke="#000000"
       stroke-width="1"
       x1="1284.7777"
       y1="-107.25538"
       x2="1284.7777"
       y2="-406.25537"
       id="line34-4" /><line
       opacity="0.1"
       stroke="#000000"
       stroke-width="1"
       x1="115.77769"
       y1="-108.25538"
       x2="1314.7777"
       y2="-108.25538"
       id="line35-3" /><line
       opacity="0.1"
       stroke="#000000"
       stroke-width="1"
       x1="115.77769"
       y1="-115.25538"
       x2="1314.7777"
       y2="-115.25538"
       id="line36-1" /><line
       opacity="0.1"
       stroke="#000000"
       stroke-width="1"
       x1="115.77769"
       y1="-122.25538"
       x2="1314.7777"
       y2="-122.25538"
       id="line37-2" /><line
       opacity="0.1"
       stroke="#000000"
       stroke-width="1"
       x1="115.77769"
       y1="-129.25539"
       x2="1314.7777"
       y2="-129.25539"
       id="line38-3" /><line
       opacity="0.1"
       stroke="#000000"
       stroke-width="1"
       x1="115.77769"
       y1="-136.25539"
       x2="1314.7777"
       y2="-136.25539"
       id="line39-3" /><line
       opacity="0.1"
       stroke="#000000"
       stroke-width="1"
       x1="115.77769"
       y1="-144.25539"
       x2="1314.7777"
       y2="-144.25539"
       id="line40-4" /><line
       opacity="0.1"
       stroke="#000000"
       stroke-width="1"
       x1="115.77769"
       y1="-151.25539"
       x2="1314.7777"
       y2="-151.25539"
       id="line41-1" /><line
       opacity="0.1"
       stroke="#000000"
       stroke-width="1"
       x1="115.77769"
       y1="-158.25539"
       x2="1314.7777"
       y2="-158.25539"
       id="line42-1" /><line
       opacity="0.1"
       stroke="#000000"
       stroke-width="1"
       x1="115.77769"
       y1="-165.25539"
       x2="1314.7777"
       y2="-165.25539"
       id="line43-3" /><line
       opacity="0.1"
       stroke="#000000"
       stroke-width="1"
       x1="115.77769"
       y1="-172.25539"
       x2="1314.7777"
       y2="-172.25539"
       id="line44-8" /><line
       opacity="0.1"
       stroke="#000000"
       stroke-width="1"
       x1="115.77769"
       y1="-179.25539"
       x2="1314.7777"
       y2="-179.25539"
       id="line45-7" /><line
       opacity="0.1"
       stroke="#000000"
       stroke-width="1"
       x1="115.77769"
       y1="-186.25539"
       x2="1314.7777"
       y2="-186.25539"
       id="line46-4" /><line
       opacity="0.1"
       stroke="#000000"
       stroke-width="1"
       x1="115.77769"
       y1="-193.25539"
       x2="1314.7777"
       y2="-193.25539"
       id="line47-2" /><line
       opacity="0.1"
       stroke="#000000"
       stroke-width="1"
       x1="115.77769"
       y1="-200.25539"
       x2="1314.7777"
       y2="-200.25539"
       id="line48-7" /><line
       opacity="0.1"
       stroke="#000000"
       stroke-width="1"
       x1="115.77769"
       y1="-207.25539"
       x2="1314.7777"
       y2="-207.25539"
       id="line49-7" /><line
       opacity="0.1"
       stroke="#000000"
       stroke-width="1"
       x1="115.77769"
       y1="-214.25539"
       x2="1314.7777"
       y2="-214.25539"
       id="line50-9" /><line
       opacity="0.1"
       stroke="#000000"
       stroke-width="1"
       x1="115.77769"
       y1="-221.25539"
       x2="1314.7777"
       y2="-221.25539"
       id="line51-3" /><line
       opacity="0.1"
       stroke="#000000"
       stroke-width="1"
       x1="115.77769"
       y1="-228.25539"
       x2="1314.7777"
       y2="-228.25539"
       id="line52-1" /><line
       opacity="0.1"
       stroke="#000000"
       stroke-width="1"
       x1="115.77769"
       y1="-235.25539"
       x2="1314.7777"
       y2="-235.25539"
       id="line53-9" /><line
       opacity="0.1"
       stroke="#000000"
       stroke-width="1"
       x1="115.77769"
       y1="-242.25539"
       x2="1314.7777"
       y2="-242.25539"
       id="line54-8" /><line
       opacity="0.1"
       stroke="#000000"
       stroke-width="1"
       x1="115.77769"
       y1="-249.25539"
       x2="1314.7777"
       y2="-249.25539"
       id="line55-6" /><line
       opacity="0.1"
       stroke="#000000"
       stroke-width="1"
       x1="115.77769"
       y1="-257.25537"
       x2="1314.7777"
       y2="-257.25537"
       id="line56-5" /><line
       opacity="0.1"
       stroke="#000000"
       stroke-width="1"
       x1="115.77769"
       y1="-264.25537"
       x2="1314.7777"
       y2="-264.25537"
       id="line57-0" /><line
       opacity="0.1"
       stroke="#000000"
       stroke-width="1"
       x1="115.77769"
       y1="-271.25537"
       x2="1314.7777"
       y2="-271.25537"
       id="line58-2" /><line
       opacity="0.1"
       stroke="#000000"
       stroke-width="1"
       x1="115.77769"
       y1="-278.25537"
       x2="1314.7777"
       y2="-278.25537"
       id="line59-8" /><line
       opacity="0.1"
       stroke="#000000"
       stroke-width="1"
       x1="115.77769"
       y1="-285.25537"
       x2="1314.7777"
       y2="-285.25537"
       id="line60-6" /><line
       opacity="0.1"
       stroke="#000000"
       stroke-width="1"
       x1="115.77769"
       y1="-292.25537"
       x2="1314.7777"
       y2="-292.25537"
       id="line61-0" /><line
       opacity="0.1"
       stroke="#000000"
       stroke-width="1"
       x1="115.77769"
       y1="-299.25537"
       x2="1314.7777"
       y2="-299.25537"
       id="line62-2" /><line
       opacity="0.1"
       stroke="#000000"
       stroke-width="1"
       x1="115.77769"
       y1="-306.25537"
       x2="1314.7777"
       y2="-306.25537"
       id="line63-4" /><line
       opacity="0.1"
       stroke="#000000"
       stroke-width="1"
       x1="115.77769"
       y1="-313.25537"
       x2="1314.7777"
       y2="-313.25537"
       id="line64-8" /><line
       opacity="0.1"
       stroke="#000000"
       stroke-width="1"
       x1="115.77769"
       y1="-320.25537"
       x2="1314.7777"
       y2="-320.25537"
       id="line65-6" /><line
       opacity="0.1"
       stroke="#000000"
       stroke-width="1"
       x1="115.77769"
       y1="-327.25537"
       x2="1314.7777"
       y2="-327.25537"
       id="line66-5" /><line
       opacity="0.1"
       stroke="#000000"
       stroke-width="1"
       x1="115.77769"
       y1="-334.25537"
       x2="1314.7777"
       y2="-334.25537"
       id="line67-0" /><line
       opacity="0.1"
       stroke="#000000"
       stroke-width="1"
       x1="115.77769"
       y1="-341.25537"
       x2="1314.7777"
       y2="-341.25537"
       id="line68-9" /><line
       opacity="0.1"
       stroke="#000000"
       stroke-width="1"
       x1="115.77769"
       y1="-348.25537"
       x2="1314.7777"
       y2="-348.25537"
       id="line69-0" /><line
       opacity="0.1"
       stroke="#000000"
       stroke-width="1"
       x1="115.77769"
       y1="-355.25537"
       x2="1314.7777"
       y2="-355.25537"
       id="line70-0" /><line
       opacity="0.1"
       stroke="#000000"
       stroke-width="1"
       x1="115.77769"
       y1="-362.25537"
       x2="1314.7777"
       y2="-362.25537"
       id="line71-6" /><line
       opacity="0.1"
       stroke="#000000"
       stroke-width="1"
       x1="115.77769"
       y1="-369.25537"
       x2="1314.7777"
       y2="-369.25537"
       id="line72-1" /><line
       opacity="0.1"
       stroke="#000000"
       stroke-width="1"
       x1="115.77769"
       y1="-377.25537"
       x2="1314.7777"
       y2="-377.25537"
       id="line73-3" /><line
       opacity="0.1"
       stroke="#000000"
       stroke-width="1"
       x1="115.77769"
       y1="-384.25537"
       x2="1314.7777"
       y2="-384.25537"
       id="line74-8" /><line
       opacity="0.1"
       stroke="#000000"
       stroke-width="1"
       x1="115.77769"
       y1="-391.25537"
       x2="1314.7777"
       y2="-391.25537"
       id="line75-9" /><line
       opacity="0.1"
       stroke="#000000"
       stroke-width="1"
       x1="115.77769"
       y1="-398.25537"
       x2="1314.7777"
       y2="-398.25537"
       id="line76-3" /><line
       opacity="0.1"
       stroke="#000000"
       stroke-width="1"
       x1="115.77769"
       y1="-405.25537"
       x2="1314.7777"
       y2="-405.25537"
       id="line77-4" /><path
       d="m 128.76106,12.140526 q 0,1.6066 -0.46072,2.941495 -0.46071,1.323082 -1.29945,2.244515 -0.77968,0.874179 -1.84287,1.358521 -1.05138,0.47253 -2.2327,0.47253 -1.02775,0 -1.86649,-0.224452 -0.82693,-0.224451 -1.68929,-0.69698 v 5.528592 h -2.22089 V 5.7023146 h 2.22089 v 1.3821483 q 0.88599,-0.7442337 1.98462,-1.2403895 1.11044,-0.507969 2.36265,-0.507969 2.38627,0 3.70935,1.8074246 1.3349,1.7956114 1.3349,4.996997 z m -2.29177,0.05907 q 0,-2.3862734 -0.81511,-3.5675967 -0.81512,-1.1813232 -2.50441,-1.1813232 -0.95687,0 -1.92556,0.4134631 -0.96868,0.4134632 -1.85467,1.0868174 V 16.42873 q 0.94506,0.425276 1.61841,0.578848 0.68517,0.153572 1.54753,0.153572 1.85468,0 2.89425,-1.252202 1.03956,-1.252203 1.03956,-3.709355 z m 16.99924,0.106319 q 0,3.225012 -1.65385,5.091503 -1.65385,1.866491 -4.42996,1.866491 -2.79974,0 -4.45359,-1.866491 -1.64204,-1.866491 -1.64204,-5.091503 0,-3.2250128 1.64204,-5.0915036 1.65385,-1.878304 4.45359,-1.878304 2.77611,0 4.42996,1.878304 1.65385,1.8664908 1.65385,5.0915036 z m -2.29177,0 q 0,-2.5634718 -1.00412,-3.8038612 -1.00412,-1.2522027 -2.78792,-1.2522027 -1.80743,0 -2.81155,1.2522027 -0.99231,1.2403894 -0.99231,3.8038612 0,2.480779 1.00412,3.768421 1.00413,1.275829 2.79974,1.275829 1.77198,0 2.77611,-1.264016 1.01593,-1.275829 1.01593,-3.780234 z m 15.15638,2.787923 q 0,1.807424 -1.50028,2.965121 -1.48846,1.157697 -4.07556,1.157697 -1.46484,0 -2.69342,-0.342584 -1.21676,-0.354397 -2.04369,-0.76786 V 15.61362 h 0.11813 q 1.05138,0.791486 2.33902,1.264016 1.28765,0.460716 2.46897,0.460716 1.46484,0 2.29177,-0.472529 0.82692,-0.47253 0.82692,-1.488468 0,-0.779673 -0.4489,-1.181323 -0.4489,-0.40165 -1.72473,-0.685168 -0.47253,-0.106319 -1.24039,-0.248077 -0.75605,-0.141759 -1.38215,-0.307144 -1.73654,-0.460717 -2.46897,-1.346709 -0.7206,-0.897806 -0.7206,-2.1972613 0,-0.8151131 0.33077,-1.5357202 0.34258,-0.7206072 1.02775,-1.2876424 0.66154,-0.5552219 1.67748,-0.8741792 1.02775,-0.3307705 2.29177,-0.3307705 1.18132,0 2.38627,0.2953308 1.21676,0.2835176 2.02006,0.6969807 v 2.3744598 h -0.11813 q -0.85055,-0.6261014 -2.06732,-1.0513777 -1.21676,-0.4370896 -2.38627,-0.4370896 -1.21676,0 -2.0555,0.4725293 -0.83874,0.460716 -0.83874,1.3821482 0,0.815113 0.50797,1.2285761 0.49615,0.413463 1.6066,0.673354 0.61428,0.141759 1.37033,0.283518 0.76786,0.141759 1.27583,0.259891 1.54753,0.354397 2.38627,1.216763 0.83874,0.874179 0.83874,2.315394 z m 5.56403,-11.6005949 h -2.5044 V 1.1896598 h 2.5044 z m -0.14175,15.4044559 h -2.22089 V 5.7023146 h 2.22089 z m 11.24619,-0.118133 q -0.6261,0.165385 -1.37033,0.271705 -0.73242,0.106319 -1.31127,0.106319 -2.02006,0 -3.07144,-1.086818 -1.05138,-1.086817 -1.05138,-3.484903 V 7.5688054 h -1.50028 V 5.7023146 h 1.50028 V 1.910267 h 2.22089 v 3.7920476 h 4.58353 v 1.8664908 h -4.58353 v 6.0129356 q 0,1.039564 0.0472,1.630226 0.0473,0.578848 0.33077,1.086817 0.25989,0.47253 0.7088,0.696981 0.46071,0.212638 1.39396,0.212638 0.54341,0 1.13407,-0.153572 0.59066,-0.165385 0.85055,-0.271704 h 0.11813 z m 5.06788,-15.2863229 h -2.5044 V 1.1896598 h 2.5044 z m -0.14176,15.4044559 h -2.22089 V 5.7023146 h 2.22089 z m 15.64072,-6.591784 q 0,3.225012 -1.65385,5.091503 -1.65385,1.866491 -4.42996,1.866491 -2.79974,0 -4.45359,-1.866491 -1.64204,-1.866491 -1.64204,-5.091503 0,-3.2250128 1.64204,-5.0915036 1.65385,-1.878304 4.45359,-1.878304 2.77611,0 4.42996,1.878304 1.65385,1.8664908 1.65385,5.0915036 z m -2.29176,0 q 0,-2.5634718 -1.00413,-3.8038612 -1.00412,-1.2522027 -2.78792,-1.2522027 -1.80743,0 -2.81155,1.2522027 -0.99231,1.2403894 -0.99231,3.8038612 0,2.480779 1.00412,3.768421 1.00413,1.275829 2.79974,1.275829 1.77198,0 2.77611,-1.264016 1.01594,-1.275829 1.01594,-3.780234 z m 16.76297,6.591784 h -2.22089 V 11.38448 q 0,-0.909619 -0.10632,-1.7011059 -0.10631,-0.8032999 -0.38983,-1.2522027 -0.29533,-0.4961558 -0.85055,-0.7324204 -0.55523,-0.2480779 -1.44122,-0.2480779 -0.90962,0 -1.90193,0.4489028 -0.99231,0.4489029 -1.90193,1.1458836 V 18.897696 H 197.0061 V 5.7023146 h 2.22089 v 1.4648409 q 1.03956,-0.862366 2.15001,-1.3467085 1.11044,-0.4843426 2.27995,-0.4843426 2.1382,0 3.26045,1.2876424 1.12226,1.2876424 1.12226,3.7093552 z M 223.20785,3.4932401 h -2.5044 V 1.1896598 h 2.5044 z M 223.06609,18.897696 H 220.8452 V 5.7023146 h 2.22089 z m 15.42808,0 h -2.22088 V 11.38448 q 0,-0.909619 -0.10632,-1.7011059 -0.10632,-0.8032999 -0.38984,-1.2522027 -0.29533,-0.4961558 -0.85055,-0.7324204 -0.55522,-0.2480779 -1.44122,-0.2480779 -0.90961,0 -1.90193,0.4489028 -0.99231,0.4489029 -1.90193,1.1458836 v 9.8522365 h -2.22088 V 5.7023146 h 2.22088 v 1.4648409 q 1.03957,-0.862366 2.15001,-1.3467085 1.11045,-0.4843426 2.27996,-0.4843426 2.13819,0 3.26045,1.2876424 1.12225,1.2876424 1.12225,3.7093552 z m 32.03749,0 h -2.22089 V 11.38448 q 0,-0.850553 -0.0827,-1.6420398 -0.0709,-0.7914866 -0.31896,-1.2640159 -0.2717,-0.507969 -0.77967,-0.7678601 -0.50797,-0.2598911 -1.46484,-0.2598911 -0.93325,0 -1.86649,0.4725293 -0.93325,0.4607161 -1.86649,1.1813233 0.0354,0.2717043 0.0591,0.6379145 0.0236,0.3543968 0.0236,0.7087938 v 8.446462 h -2.22089 V 11.38448 q 0,-0.87418 -0.0827,-1.653853 -0.0709,-0.7914866 -0.31896,-1.2640159 -0.2717,-0.507969 -0.77967,-0.7560469 -0.50797,-0.2598911 -1.46484,-0.2598911 -0.90962,0 -1.83105,0.4489028 -0.90962,0.4489029 -1.81924,1.1458836 v 9.8522365 h -2.22089 V 5.7023146 h 2.22089 v 1.4648409 q 1.03956,-0.862366 2.06731,-1.3467085 1.03957,-0.4843426 2.20908,-0.4843426 1.34671,0 2.27995,0.5670352 0.94506,0.5670352 1.40578,1.5711599 1.34671,-1.1340703 2.45715,-1.6302261 1.11044,-0.507969 2.37446,-0.507969 2.17363,0 3.20139,1.3230821 1.03956,1.3112688 1.03956,3.6739155 z m 23.53197,0 h -2.22089 V 11.38448 q 0,-0.850553 -0.0827,-1.6420398 -0.0709,-0.7914866 -0.31896,-1.2640159 -0.2717,-0.507969 -0.77967,-0.7678601 -0.50797,-0.2598911 -1.46484,-0.2598911 -0.93325,0 -1.8665,0.4725293 -0.93324,0.4607161 -1.86649,1.1813233 0.0354,0.2717043 0.0591,0.6379145 0.0236,0.3543968 0.0236,0.7087938 v 8.446462 H 283.3254 V 11.38448 q 0,-0.87418 -0.0827,-1.653853 -0.0709,-0.7914866 -0.31896,-1.2640159 -0.27171,-0.507969 -0.77967,-0.7560469 -0.50797,-0.2598911 -1.46485,-0.2598911 -0.90961,0 -1.83105,0.4489028 -0.90962,0.4489029 -1.81923,1.1458836 v 9.8522365 h -2.22089 V 5.7023146 h 2.22089 v 1.4648409 q 1.03956,-0.862366 2.06731,-1.3467085 1.03957,-0.4843426 2.20908,-0.4843426 1.3467,0 2.27995,0.5670352 0.94506,0.5670352 1.40577,1.5711599 1.34671,-1.1340703 2.45716,-1.6302261 1.11044,-0.507969 2.37446,-0.507969 2.17363,0 3.20138,1.3230821 1.03957,1.3112688 1.03957,3.6739155 z m 19.84622,4.867051 h -2.70523 q -2.09095,-2.398086 -3.24864,-5.233262 -1.1577,-2.835176 -1.1577,-6.390959 0,-3.5557826 1.1577,-6.3909584 1.15769,-2.8351759 3.24864,-5.2332621 h 2.70523 v 0.11813233 q -0.95687,0.86236597 -1.83105,1.99643627 -0.86237,1.1222572 -1.6066,2.6225377 -0.7088,1.4530276 -1.1577,3.2013861 -0.43709,1.7483581 -0.43709,3.6857281 0,2.020063 0.42528,3.697542 0.43709,1.677479 1.16951,3.189573 0.70879,1.453028 1.61841,2.622538 0.90962,1.181323 1.81924,1.996436 z M 329.24343,5.7023146 321.5412,23.764747 h -2.37446 l 2.45715,-5.504966 -5.25688,-12.5574664 h 2.4099 l 4.05193,9.7813564 4.08738,-9.7813564 z M 350.9089,18.897696 h -2.20908 v -1.405775 q -0.29533,0.200825 -0.8033,0.567035 -0.49615,0.354397 -0.96868,0.567035 -0.55522,0.271705 -1.27583,0.448903 -0.72061,0.189012 -1.68929,0.189012 -1.7838,0 -3.02419,-1.181324 -1.24039,-1.181323 -1.24039,-3.012374 0,-1.50028 0.63792,-2.421713 0.64972,-0.933245 1.84286,-1.46484 1.20495,-0.531596 2.89424,-0.720608 1.68929,-0.189011 3.62666,-0.283517 V 9.8369461 q 0,-0.7560469 -0.2717,-1.2522027 -0.25989,-0.4961558 -0.75605,-0.7796733 -0.47253,-0.2717044 -1.13407,-0.3662103 -0.66154,-0.094506 -1.38215,-0.094506 -0.87417,0 -1.94918,0.2362646 -1.075,0.2244515 -2.22089,0.6615411 h -0.11813 V 5.9858322 q 0.64973,-0.1771985 1.8783,-0.3898367 1.22858,-0.2126381 2.42172,-0.2126381 1.39396,0 2.42171,0.2362646 1.03956,0.2244514 1.79561,0.7796734 0.74424,0.5434087 1.13407,1.4057747 0.38984,0.8623659 0.38984,2.1381951 z m -2.20908,-3.248639 v -3.673916 q -1.01593,0.05907 -2.39808,0.177199 -1.37034,0.118132 -2.17364,0.342583 -0.95687,0.271705 -1.54753,0.850553 -0.59066,0.567035 -0.59066,1.57116 0,1.13407 0.68517,1.712919 0.68516,0.567035 2.09094,0.567035 1.16951,0 2.13819,-0.448903 0.96869,-0.460716 1.79561,-1.09863 z m 17.90886,3.248639 h -2.79973 l -3.7448,-5.067877 -3.76842,5.067877 h -2.5871 l 5.15057,-6.579971 -5.10332,-6.6154104 h 2.79974 l 3.72117,4.9851844 3.73298,-4.9851844 h 2.59891 l -5.18601,6.4972784 z M 371.8892,3.4932401 h -2.5044 V 1.1896598 h 2.5044 z m -0.14176,15.4044559 h -2.22089 V 5.7023146 h 2.22089 z m 13.82149,-3.803861 q 0,1.807424 -1.50028,2.965121 -1.48847,1.157697 -4.07557,1.157697 -1.46484,0 -2.69342,-0.342584 -1.21676,-0.354397 -2.04369,-0.76786 v -2.492592 h 0.11814 q 1.05137,0.791486 2.33902,1.264016 1.28764,0.460716 2.46896,0.460716 1.46484,0 2.29177,-0.472529 0.82693,-0.47253 0.82693,-1.488468 0,-0.779673 -0.44891,-1.181323 -0.4489,-0.40165 -1.72473,-0.685168 -0.47253,-0.106319 -1.24039,-0.248077 -0.75605,-0.141759 -1.38215,-0.307144 -1.73654,-0.460717 -2.46896,-1.346709 -0.72061,-0.897806 -0.72061,-2.1972613 0,-0.8151131 0.33077,-1.5357202 0.34258,-0.7206072 1.02775,-1.2876424 0.66154,-0.5552219 1.67748,-0.8741792 1.02775,-0.3307705 2.29177,-0.3307705 1.18132,0 2.38627,0.2953308 1.21676,0.2835176 2.02006,0.6969807 v 2.3744598 h -0.11813 q -0.85055,-0.6261014 -2.06731,-1.0513777 -1.21677,-0.4370896 -2.38628,-0.4370896 -1.21676,0 -2.0555,0.4725293 -0.83874,0.460716 -0.83874,1.3821482 0,0.815113 0.50797,1.2285761 0.49616,0.413463 1.6066,0.673354 0.61429,0.141759 1.37033,0.283518 0.76786,0.141759 1.27583,0.259891 1.54754,0.354397 2.38628,1.216763 0.83874,0.874179 0.83874,2.315394 z m 9.84041,-2.953309 q 0,3.555783 -1.1577,6.390959 -1.1577,2.835176 -3.24864,5.233262 h -2.70523 v -0.118132 q 0.90962,-0.815113 1.81924,-1.996436 0.92143,-1.16951 1.61841,-2.622538 0.73242,-1.512094 1.1577,-3.189573 0.43709,-1.677479 0.43709,-3.697542 0,-1.93737 -0.43709,-3.6857281 -0.43709,-1.7483585 -1.1577,-3.2013861 -0.74423,-1.5002805 -1.61841,-2.6225377 -0.86237,-1.1340703 -1.81924,-1.99643627 V 0.5163055 h 2.70523 q 2.09094,2.3980862 3.24864,5.2332621 1.1577,2.8351758 1.1577,6.3909584 z"
       id="text77-4"
       style="font-size:24.1935px;text-anchor:middle"
       transform="rotate(-90)"
       aria-label="position in mm (y axis)" /><path
       d="m 589.0867,-51.012548 q 0,1.6066 -0.46072,2.941495 -0.46072,1.323082 -1.29946,2.244514 -0.77967,0.87418 -1.84286,1.358522 -1.05138,0.472529 -2.2327,0.472529 -1.02775,0 -1.86649,-0.224451 -0.82693,-0.224451 -1.68929,-0.696981 v 5.528593 h -2.22089 V -57.45076 h 2.22089 v 1.382149 q 0.88599,-0.744234 1.98462,-1.24039 1.11044,-0.507969 2.36265,-0.507969 2.38627,0 3.70935,1.807425 1.3349,1.795611 1.3349,4.996997 z m -2.29177,0.05907 q 0,-2.386273 -0.81511,-3.567596 -0.81512,-1.181323 -2.50441,-1.181323 -0.95687,0 -1.92556,0.413463 -0.96868,0.413463 -1.85467,1.086817 v 7.477777 q 0.94505,0.425276 1.61841,0.578848 0.68517,0.153572 1.54753,0.153572 1.85468,0 2.89424,-1.252203 1.03957,-1.252202 1.03957,-3.709355 z m 16.99924,0.106319 q 0,3.225013 -1.65385,5.091504 -1.65385,1.86649 -4.42996,1.86649 -2.79974,0 -4.45359,-1.86649 -1.64204,-1.866491 -1.64204,-5.091504 0,-3.225012 1.64204,-5.091503 1.65385,-1.878304 4.45359,-1.878304 2.77611,0 4.42996,1.878304 1.65385,1.866491 1.65385,5.091503 z m -2.29177,0 q 0,-2.563471 -1.00412,-3.80386 -1.00413,-1.252203 -2.78792,-1.252203 -1.80743,0 -2.81155,1.252203 -0.99232,1.240389 -0.99232,3.80386 0,2.480779 1.00413,3.768422 1.00412,1.275829 2.79974,1.275829 1.77198,0 2.77611,-1.264016 1.01593,-1.275829 1.01593,-3.780235 z m 15.15638,2.787923 q 0,1.807425 -1.50028,2.965122 -1.48847,1.157697 -4.07556,1.157697 -1.46484,0 -2.69342,-0.342584 -1.21676,-0.354397 -2.04369,-0.76786 v -2.492592 h 0.11813 q 1.05138,0.791486 2.33902,1.264015 1.28764,0.460717 2.46897,0.460717 1.46484,0 2.29177,-0.47253 0.82692,-0.472529 0.82692,-1.488467 0,-0.779673 -0.4489,-1.181323 -0.4489,-0.40165 -1.72473,-0.685168 -0.47253,-0.106319 -1.24039,-0.248078 -0.75605,-0.141759 -1.38215,-0.307144 -1.73655,-0.460716 -2.46897,-1.346708 -0.7206,-0.897806 -0.7206,-2.197262 0,-0.815113 0.33077,-1.53572 0.34258,-0.720607 1.02775,-1.287642 0.66154,-0.555222 1.67748,-0.874179 1.02775,-0.330771 2.29176,-0.330771 1.18133,0 2.38628,0.295331 1.21676,0.283517 2.02006,0.696981 v 2.374459 h -0.11813 q -0.85056,-0.626101 -2.06732,-1.051377 -1.21676,-0.43709 -2.38627,-0.43709 -1.21676,0 -2.0555,0.472529 -0.83874,0.460716 -0.83874,1.382149 0,0.815113 0.50797,1.228576 0.49615,0.413463 1.6066,0.673354 0.61428,0.141759 1.37033,0.283518 0.76786,0.141758 1.27583,0.259891 1.54753,0.354397 2.38627,1.216763 0.83874,0.874179 0.83874,2.315393 z m 5.56403,-11.600594 h -2.5044 v -2.303581 h 2.5044 z m -0.14176,15.404455 h -2.22088 V -57.45076 h 2.22088 z m 11.2462,-0.118132 q -0.6261,0.165385 -1.37033,0.271704 -0.73242,0.106319 -1.31127,0.106319 -2.02006,0 -3.07144,-1.086817 -1.05138,-1.086817 -1.05138,-3.484904 v -7.01706 h -1.50028 v -1.866491 h 1.50028 v -3.792047 h 2.22089 v 3.792047 h 4.58353 v 1.866491 h -4.58353 v 6.012936 q 0,1.039564 0.0472,1.630226 0.0472,0.578848 0.33077,1.086817 0.25989,0.472529 0.7088,0.696981 0.46071,0.212638 1.39396,0.212638 0.54341,0 1.13407,-0.153572 0.59066,-0.165385 0.85055,-0.271704 h 0.11813 z m 5.06788,-15.286323 h -2.50441 v -2.303581 h 2.50441 z m -0.14176,15.404455 h -2.22089 V -57.45076 h 2.22089 z m 15.64072,-6.591784 q 0,3.225013 -1.65385,5.091504 -1.65385,1.86649 -4.42996,1.86649 -2.79974,0 -4.45359,-1.86649 -1.64204,-1.866491 -1.64204,-5.091504 0,-3.225012 1.64204,-5.091503 1.65385,-1.878304 4.45359,-1.878304 2.77611,0 4.42996,1.878304 1.65385,1.866491 1.65385,5.091503 z m -2.29176,0 q 0,-2.563471 -1.00413,-3.80386 -1.00412,-1.252203 -2.78792,-1.252203 -1.80743,0 -2.81155,1.252203 -0.99231,1.240389 -0.99231,3.80386 0,2.480779 1.00412,3.768422 1.00413,1.275829 2.79974,1.275829 1.77198,0 2.77611,-1.264016 1.01594,-1.275829 1.01594,-3.780235 z m 16.76297,6.591784 h -2.22089 v -7.513216 q 0,-0.909619 -0.10632,-1.701105 -0.10632,-0.8033 -0.38983,-1.252203 -0.29533,-0.496156 -0.85056,-0.73242 -0.55522,-0.248078 -1.44121,-0.248078 -0.90962,0 -1.90193,0.448903 -0.99231,0.448902 -1.90193,1.145883 v 9.852236 h -2.22089 V -57.45076 h 2.22089 v 1.464841 q 1.03956,-0.862366 2.15001,-1.346708 1.11044,-0.484343 2.27995,-0.484343 2.1382,0 3.26045,1.287643 1.12226,1.287642 1.12226,3.709355 z m 15.16819,-15.404455 h -2.50441 v -2.303581 h 2.50441 z m -0.14176,15.404455 h -2.22089 V -57.45076 h 2.22089 z m 15.42808,0 h -2.22088 v -7.513216 q 0,-0.909619 -0.10632,-1.701105 -0.10632,-0.8033 -0.38984,-1.252203 -0.29533,-0.496156 -0.85055,-0.73242 -0.55522,-0.248078 -1.44122,-0.248078 -0.90962,0 -1.90193,0.448903 -0.99231,0.448902 -1.90193,1.145883 v 9.852236 h -2.22089 V -57.45076 h 2.22089 v 1.464841 q 1.03957,-0.862366 2.15001,-1.346708 1.11044,-0.484343 2.27995,-0.484343 2.1382,0 3.26046,1.287643 1.12225,1.287642 1.12225,3.709355 z m 32.03749,0 h -2.22089 v -7.513216 q 0,-0.850552 -0.0827,-1.642039 -0.0709,-0.791487 -0.31896,-1.264016 -0.2717,-0.507969 -0.77967,-0.76786 -0.50797,-0.259891 -1.46484,-0.259891 -0.93325,0 -1.86649,0.472529 -0.93325,0.460716 -1.86649,1.181323 0.0354,0.271705 0.0591,0.637915 0.0236,0.354397 0.0236,0.708794 v 8.446461 h -2.22089 v -7.513216 q 0,-0.874179 -0.0827,-1.653852 -0.0709,-0.791487 -0.31896,-1.264016 -0.2717,-0.507969 -0.77967,-0.756047 -0.50797,-0.259891 -1.46484,-0.259891 -0.90962,0 -1.83105,0.448903 -0.90962,0.448902 -1.81924,1.145883 v 9.852236 h -2.22089 V -57.45076 h 2.22089 v 1.464841 q 1.03956,-0.862366 2.06731,-1.346708 1.03957,-0.484343 2.20908,-0.484343 1.34671,0 2.27995,0.567035 0.94506,0.567036 1.40578,1.57116 1.3467,-1.13407 2.45715,-1.630226 1.11044,-0.507969 2.37446,-0.507969 2.17363,0 3.20138,1.323082 1.03957,1.311269 1.03957,3.673916 z m 23.53197,0 h -2.22089 v -7.513216 q 0,-0.850552 -0.0827,-1.642039 -0.0709,-0.791487 -0.31896,-1.264016 -0.27171,-0.507969 -0.77967,-0.76786 -0.50797,-0.259891 -1.46485,-0.259891 -0.93324,0 -1.86649,0.472529 -0.93324,0.460716 -1.86649,1.181323 0.0354,0.271705 0.0591,0.637915 0.0236,0.354397 0.0236,0.708794 v 8.446461 h -2.22089 v -7.513216 q 0,-0.874179 -0.0827,-1.653852 -0.0709,-0.791487 -0.31896,-1.264016 -0.27171,-0.507969 -0.77968,-0.756047 -0.50796,-0.259891 -1.46484,-0.259891 -0.90962,0 -1.83105,0.448903 -0.90962,0.448902 -1.81924,1.145883 v 9.852236 H 735.1337 V -57.45076 h 2.22088 v 1.464841 q 1.03957,-0.862366 2.06732,-1.346708 1.03956,-0.484343 2.20907,-0.484343 1.34671,0 2.27996,0.567035 0.94506,0.567036 1.40577,1.57116 1.34671,-1.13407 2.45716,-1.630226 1.11044,-0.507969 2.37446,-0.507969 2.17363,0 3.20138,1.323082 1.03957,1.311269 1.03957,3.673916 z m 19.84622,4.867052 h -2.70523 q -2.09095,-2.398086 -3.24864,-5.233262 -1.1577,-2.835176 -1.1577,-6.390959 0,-3.555783 1.1577,-6.390959 1.15769,-2.835176 3.24864,-5.233262 h 2.70523 v 0.118133 q -0.95688,0.862366 -1.83106,1.996436 -0.86236,1.122257 -1.60659,2.622538 -0.7088,1.453027 -1.1577,3.201386 -0.43709,1.748358 -0.43709,3.685728 0,2.020063 0.42527,3.697542 0.43709,1.677479 1.16952,3.189573 0.70879,1.453027 1.61841,2.622537 0.90962,1.181324 1.81924,1.996437 z m 13.49071,-4.867052 h -10.65553 v -1.642039 l 7.69041,-9.698664 h -7.52503 v -1.854678 h 10.28933 v 1.582974 l -7.72586,9.734103 h 7.92668 z m 21.90174,0 h -2.20908 v -1.405774 q -0.29533,0.200825 -0.80329,0.567035 -0.49616,0.354397 -0.96869,0.567035 -0.55522,0.271704 -1.27583,0.448903 -0.72061,0.189011 -1.68929,0.189011 -1.7838,0 -3.02419,-1.181323 -1.24039,-1.181323 -1.24039,-3.012374 0,-1.500281 0.63792,-2.421713 0.64972,-0.933245 1.84286,-1.464841 1.20495,-0.531595 2.89424,-0.720607 1.68929,-0.189012 3.62666,-0.283517 v -0.342584 q 0,-0.756047 -0.2717,-1.252203 -0.25989,-0.496156 -0.75605,-0.779673 -0.47253,-0.271705 -1.13407,-0.36621 -0.66154,-0.09451 -1.38214,-0.09451 -0.87418,0 -1.94919,0.236264 -1.075,0.224452 -2.22089,0.661541 h -0.11813 v -2.256327 q 0.64973,-0.177199 1.87831,-0.389837 1.22857,-0.212638 2.42171,-0.212638 1.39396,0 2.42171,0.236265 1.03957,0.224451 1.79561,0.779673 0.74424,0.543409 1.13407,1.405775 0.38984,0.862366 0.38984,2.138195 z m -2.20908,-3.248639 v -3.673915 q -1.01593,0.05907 -2.39808,0.177198 -1.37034,0.118133 -2.17364,0.342584 -0.95687,0.271705 -1.54753,0.850553 -0.59066,0.567035 -0.59066,1.57116 0,1.13407 0.68517,1.712919 0.68516,0.567035 2.09094,0.567035 1.16951,0 2.13819,-0.448903 0.96869,-0.460716 1.79561,-1.098631 z m 17.90886,3.248639 h -2.79973 l -3.7448,-5.067877 -3.76842,5.067877 h -2.5871 l 5.15057,-6.57997 -5.10331,-6.615411 h 2.79973 l 3.72117,4.985185 3.73298,-4.985185 h 2.59891 l -5.18601,6.497278 z m 5.28052,-15.404455 h -2.5044 v -2.303581 h 2.5044 z m -0.14176,15.404455 H 828.2456 V -57.45076 h 2.22088 z m 13.82149,-3.803861 q 0,1.807425 -1.50028,2.965122 -1.48847,1.157697 -4.07557,1.157697 -1.46484,0 -2.69342,-0.342584 -1.21676,-0.354397 -2.04369,-0.76786 v -2.492592 h 0.11814 q 1.05137,0.791486 2.33902,1.264015 1.28764,0.460717 2.46896,0.460717 1.46484,0 2.29177,-0.47253 0.82693,-0.472529 0.82693,-1.488467 0,-0.779673 -0.44891,-1.181323 -0.4489,-0.40165 -1.72473,-0.685168 -0.47253,-0.106319 -1.24039,-0.248078 -0.75604,-0.141759 -1.38215,-0.307144 -1.73654,-0.460716 -2.46896,-1.346708 -0.72061,-0.897806 -0.72061,-2.197262 0,-0.815113 0.33077,-1.53572 0.34259,-0.720607 1.02775,-1.287642 0.66154,-0.555222 1.67748,-0.874179 1.02775,-0.330771 2.29177,-0.330771 1.18132,0 2.38627,0.295331 1.21676,0.283517 2.02006,0.696981 v 2.374459 h -0.11813 q -0.85055,-0.626101 -2.06731,-1.051377 -1.21677,-0.43709 -2.38628,-0.43709 -1.21676,0 -2.0555,0.472529 -0.83874,0.460716 -0.83874,1.382149 0,0.815113 0.50797,1.228576 0.49616,0.413463 1.6066,0.673354 0.61429,0.141759 1.37034,0.283518 0.76786,0.141758 1.27582,0.259891 1.54754,0.354397 2.38628,1.216763 0.83874,0.874179 0.83874,2.315393 z m 9.84041,-2.953308 q 0,3.555783 -1.1577,6.390959 -1.1577,2.835176 -3.24864,5.233262 h -2.70523 v -0.118132 q 0.90962,-0.815113 1.81924,-1.996437 0.92143,-1.16951 1.61841,-2.622537 0.73242,-1.512094 1.1577,-3.189573 0.43709,-1.677479 0.43709,-3.697542 0,-1.93737 -0.43709,-3.685728 -0.43709,-1.748359 -1.1577,-3.201386 -0.74423,-1.500281 -1.61841,-2.622538 -0.86237,-1.13407 -1.81924,-1.996436 v -0.118133 h 2.70523 q 2.09094,2.398086 3.24864,5.233262 1.1577,2.835176 1.1577,6.390959 z"
       id="text78-6"
       style="font-size:24.1935px;text-anchor:middle"
       aria-label="position in mm (z axis)" /><line
       opacity="0.2"
       stroke="#000000"
       stroke-width="1"
       x1="222.77769"
       y1="-107.25538"
       x2="222.77769"
       y2="-406.25537"
       id="line78-0" /><line
       opacity="0.2"
       stroke="#000000"
       stroke-width="1"
       x1="576.77771"
       y1="-107.25538"
       x2="576.77771"
       y2="-406.25537"
       id="line79-6" /><line
       opacity="0.2"
       stroke="#000000"
       stroke-width="1"
       x1="930.77771"
       y1="-107.25538"
       x2="930.77771"
       y2="-406.25537"
       id="line80-6" /><line
       opacity="0.2"
       stroke="#000000"
       stroke-width="1"
       x1="1284.7777"
       y1="-107.25538"
       x2="1284.7777"
       y2="-406.25537"
       id="line81-1" /><line
       opacity="0.2"
       stroke="#000000"
       stroke-width="1"
       x1="115.77769"
       y1="-129.25539"
       x2="1314.7777"
       y2="-129.25539"
       id="line82-8" /><line
       opacity="0.2"
       stroke="#000000"
       stroke-width="1"
       x1="115.77769"
       y1="-200.25539"
       x2="1314.7777"
       y2="-200.25539"
       id="line83-4" /><line
       opacity="0.2"
       stroke="#000000"
       stroke-width="1"
       x1="115.77769"
       y1="-271.25537"
       x2="1314.7777"
       y2="-271.25537"
       id="line84-9" /><line
       opacity="0.2"
       stroke="#000000"
       stroke-width="1"
       x1="115.77769"
       y1="-341.25537"
       x2="1314.7777"
       y2="-341.25537"
       id="line85-6" /><polyline
       fill="none"
       opacity="1"
       stroke="#000000"
       stroke-width="1"
       points="115,40 115,339 "
       id="polyline85-3"
       transform="translate(-0.22230822,-446.25538)" /><path
       d="M 42.446947,-132.88261 H 35.07549 v -2.13819 h 7.371457 z m 15.617093,6.62722 H 46.156302 v -2.46896 q 1.240389,-1.06319 2.480778,-2.12638 1.252203,-1.06319 2.327207,-2.11457 2.268141,-2.19726 3.10688,-3.48491 0.83874,-1.29945 0.83874,-2.79973 0,-1.37034 -0.909619,-2.1382 -0.897806,-0.77967 -2.516218,-0.77967 -1.075005,0 -2.327207,0.37802 -1.252203,0.37803 -2.44534,1.1577 h -0.118132 v -2.48078 q 0.83874,-0.41346 2.232701,-0.75605 1.405775,-0.34258 2.717044,-0.34258 2.70523,0 4.24095,1.31127 1.53572,1.29945 1.53572,3.53216 0,1.00412 -0.259891,1.8783 -0.248078,0.86237 -0.744233,1.64204 -0.460716,0.73242 -1.086818,1.44121 -0.614288,0.7088 -1.50028,1.57116 -1.264016,1.24039 -2.610725,2.4099 -1.346708,1.1577 -2.516218,2.15001 h 9.462399 z m 15.357202,-8.80085 q 0,4.7371 -1.488468,6.95799 -1.476654,2.20907 -4.595347,2.20907 -3.165947,0 -4.630787,-2.24451 -1.453028,-2.24451 -1.453028,-6.89893 0,-4.68985 1.476654,-6.92255 1.476654,-2.24452 4.607161,-2.24452 3.165946,0 4.618974,2.27996 1.464841,2.26814 1.464841,6.86349 z m -3.106881,5.3632 q 0.413463,-0.95687 0.555222,-2.24451 0.153572,-1.29946 0.153572,-3.11869 0,-1.79562 -0.153572,-3.1187 -0.141759,-1.32308 -0.567035,-2.24451 -0.413463,-0.90962 -1.13407,-1.37034 -0.708794,-0.46071 -1.831051,-0.46071 -1.110444,0 -1.842865,0.46071 -0.720607,0.46072 -1.145883,1.39396 -0.40165,0.87418 -0.555222,2.27996 -0.141759,1.40577 -0.141759,3.08325 0,1.84287 0.129946,3.08326 0.129945,1.24038 0.555222,2.22088 0.389836,0.92144 1.09863,1.40578 0.720607,0.48434 1.901931,0.48434 1.110444,0 1.842864,-0.46072 0.73242,-0.46071 1.13407,-1.39396 z m 18.487709,-5.3632 q 0,4.7371 -1.488467,6.95799 -1.476654,2.20907 -4.595347,2.20907 -3.165947,0 -4.630788,-2.24451 -1.453027,-2.24451 -1.453027,-6.89893 0,-4.68985 1.476654,-6.92255 1.476654,-2.24452 4.607161,-2.24452 3.165946,0 4.618974,2.27996 1.46484,2.26814 1.46484,6.86349 z m -3.10688,5.3632 q 0.413463,-0.95687 0.555222,-2.24451 0.153572,-1.29946 0.153572,-3.11869 0,-1.79562 -0.153572,-3.1187 -0.141759,-1.32308 -0.567035,-2.24451 -0.413463,-0.90962 -1.13407,-1.37034 -0.708794,-0.46071 -1.831051,-0.46071 -1.110444,0 -1.842865,0.46071 -0.720607,0.46072 -1.145883,1.39396 -0.40165,0.87418 -0.555222,2.27996 -0.141759,1.40577 -0.141759,3.08325 0,1.84287 0.129946,3.08326 0.129945,1.24038 0.555221,2.22088 0.389837,0.92144 1.098631,1.40578 0.720607,0.48434 1.901931,0.48434 1.110443,0 1.842864,-0.46072 0.73242,-0.46071 1.13407,-1.39396 z m 18.48771,-5.3632 q 0,4.7371 -1.48847,6.95799 -1.47665,2.20907 -4.595346,2.20907 -3.165946,0 -4.630787,-2.24451 -1.453027,-2.24451 -1.453027,-6.89893 0,-4.68985 1.476654,-6.92255 1.476654,-2.24452 4.60716,-2.24452 3.165946,0 4.618976,2.27996 1.46484,2.26814 1.46484,6.86349 z m -3.10688,5.3632 q 0.41346,-0.95687 0.55522,-2.24451 0.15357,-1.29946 0.15357,-3.11869 0,-1.79562 -0.15357,-3.1187 -0.14176,-1.32308 -0.56703,-2.24451 -0.41347,-0.90962 -1.134075,-1.37034 -0.708793,-0.46071 -1.831051,-0.46071 -1.110443,0 -1.842864,0.46071 -0.720607,0.46072 -1.145883,1.39396 -0.40165,0.87418 -0.555222,2.27996 -0.141759,1.40577 -0.141759,3.08325 0,1.84287 0.129945,3.08326 0.129946,1.24038 0.555222,2.22088 0.389837,0.92144 1.098631,1.40578 0.720607,0.48434 1.90193,0.48434 1.110444,0 1.842865,-0.46072 0.732421,-0.46071 1.134071,-1.39396 z"
       id="text85-7"
       style="font-size:24.1935px;text-anchor:end"
       aria-label="-2000" /><polyline
       fill="none"
       opacity="1"
       stroke="#000000"
       stroke-width="1"
       points="110,317 115,317 "
       id="polyline86-8"
       transform="translate(-0.22230822,-446.25538)" /><path
       d="M 42.446947,-203.88261 H 35.07549 v -2.13819 h 7.371457 z m 14.612968,6.62722 H 47.53845 v -1.79561 h 3.662102 v -11.7896 H 47.53845 v -1.6066 q 0.744233,0 1.594786,-0.11814 0.850553,-0.12994 1.287643,-0.36621 0.543408,-0.29533 0.850552,-0.74423 0.318958,-0.46072 0.366211,-1.22858 h 1.831051 v 15.85336 h 3.591222 z m 16.361327,-8.80085 q 0,4.7371 -1.488468,6.95799 -1.476654,2.20907 -4.595347,2.20907 -3.165947,0 -4.630787,-2.24451 -1.453028,-2.24451 -1.453028,-6.89893 0,-4.68985 1.476654,-6.92255 1.476654,-2.24452 4.607161,-2.24452 3.165946,0 4.618974,2.27996 1.464841,2.26814 1.464841,6.86349 z m -3.106881,5.3632 q 0.413463,-0.95687 0.555222,-2.24451 0.153572,-1.29946 0.153572,-3.11869 0,-1.79562 -0.153572,-3.1187 -0.141759,-1.32308 -0.567035,-2.24451 -0.413463,-0.90962 -1.13407,-1.37034 -0.708794,-0.46071 -1.831051,-0.46071 -1.110444,0 -1.842865,0.46071 -0.720607,0.46072 -1.145883,1.39396 -0.40165,0.87418 -0.555222,2.27996 -0.141759,1.40577 -0.141759,3.08325 0,1.84287 0.129946,3.08326 0.129945,1.24038 0.555222,2.22088 0.389836,0.92144 1.09863,1.40578 0.720607,0.48434 1.901931,0.48434 1.110444,0 1.842864,-0.46072 0.73242,-0.46071 1.13407,-1.39396 z m 18.487709,-5.3632 q 0,4.7371 -1.488467,6.95799 -1.476654,2.20907 -4.595347,2.20907 -3.165947,0 -4.630788,-2.24451 -1.453027,-2.24451 -1.453027,-6.89893 0,-4.68985 1.476654,-6.92255 1.476654,-2.24452 4.607161,-2.24452 3.165946,0 4.618974,2.27996 1.46484,2.26814 1.46484,6.86349 z m -3.10688,5.3632 q 0.413463,-0.95687 0.555222,-2.24451 0.153572,-1.29946 0.153572,-3.11869 0,-1.79562 -0.153572,-3.1187 -0.141759,-1.32308 -0.567035,-2.24451 -0.413463,-0.90962 -1.13407,-1.37034 -0.708794,-0.46071 -1.831051,-0.46071 -1.110444,0 -1.842865,0.46071 -0.720607,0.46072 -1.145883,1.39396 -0.40165,0.87418 -0.555222,2.27996 -0.141759,1.40577 -0.141759,3.08325 0,1.84287 0.129946,3.08326 0.129945,1.24038 0.555221,2.22088 0.389837,0.92144 1.098631,1.40578 0.720607,0.48434 1.901931,0.48434 1.110443,0 1.842864,-0.46072 0.73242,-0.46071 1.13407,-1.39396 z m 18.48771,-5.3632 q 0,4.7371 -1.48847,6.95799 -1.47665,2.20907 -4.595346,2.20907 -3.165946,0 -4.630787,-2.24451 -1.453027,-2.24451 -1.453027,-6.89893 0,-4.68985 1.476654,-6.92255 1.476654,-2.24452 4.60716,-2.24452 3.165946,0 4.618976,2.27996 1.46484,2.26814 1.46484,6.86349 z m -3.10688,5.3632 q 0.41346,-0.95687 0.55522,-2.24451 0.15357,-1.29946 0.15357,-3.11869 0,-1.79562 -0.15357,-3.1187 -0.14176,-1.32308 -0.56703,-2.24451 -0.41347,-0.90962 -1.134075,-1.37034 -0.708793,-0.46071 -1.831051,-0.46071 -1.110443,0 -1.842864,0.46071 -0.720607,0.46072 -1.145883,1.39396 -0.40165,0.87418 -0.555222,2.27996 -0.141759,1.40577 -0.141759,3.08325 0,1.84287 0.129945,3.08326 0.129946,1.24038 0.555222,2.22088 0.389837,0.92144 1.098631,1.40578 0.720607,0.48434 1.90193,0.48434 1.110444,0 1.842865,-0.46072 0.732421,-0.46071 1.134071,-1.39396 z"
       id="text86-8"
       style="font-size:24.1935px;text-anchor:end"
       aria-label="-1000" /><polyline
       fill="none"
       opacity="1"
       stroke="#000000"
       stroke-width="1"
       points="110,246 115,246 "
       id="polyline87-2"
       transform="translate(-0.22230822,-446.25538)" /><path
       d="m 104.1829,-277.05623 q 0,4.73711 -1.48847,6.95799 -1.47665,2.20908 -4.595344,2.20908 -3.165947,0 -4.630787,-2.24452 -1.453028,-2.24451 -1.453028,-6.89892 0,-4.68986 1.476654,-6.92256 1.476654,-2.24451 4.607161,-2.24451 3.165944,0 4.618974,2.27995 1.46484,2.26814 1.46484,6.86349 z m -3.10688,5.36321 q 0.41346,-0.95687 0.55522,-2.24452 0.15357,-1.29945 0.15357,-3.11869 0,-1.79561 -0.15357,-3.11869 -0.14176,-1.32308 -0.56703,-2.24452 -0.41347,-0.90962 -1.134073,-1.37033 -0.708794,-0.46072 -1.831051,-0.46072 -1.110444,0 -1.842864,0.46072 -0.720608,0.46071 -1.145884,1.39396 -0.40165,0.87418 -0.555222,2.27995 -0.141759,1.40578 -0.141759,3.08326 0,1.84286 0.129946,3.08325 0.129945,1.24039 0.555222,2.22089 0.389836,0.92143 1.09863,1.40577 0.720608,0.48435 1.901931,0.48435 1.110444,0 1.842864,-0.46072 0.73242,-0.46072 1.13407,-1.39396 z"
       id="text87-9"
       style="font-size:24.1935px;text-anchor:end"
       aria-label="0" /><polyline
       fill="none"
       opacity="1"
       stroke="#000000"
       stroke-width="1"
       points="110,175 115,175 "
       id="polyline88-1"
       transform="translate(-0.22230822,-446.25538)" /><path
       d="M 57.059916,-338.25537 H 47.53845 v -1.79561 h 3.662102 v -11.78961 H 47.53845 v -1.6066 q 0.744234,0 1.594786,-0.11813 0.850553,-0.12995 1.287643,-0.36621 0.543408,-0.29533 0.850553,-0.74423 0.318957,-0.46072 0.36621,-1.22858 h 1.831051 v 15.85336 h 3.591223 z m 16.361327,-8.80086 q 0,4.73711 -1.488468,6.95799 -1.476654,2.20908 -4.595347,2.20908 -3.165946,0 -4.630787,-2.24452 -1.453028,-2.24451 -1.453028,-6.89892 0,-4.68986 1.476654,-6.92256 1.476654,-2.24451 4.607161,-2.24451 3.165946,0 4.618974,2.27995 1.464841,2.26814 1.464841,6.86349 z m -3.106881,5.36321 q 0.413464,-0.95687 0.555222,-2.24452 0.153572,-1.29945 0.153572,-3.11869 0,-1.79561 -0.153572,-3.11869 -0.141758,-1.32308 -0.567035,-2.24452 -0.413463,-0.90962 -1.13407,-1.37033 -0.708794,-0.46072 -1.831051,-0.46072 -1.110444,0 -1.842864,0.46072 -0.720608,0.46071 -1.145884,1.39396 -0.40165,0.87418 -0.555222,2.27995 -0.141759,1.40578 -0.141759,3.08326 0,1.84286 0.129946,3.08325 0.129945,1.24039 0.555222,2.22089 0.389836,0.92143 1.09863,1.40577 0.720608,0.48435 1.901931,0.48435 1.110444,0 1.842864,-0.46072 0.732421,-0.46072 1.13407,-1.39396 z m 18.48771,-5.36321 q 0,4.73711 -1.488468,6.95799 -1.476654,2.20908 -4.595347,2.20908 -3.165947,0 -4.630787,-2.24452 -1.453028,-2.24451 -1.453028,-6.89892 0,-4.68986 1.476654,-6.92256 1.476654,-2.24451 4.607161,-2.24451 3.165946,0 4.618974,2.27995 1.464841,2.26814 1.464841,6.86349 z m -3.106881,5.36321 q 0.413463,-0.95687 0.555222,-2.24452 0.153572,-1.29945 0.153572,-3.11869 0,-1.79561 -0.153572,-3.11869 -0.141759,-1.32308 -0.567035,-2.24452 -0.413463,-0.90962 -1.13407,-1.37033 -0.708794,-0.46072 -1.831051,-0.46072 -1.110444,0 -1.842865,0.46072 -0.720607,0.46071 -1.145883,1.39396 -0.40165,0.87418 -0.555222,2.27995 -0.141759,1.40578 -0.141759,3.08326 0,1.84286 0.129946,3.08325 0.129945,1.24039 0.555222,2.22089 0.389836,0.92143 1.09863,1.40577 0.720607,0.48435 1.901931,0.48435 1.110444,0 1.842864,-0.46072 0.73242,-0.46072 1.13407,-1.39396 z m 18.487709,-5.36321 q 0,4.73711 -1.48847,6.95799 -1.47665,2.20908 -4.595344,2.20908 -3.165947,0 -4.630788,-2.24452 -1.453027,-2.24451 -1.453027,-6.89892 0,-4.68986 1.476654,-6.92256 1.476654,-2.24451 4.607161,-2.24451 3.165944,0 4.618974,2.27995 1.46484,2.26814 1.46484,6.86349 z m -3.10688,5.36321 q 0.41346,-0.95687 0.55522,-2.24452 0.15357,-1.29945 0.15357,-3.11869 0,-1.79561 -0.15357,-3.11869 -0.14176,-1.32308 -0.56703,-2.24452 -0.41347,-0.90962 -1.134073,-1.37033 -0.708794,-0.46072 -1.831051,-0.46072 -1.110444,0 -1.842865,0.46072 -0.720607,0.46071 -1.145883,1.39396 -0.40165,0.87418 -0.555222,2.27995 -0.141759,1.40578 -0.141759,3.08326 0,1.84286 0.129946,3.08325 0.129945,1.24039 0.555221,2.22089 0.389837,0.92143 1.098631,1.40577 0.720607,0.48435 1.901931,0.48435 1.110443,0 1.842864,-0.46072 0.73242,-0.46072 1.13407,-1.39396 z"
       id="text88-3"
       style="font-size:24.1935px;text-anchor:end"
       aria-label="1000" /><polyline
       fill="none"
       opacity="1"
       stroke="#000000"
       stroke-width="1"
       points="110,105 115,105 "
       id="polyline89-5"
       transform="translate(-0.22230822,-446.25538)" /><polyline
       fill="none"
       opacity="1"
       stroke="#000000"
       stroke-width="1"
       points="116,340 1315,340 "
       id="polyline90-9"
       transform="translate(-0.22230822,-446.25538)" /><path
       d="m 195.70177,-85.762602 h -7.37146 v -2.138195 h 7.37146 z m 15.47533,1.039564 q 0,1.228576 -0.4489,2.350833 -0.44891,1.122258 -1.22858,1.890118 -0.85055,0.826926 -2.03188,1.275829 -1.16951,0.437089 -2.71704,0.437089 -1.44121,0 -2.77611,-0.307144 -1.33489,-0.29533 -2.25633,-0.720607 v -2.492592 h 0.16539 q 0.96868,0.614288 2.26814,1.051378 1.29946,0.425276 2.55166,0.425276 0.83874,0 1.61841,-0.236265 0.79149,-0.236264 1.40578,-0.826926 0.51978,-0.507969 0.77967,-1.216763 0.2717,-0.708794 0.2717,-1.642039 0,-0.909619 -0.31895,-1.53572 -0.30715,-0.626102 -0.86237,-1.004125 -0.61429,-0.448903 -1.50028,-0.626101 -0.87418,-0.189012 -1.961,-0.189012 -1.03956,0 -2.00825,0.141759 -0.95687,0.141758 -1.65385,0.283517 v -9.060749 h 10.58466 v 2.067315 h -8.3047 v 4.678041 q 0.50796,-0.04725 1.03956,-0.07088 0.5316,-0.02363 0.92143,-0.02363 1.4294,0 2.50441,0.248078 1.075,0.236264 1.97281,0.850552 0.94506,0.649728 1.46484,1.677479 0.51978,1.027752 0.51978,2.575285 z m 15.49896,-3.213199 q 0,4.737106 -1.48847,6.957994 -1.47665,2.209074 -4.59534,2.209074 -3.16595,0 -4.63079,-2.244514 -1.45303,-2.244514 -1.45303,-6.898928 0,-4.689853 1.47665,-6.922554 1.47666,-2.244514 4.60717,-2.244514 3.16594,0 4.61897,2.279954 1.46484,2.26814 1.46484,6.863488 z m -3.10688,5.363207 q 0.41346,-0.956871 0.55522,-2.244514 0.15357,-1.299455 0.15357,-3.118693 0,-1.795612 -0.15357,-3.118694 -0.14176,-1.323082 -0.56703,-2.244514 -0.41347,-0.909619 -1.13407,-1.370335 -0.7088,-0.460716 -1.83105,-0.460716 -1.11045,0 -1.84287,0.460716 -0.72061,0.460716 -1.14588,1.393962 -0.40165,0.874179 -0.55522,2.279954 -0.14176,1.405774 -0.14176,3.083253 0,1.842865 0.12994,3.083254 0.12995,1.240389 0.55522,2.220888 0.38984,0.921432 1.09863,1.405774 0.72061,0.484343 1.90194,0.484343 1.11044,0 1.84286,-0.460716 0.73242,-0.460716 1.13407,-1.393962 z m 18.48771,-5.363207 q 0,4.737106 -1.48847,6.957994 -1.47665,2.209074 -4.59535,2.209074 -3.16594,0 -4.63078,-2.244514 -1.45303,-2.244514 -1.45303,-6.898928 0,-4.689853 1.47665,-6.922554 1.47666,-2.244514 4.60716,-2.244514 3.16595,0 4.61898,2.279954 1.46484,2.26814 1.46484,6.863488 z m -3.10688,5.363207 q 0.41346,-0.956871 0.55522,-2.244514 0.15357,-1.299455 0.15357,-3.118693 0,-1.795612 -0.15357,-3.118694 -0.14176,-1.323082 -0.56703,-2.244514 -0.41347,-0.909619 -1.13407,-1.370335 -0.7088,-0.460716 -1.83106,-0.460716 -1.11044,0 -1.84286,0.460716 -0.72061,0.460716 -1.14588,1.393962 -0.40165,0.874179 -0.55523,2.279954 -0.14175,1.405774 -0.14175,3.083253 0,1.842865 0.12994,3.083254 0.12995,1.240389 0.55522,2.220888 0.38984,0.921432 1.09863,1.405774 0.72061,0.484343 1.90193,0.484343 1.11045,0 1.84287,-0.460716 0.73242,-0.460716 1.13407,-1.393962 z m 18.48771,-5.363207 q 0,4.737106 -1.48847,6.957994 -1.47665,2.209074 -4.59535,2.209074 -3.16594,0 -4.63078,-2.244514 -1.45303,-2.244514 -1.45303,-6.898928 0,-4.689853 1.47665,-6.922554 1.47666,-2.244514 4.60716,-2.244514 3.16595,0 4.61898,2.279954 1.46484,2.26814 1.46484,6.863488 z m -3.10688,5.363207 q 0.41346,-0.956871 0.55522,-2.244514 0.15357,-1.299455 0.15357,-3.118693 0,-1.795612 -0.15357,-3.118694 -0.14176,-1.323082 -0.56704,-2.244514 -0.41346,-0.909619 -1.13407,-1.370335 -0.70879,-0.460716 -1.83105,-0.460716 -1.11044,0 -1.84286,0.460716 -0.72061,0.460716 -1.14588,1.393962 -0.40165,0.874179 -0.55523,2.279954 -0.14176,1.405774 -0.14176,3.083253 0,1.842865 0.12995,3.083254 0.12995,1.240389 0.55522,2.220888 0.38984,0.921432 1.09863,1.405774 0.72061,0.484343 1.90193,0.484343 1.11045,0 1.84287,-0.460716 0.73242,-0.460716 1.13407,-1.393962 z"
       id="text90-8"
       style="font-size:24.1935px;text-anchor:middle"
       aria-label="-5000" /><path
       id="polyline91-4"
       transform="translate(-0.22230822,-438.25538)"
       style="opacity:1;fill:none;stroke:#000000"
       d="m 223,340 v 5" /><path
       d="m 582.87334,-87.936237 q 0,4.737106 -1.48847,6.957994 -1.47665,2.209074 -4.59535,2.209074 -3.16594,0 -4.63078,-2.244514 -1.45303,-2.244514 -1.45303,-6.898928 0,-4.689853 1.47665,-6.922554 1.47666,-2.244514 4.60716,-2.244514 3.16595,0 4.61898,2.279954 1.46484,2.26814 1.46484,6.863488 z m -3.10688,5.363207 q 0.41346,-0.956871 0.55522,-2.244514 0.15357,-1.299455 0.15357,-3.118693 0,-1.795612 -0.15357,-3.118694 -0.14176,-1.323082 -0.56704,-2.244514 -0.41346,-0.909619 -1.13407,-1.370335 -0.70879,-0.460716 -1.83105,-0.460716 -1.11044,0 -1.84286,0.460716 -0.72061,0.460716 -1.14588,1.393962 -0.40165,0.874179 -0.55523,2.279954 -0.14176,1.405774 -0.14176,3.083253 0,1.842865 0.12995,3.083254 0.12995,1.240389 0.55522,2.220888 0.38984,0.921432 1.09863,1.405774 0.72061,0.484343 1.90193,0.484343 1.11045,0 1.84287,-0.460716 0.73242,-0.460716 1.13407,-1.393962 z"
       id="text91-0"
       style="font-size:24.1935px;text-anchor:middle"
       aria-label="0" /><path
       id="polyline92-7"
       transform="translate(-0.22230822,-438.25538)"
       style="opacity:1;fill:none;stroke:#000000"
       d="m 577,340 v 5" /><path
       d="m 913.68396,-84.723038 q 0,1.228576 -0.4489,2.350833 -0.4489,1.122258 -1.22858,1.890118 -0.85055,0.826926 -2.03187,1.275829 -1.16951,0.437089 -2.71705,0.437089 -1.44121,0 -2.77611,-0.307144 -1.33489,-0.29533 -2.25632,-0.720607 v -2.492592 h 0.16538 q 0.96869,0.614288 2.26814,1.051378 1.29946,0.425276 2.55166,0.425276 0.83874,0 1.61841,-0.236265 0.79149,-0.236264 1.40578,-0.826926 0.51978,-0.507969 0.77967,-1.216763 0.27171,-0.708794 0.27171,-1.642039 0,-0.909619 -0.31896,-1.53572 -0.30715,-0.626102 -0.86237,-1.004125 -0.61429,-0.448903 -1.50028,-0.626101 -0.87418,-0.189012 -1.96099,-0.189012 -1.03957,0 -2.00825,0.141759 -0.95688,0.141758 -1.65386,0.283517 v -9.060749 h 10.58466 v 2.067315 h -8.3047 v 4.678041 q 0.50797,-0.04725 1.03956,-0.07088 0.5316,-0.02363 0.92143,-0.02363 1.42941,0 2.50441,0.248078 1.075,0.236264 1.97281,0.850552 0.94506,0.649728 1.46484,1.677479 0.51978,1.027752 0.51978,2.575285 z m 15.49896,-3.213199 q 0,4.737106 -1.48846,6.957994 -1.47666,2.209074 -4.59535,2.209074 -3.16595,0 -4.63079,-2.244514 -1.45303,-2.244514 -1.45303,-6.898928 0,-4.689853 1.47666,-6.922554 1.47665,-2.244514 4.60716,-2.244514 3.16594,0 4.61897,2.279954 1.46484,2.26814 1.46484,6.863488 z m -3.10688,5.363207 q 0.41347,-0.956871 0.55523,-2.244514 0.15357,-1.299455 0.15357,-3.118693 0,-1.795612 -0.15357,-3.118694 -0.14176,-1.323082 -0.56704,-2.244514 -0.41346,-0.909619 -1.13407,-1.370335 -0.70879,-0.460716 -1.83105,-0.460716 -1.11045,0 -1.84287,0.460716 -0.7206,0.460716 -1.14588,1.393962 -0.40165,0.874179 -0.55522,2.279954 -0.14176,1.405774 -0.14176,3.083253 0,1.842865 0.12995,3.083254 0.12994,1.240389 0.55522,2.220888 0.38983,0.921432 1.09863,1.405774 0.72061,0.484343 1.90193,0.484343 1.11044,0 1.84286,-0.460716 0.73242,-0.460716 1.13407,-1.393962 z m 18.48771,-5.363207 q 0,4.737106 -1.48846,6.957994 -1.47666,2.209074 -4.59535,2.209074 -3.16595,0 -4.63079,-2.244514 -1.45303,-2.244514 -1.45303,-6.898928 0,-4.689853 1.47666,-6.922554 1.47665,-2.244514 4.60716,-2.244514 3.16594,0 4.61897,2.279954 1.46484,2.26814 1.46484,6.863488 z m -3.10688,5.363207 q 0.41347,-0.956871 0.55522,-2.244514 0.15358,-1.299455 0.15358,-3.118693 0,-1.795612 -0.15358,-3.118694 -0.14175,-1.323082 -0.56703,-2.244514 -0.41346,-0.909619 -1.13407,-1.370335 -0.7088,-0.460716 -1.83105,-0.460716 -1.11045,0 -1.84287,0.460716 -0.7206,0.460716 -1.14588,1.393962 -0.40165,0.874179 -0.55522,2.279954 -0.14176,1.405774 -0.14176,3.083253 0,1.842865 0.12994,3.083254 0.12995,1.240389 0.55523,2.220888 0.38983,0.921432 1.09863,1.405774 0.7206,0.484343 1.90193,0.484343 1.11044,0 1.84286,-0.460716 0.73242,-0.460716 1.13407,-1.393962 z m 18.48771,-5.363207 q 0,4.737106 -1.48847,6.957994 -1.47665,2.209074 -4.59534,2.209074 -3.16595,0 -4.63079,-2.244514 -1.45303,-2.244514 -1.45303,-6.898928 0,-4.689853 1.47666,-6.922554 1.47665,-2.244514 4.60716,-2.244514 3.16594,0 4.61897,2.279954 1.46484,2.26814 1.46484,6.863488 z m -3.10688,5.363207 q 0.41346,-0.956871 0.55522,-2.244514 0.15357,-1.299455 0.15357,-3.118693 0,-1.795612 -0.15357,-3.118694 -0.14176,-1.323082 -0.56703,-2.244514 -0.41347,-0.909619 -1.13407,-1.370335 -0.7088,-0.460716 -1.83105,-0.460716 -1.11045,0 -1.84287,0.460716 -0.72061,0.460716 -1.14588,1.393962 -0.40165,0.874179 -0.55522,2.279954 -0.14176,1.405774 -0.14176,3.083253 0,1.842865 0.12994,3.083254 0.12995,1.240389 0.55523,2.220888 0.38983,0.921432 1.09863,1.405774 0.7206,0.484343 1.90193,0.484343 1.11044,0 1.84286,-0.460716 0.73242,-0.460716 1.13407,-1.393962 z"
       id="text92-6"
       style="font-size:24.1935px;text-anchor:middle"
       aria-label="5000" /><path
       id="polyline93-3"
       transform="translate(-0.22230822,-438.25538)"
       style="opacity:1;fill:none;stroke:#000000"
       d="m 931,340 v 5" /><path
       d="m 1259.1312,-79.135379 h -9.5215 v -1.795611 h 3.6621 v -11.789606 h -3.6621 v -1.6066 q 0.7442,0 1.5948,-0.118132 0.8506,-0.129946 1.2876,-0.366211 0.5435,-0.29533 0.8506,-0.744233 0.319,-0.460716 0.3662,-1.228576 h 1.8311 v 15.853358 h 3.5912 z m 16.3613,-8.800858 q 0,4.737106 -1.4885,6.957994 -1.4766,2.209074 -4.5953,2.209074 -3.166,0 -4.6308,-2.244514 -1.453,-2.244514 -1.453,-6.898928 0,-4.689853 1.4766,-6.922554 1.4767,-2.244514 4.6072,-2.244514 3.1659,0 4.619,2.279954 1.4648,2.26814 1.4648,6.863488 z m -3.1069,5.363207 q 0.4135,-0.956871 0.5553,-2.244514 0.1535,-1.299455 0.1535,-3.118693 0,-1.795612 -0.1535,-3.118694 -0.1418,-1.323082 -0.5671,-2.244514 -0.4134,-0.909619 -1.1341,-1.370335 -0.7087,-0.460716 -1.831,-0.460716 -1.1104,0 -1.8429,0.460716 -0.7206,0.460716 -1.1459,1.393962 -0.4016,0.874179 -0.5552,2.279954 -0.1417,1.405774 -0.1417,3.083253 0,1.842865 0.1299,3.083254 0.13,1.240389 0.5552,2.220888 0.3899,0.921432 1.0987,1.405774 0.7206,0.484343 1.9019,0.484343 1.1104,0 1.8429,-0.460716 0.7324,-0.460716 1.134,-1.393962 z m 18.4877,-5.363207 q 0,4.737106 -1.4884,6.957994 -1.4767,2.209074 -4.5954,2.209074 -3.1659,0 -4.6308,-2.244514 -1.453,-2.244514 -1.453,-6.898928 0,-4.689853 1.4767,-6.922554 1.4766,-2.244514 4.6071,-2.244514 3.166,0 4.619,2.279954 1.4648,2.26814 1.4648,6.863488 z m -3.1068,5.363207 q 0.4134,-0.956871 0.5552,-2.244514 0.1536,-1.299455 0.1536,-3.118693 0,-1.795612 -0.1536,-3.118694 -0.1418,-1.323082 -0.5671,-2.244514 -0.4134,-0.909619 -1.134,-1.370335 -0.7088,-0.460716 -1.8311,-0.460716 -1.1104,0 -1.8428,0.460716 -0.7206,0.460716 -1.1459,1.393962 -0.4017,0.874179 -0.5552,2.279954 -0.1418,1.405774 -0.1418,3.083253 0,1.842865 0.1299,3.083254 0.13,1.240389 0.5553,2.220888 0.3898,0.921432 1.0986,1.405774 0.7206,0.484343 1.9019,0.484343 1.1105,0 1.8429,-0.460716 0.7324,-0.460716 1.1341,-1.393962 z m 18.4877,-5.363207 q 0,4.737106 -1.4885,6.957994 -1.4767,2.209074 -4.5953,2.209074 -3.166,0 -4.6308,-2.244514 -1.4531,-2.244514 -1.4531,-6.898928 0,-4.689853 1.4767,-6.922554 1.4766,-2.244514 4.6072,-2.244514 3.1659,0 4.6189,2.279954 1.4649,2.26814 1.4649,6.863488 z m -3.1069,5.363207 q 0.4134,-0.956871 0.5552,-2.244514 0.1536,-1.299455 0.1536,-3.118693 0,-1.795612 -0.1536,-3.118694 -0.1418,-1.323082 -0.567,-2.244514 -0.4135,-0.909619 -1.1341,-1.370335 -0.7088,-0.460716 -1.831,-0.460716 -1.1105,0 -1.8429,0.460716 -0.7206,0.460716 -1.1459,1.393962 -0.4016,0.874179 -0.5552,2.279954 -0.1418,1.405774 -0.1418,3.083253 0,1.842865 0.13,3.083254 0.1299,1.240389 0.5552,2.220888 0.3898,0.921432 1.0986,1.405774 0.7206,0.484343 1.902,0.484343 1.1104,0 1.8428,-0.460716 0.7324,-0.460716 1.1341,-1.393962 z m 18.4877,-5.363207 q 0,4.737106 -1.4885,6.957994 -1.4766,2.209074 -4.5953,2.209074 -3.166,0 -4.6308,-2.244514 -1.453,-2.244514 -1.453,-6.898928 0,-4.689853 1.4766,-6.922554 1.4767,-2.244514 4.6072,-2.244514 3.1659,0 4.619,2.279954 1.4648,2.26814 1.4648,6.863488 z m -3.1069,5.363207 q 0.4135,-0.956871 0.5552,-2.244514 0.1536,-1.299455 0.1536,-3.118693 0,-1.795612 -0.1536,-3.118694 -0.1417,-1.323082 -0.567,-2.244514 -0.4135,-0.909619 -1.1341,-1.370335 -0.7088,-0.460716 -1.831,-0.460716 -1.1105,0 -1.8429,0.460716 -0.7206,0.460716 -1.1459,1.393962 -0.4016,0.874179 -0.5552,2.279954 -0.1417,1.405774 -0.1417,3.083253 0,1.842865 0.1299,3.083254 0.1299,1.240389 0.5552,2.220888 0.3899,0.921432 1.0987,1.405774 0.7206,0.484343 1.9019,0.484343 1.1104,0 1.8428,-0.460716 0.7325,-0.460716 1.1341,-1.393962 z"
       id="text93-6"
       style="font-size:24.1935px;text-anchor:middle"
       aria-label="10000" /><path
       id="polyline94-1"
       transform="translate(-0.22230822,-438.25538)"
       style="opacity:1;fill:none;stroke:#000000"
       d="m 1285,340 v 5" /><polyline
       fill="none"
       opacity="1"
       stroke="#1f77b4"
       stroke-width="1"
       points="577,177 683,177 724,177 725,133 216,144 170,144 170,228 236,228 239,227 334,227 338,228 363,228 367,227 462,227 465,228 490,228 494,227 589,227 593,228 618,228 621,227 717,227 720,228 745,228 749,227 844,227 848,228 888,228 846,229 843,228 752,229 749,231 716,231 712,230 628,231 624,233 585,233 582,232 504,233 500,235 454,236 451,234 379,235 376,237 324,238 320,236 255,238 252,239 182,240 184,130 216,129 1207,120 1239,120 1237,272 "
       id="polyline95-5"
       transform="translate(-0.22230822,-446.25538)" /><polyline
       fill="none"
       opacity="1"
       stroke="#1f77b4"
       stroke-width="1"
       points="577,176 683,176 725,176 726,133 216,138 175,138 175,234 244,234 247,232 327,232 330,234 371,234 374,232 454,232 457,234 498,234 502,232 581,232 585,234 626,234 629,232 709,232 712,234 753,234 757,232 836,232 840,234 888,234 838,235 835,233 760,234 756,236 708,237 704,235 636,236 632,238 577,239 574,237 511,239 508,240 446,241 443,240 387,241 384,242 316,243 312,242 263,243 259,244 187,245 189,124 216,124 1207,125 1244,125 1243,272 "
       id="polyline96-4"
       transform="translate(-0.22230822,-446.25538)" /><polyline
       fill="none"
       opacity="1"
       stroke="#1f77b4"
       stroke-width="1"
       points="577,175 683,175 726,175 726,133 216,133 181,133 181,239 251,239 255,237 319,237 322,239 379,239 382,237 446,237 450,239 506,239 510,237 573,237 577,239 634,239 637,237 701,237 704,239 761,239 765,237 828,237 832,239 888,239 830,240 827,239 768,240 764,241 700,242 696,241 643,242 640,243 569,244 565,243 519,244 516,245 438,247 435,245 395,246 391,247 308,249 304,247 270,248 267,249 192,251 195,119 216,119 1207,130 1250,131 1248,272 "
       id="polyline97-2"
       transform="translate(-0.22230822,-446.25538)" /><polyline
       fill="none"
       opacity="1"
       stroke="#1f77b4"
       stroke-width="1"
       points="577,174 683,174 726,175 726,133 216,128 186,128 186,244 259,244 263,243 311,243 314,244 387,244 390,243 438,243 442,244 514,244 518,243 566,243 569,244 642,244 645,243 693,243 697,244 769,244 772,243 820,243 824,244 889,244 822,245 819,244 775,245 772,246 692,248 688,246 651,247 648,248 561,250 557,248 527,249 523,250 430,252 427,251 402,251 399,252 300,254 296,253 278,253 275,254 198,256 200,114 216,113 1207,135 1255,136 1253,272 "
       id="polyline98-0"
       transform="translate(-0.22230822,-446.25538)" /><polyline
       fill="none"
       opacity="1"
       stroke="#1f77b4"
       stroke-width="1"
       points="577,173 683,173 727,174 726,133 216,122 191,122 191,250 267,250 271,248 303,248 306,250 395,250 398,248 430,248 434,250 522,250 526,248 558,248 561,250 649,250 653,248 685,248 689,250 777,250 780,248 813,248 816,250 889,250 814,251 811,249 783,250 780,251 684,253 680,252 659,252 655,253 553,255 549,254 534,254 531,255 422,257 419,256 410,256 407,258 291,260 288,258 286,258 282,260 203,261 205,108 216,108 1207,141 1260,141 1258,272 "
       id="polyline99-9"
       transform="translate(-0.22230822,-446.25538)" /></g></svg>
