<?xml version="1.0" encoding="UTF-8" standalone="no"?>
<svg
   width="1346"
   height="1217"
   viewBox="0 0 1346 1217"
   version="1.1"
   id="svg166"
   sodipodi:docname="workshop__11_Bounce_0.svg"
   inkscape:version="1.4 (86a8ad7, 2024-10-11)"
   xml:space="preserve"
   inkscape:export-filename="workshop__11_Bounce_0.png"
   inkscape:export-xdpi="96"
   inkscape:export-ydpi="96"
   xmlns:inkscape="http://www.inkscape.org/namespaces/inkscape"
   xmlns:sodipodi="http://sodipodi.sourceforge.net/DTD/sodipodi-0.dtd"
   xmlns="http://www.w3.org/2000/svg"
   xmlns:svg="http://www.w3.org/2000/svg"><defs
     id="defs166" /><sodipodi:namedview
     id="namedview166"
     pagecolor="#ffffff"
     bordercolor="#000000"
     borderopacity="0.25"
     inkscape:showpageshadow="2"
     inkscape:pageopacity="0.0"
     inkscape:pagecheckerboard="0"
     inkscape:deskcolor="#d1d1d1"
     inkscape:zoom="0.37099425"
     inkscape:cx="702.16722"
     inkscape:cy="273.58915"
     inkscape:window-width="1920"
     inkscape:window-height="1147"
     inkscape:window-x="-8"
     inkscape:window-y="-8"
     inkscape:window-maximized="1"
     inkscape:current-layer="svg166" /><line
     opacity="0.1"
     stroke="#000000"
     stroke-width="1"
     x1="130"
     y1="1121"
     x2="130"
     y2="40"
     id="line1" /><line
     opacity="0.1"
     stroke="#000000"
     stroke-width="1"
     x1="170"
     y1="1121"
     x2="170"
     y2="40"
     id="line2" /><line
     opacity="0.1"
     stroke="#000000"
     stroke-width="1"
     x1="210"
     y1="1121"
     x2="210"
     y2="40"
     id="line3" /><line
     opacity="0.1"
     stroke="#000000"
     stroke-width="1"
     x1="250"
     y1="1121"
     x2="250"
     y2="40"
     id="line4" /><line
     opacity="0.1"
     stroke="#000000"
     stroke-width="1"
     x1="290"
     y1="1121"
     x2="290"
     y2="40"
     id="line5" /><line
     opacity="0.1"
     stroke="#000000"
     stroke-width="1"
     x1="330"
     y1="1121"
     x2="330"
     y2="40"
     id="line6" /><line
     opacity="0.1"
     stroke="#000000"
     stroke-width="1"
     x1="370"
     y1="1121"
     x2="370"
     y2="40"
     id="line7" /><line
     opacity="0.1"
     stroke="#000000"
     stroke-width="1"
     x1="410"
     y1="1121"
     x2="410"
     y2="40"
     id="line8" /><line
     opacity="0.1"
     stroke="#000000"
     stroke-width="1"
     x1="449"
     y1="1121"
     x2="449"
     y2="40"
     id="line9" /><line
     opacity="0.1"
     stroke="#000000"
     stroke-width="1"
     x1="489"
     y1="1121"
     x2="489"
     y2="40"
     id="line10" /><line
     opacity="0.1"
     stroke="#000000"
     stroke-width="1"
     x1="529"
     y1="1121"
     x2="529"
     y2="40"
     id="line11" /><line
     opacity="0.1"
     stroke="#000000"
     stroke-width="1"
     x1="569"
     y1="1121"
     x2="569"
     y2="40"
     id="line12" /><line
     opacity="0.1"
     stroke="#000000"
     stroke-width="1"
     x1="609"
     y1="1121"
     x2="609"
     y2="40"
     id="line13" /><line
     opacity="0.1"
     stroke="#000000"
     stroke-width="1"
     x1="649"
     y1="1121"
     x2="649"
     y2="40"
     id="line14" /><line
     opacity="0.1"
     stroke="#000000"
     stroke-width="1"
     x1="689"
     y1="1121"
     x2="689"
     y2="40"
     id="line15" /><line
     opacity="0.1"
     stroke="#000000"
     stroke-width="1"
     x1="729"
     y1="1121"
     x2="729"
     y2="40"
     id="line16" /><line
     opacity="0.1"
     stroke="#000000"
     stroke-width="1"
     x1="769"
     y1="1121"
     x2="769"
     y2="40"
     id="line17" /><line
     opacity="0.1"
     stroke="#000000"
     stroke-width="1"
     x1="809"
     y1="1121"
     x2="809"
     y2="40"
     id="line18" /><line
     opacity="0.1"
     stroke="#000000"
     stroke-width="1"
     x1="849"
     y1="1121"
     x2="849"
     y2="40"
     id="line19" /><line
     opacity="0.1"
     stroke="#000000"
     stroke-width="1"
     x1="889"
     y1="1121"
     x2="889"
     y2="40"
     id="line20" /><line
     opacity="0.1"
     stroke="#000000"
     stroke-width="1"
     x1="929"
     y1="1121"
     x2="929"
     y2="40"
     id="line21" /><line
     opacity="0.1"
     stroke="#000000"
     stroke-width="1"
     x1="969"
     y1="1121"
     x2="969"
     y2="40"
     id="line22" /><line
     opacity="0.1"
     stroke="#000000"
     stroke-width="1"
     x1="1008"
     y1="1121"
     x2="1008"
     y2="40"
     id="line23" /><line
     opacity="0.1"
     stroke="#000000"
     stroke-width="1"
     x1="1048"
     y1="1121"
     x2="1048"
     y2="40"
     id="line24" /><line
     opacity="0.1"
     stroke="#000000"
     stroke-width="1"
     x1="1088"
     y1="1121"
     x2="1088"
     y2="40"
     id="line25" /><line
     opacity="0.1"
     stroke="#000000"
     stroke-width="1"
     x1="1128"
     y1="1121"
     x2="1128"
     y2="40"
     id="line26" /><line
     opacity="0.1"
     stroke="#000000"
     stroke-width="1"
     x1="1168"
     y1="1121"
     x2="1168"
     y2="40"
     id="line27" /><line
     opacity="0.1"
     stroke="#000000"
     stroke-width="1"
     x1="1208"
     y1="1121"
     x2="1208"
     y2="40"
     id="line28" /><line
     opacity="0.1"
     stroke="#000000"
     stroke-width="1"
     x1="1248"
     y1="1121"
     x2="1248"
     y2="40"
     id="line29" /><line
     opacity="0.1"
     stroke="#000000"
     stroke-width="1"
     x1="1288"
     y1="1121"
     x2="1288"
     y2="40"
     id="line30" /><line
     opacity="0.1"
     stroke="#000000"
     stroke-width="1"
     x1="116"
     y1="1096"
     x2="1315"
     y2="1096"
     id="line31" /><line
     opacity="0.1"
     stroke="#000000"
     stroke-width="1"
     x1="116"
     y1="1056"
     x2="1315"
     y2="1056"
     id="line32" /><line
     opacity="0.1"
     stroke="#000000"
     stroke-width="1"
     x1="116"
     y1="1016"
     x2="1315"
     y2="1016"
     id="line33" /><line
     opacity="0.1"
     stroke="#000000"
     stroke-width="1"
     x1="116"
     y1="976"
     x2="1315"
     y2="976"
     id="line34" /><line
     opacity="0.1"
     stroke="#000000"
     stroke-width="1"
     x1="116"
     y1="936"
     x2="1315"
     y2="936"
     id="line35" /><line
     opacity="0.1"
     stroke="#000000"
     stroke-width="1"
     x1="116"
     y1="896"
     x2="1315"
     y2="896"
     id="line36" /><line
     opacity="0.1"
     stroke="#000000"
     stroke-width="1"
     x1="116"
     y1="856"
     x2="1315"
     y2="856"
     id="line37" /><line
     opacity="0.1"
     stroke="#000000"
     stroke-width="1"
     x1="116"
     y1="816"
     x2="1315"
     y2="816"
     id="line38" /><line
     opacity="0.1"
     stroke="#000000"
     stroke-width="1"
     x1="116"
     y1="777"
     x2="1315"
     y2="777"
     id="line39" /><line
     opacity="0.1"
     stroke="#000000"
     stroke-width="1"
     x1="116"
     y1="737"
     x2="1315"
     y2="737"
     id="line40" /><line
     opacity="0.1"
     stroke="#000000"
     stroke-width="1"
     x1="116"
     y1="697"
     x2="1315"
     y2="697"
     id="line41" /><line
     opacity="0.1"
     stroke="#000000"
     stroke-width="1"
     x1="116"
     y1="657"
     x2="1315"
     y2="657"
     id="line42" /><line
     opacity="0.1"
     stroke="#000000"
     stroke-width="1"
     x1="116"
     y1="617"
     x2="1315"
     y2="617"
     id="line43" /><line
     opacity="0.1"
     stroke="#000000"
     stroke-width="1"
     x1="116"
     y1="577"
     x2="1315"
     y2="577"
     id="line44" /><line
     opacity="0.1"
     stroke="#000000"
     stroke-width="1"
     x1="116"
     y1="537"
     x2="1315"
     y2="537"
     id="line45" /><line
     opacity="0.1"
     stroke="#000000"
     stroke-width="1"
     x1="116"
     y1="497"
     x2="1315"
     y2="497"
     id="line46" /><line
     opacity="0.1"
     stroke="#000000"
     stroke-width="1"
     x1="116"
     y1="457"
     x2="1315"
     y2="457"
     id="line47" /><line
     opacity="0.1"
     stroke="#000000"
     stroke-width="1"
     x1="116"
     y1="417"
     x2="1315"
     y2="417"
     id="line48" /><line
     opacity="0.1"
     stroke="#000000"
     stroke-width="1"
     x1="116"
     y1="377"
     x2="1315"
     y2="377"
     id="line49" /><line
     opacity="0.1"
     stroke="#000000"
     stroke-width="1"
     x1="116"
     y1="337"
     x2="1315"
     y2="337"
     id="line50" /><line
     opacity="0.1"
     stroke="#000000"
     stroke-width="1"
     x1="116"
     y1="297"
     x2="1315"
     y2="297"
     id="line51" /><line
     opacity="0.1"
     stroke="#000000"
     stroke-width="1"
     x1="116"
     y1="257"
     x2="1315"
     y2="257"
     id="line52" /><line
     opacity="0.1"
     stroke="#000000"
     stroke-width="1"
     x1="116"
     y1="218"
     x2="1315"
     y2="218"
     id="line53" /><line
     opacity="0.1"
     stroke="#000000"
     stroke-width="1"
     x1="116"
     y1="178"
     x2="1315"
     y2="178"
     id="line54" /><line
     opacity="0.1"
     stroke="#000000"
     stroke-width="1"
     x1="116"
     y1="138"
     x2="1315"
     y2="138"
     id="line55" /><line
     opacity="0.1"
     stroke="#000000"
     stroke-width="1"
     x1="116"
     y1="98"
     x2="1315"
     y2="98"
     id="line56" /><line
     opacity="0.1"
     stroke="#000000"
     stroke-width="1"
     x1="116"
     y1="58"
     x2="1315"
     y2="58"
     id="line57" /><path
     d="m -117.49456,592.62991 q 0,1.60661 -0.46072,2.9415 -0.46072,1.32309 -1.29946,2.24452 -0.77967,0.87418 -1.84287,1.35853 -1.05138,0.47253 -2.2327,0.47253 -1.02776,0 -1.8665,-0.22445 -0.82693,-0.22446 -1.68929,-0.69699 v 5.52861 h -2.2209 v -18.06247 h 2.2209 v 1.38215 q 0.88599,-0.74423 1.98462,-1.24039 1.11045,-0.50797 2.36265,-0.50797 2.38628,0 3.70937,1.80743 1.3349,1.79561 1.3349,4.997 z m -2.29178,0.0591 q 0,-2.38628 -0.81511,-3.5676 -0.81512,-1.18133 -2.50441,-1.18133 -0.95688,0 -1.92556,0.41347 -0.96869,0.41346 -1.85468,1.08681 v 7.4778 q 0.94506,0.42527 1.61841,0.57885 0.68517,0.15357 1.54754,0.15357 1.85468,0 2.89425,-1.25221 1.03956,-1.2522 1.03956,-3.70936 z m 16.99928,0.10632 q 0,3.22502 -1.65386,5.09151 -1.65385,1.8665 -4.42997,1.8665 -2.79974,0 -4.4536,-1.8665 -1.64204,-1.86649 -1.64204,-5.09151 0,-3.22502 1.64204,-5.09151 1.65386,-1.87831 4.4536,-1.87831 2.77612,0 4.42997,1.87831 1.65386,1.86649 1.65386,5.09151 z m -2.29177,0 q 0,-2.56348 -1.00413,-3.80387 -1.00413,-1.2522 -2.78793,-1.2522 -1.80743,0 -2.81155,1.2522 -0.99232,1.24039 -0.99232,3.80387 0,2.48078 1.00413,3.76843 1.00413,1.27583 2.79974,1.27583 1.77199,0 2.77612,-1.26402 1.01594,-1.27583 1.01594,-3.78024 z m 15.156404,2.78793 q 0,1.80743 -1.500284,2.96513 -1.48847,1.15769 -4.075573,1.15769 -1.464844,0 -2.693422,-0.34258 -1.216766,-0.3544 -2.043695,-0.76786 v -2.4926 h 0.11813 q 1.051384,0.79149 2.339029,1.26402 1.287645,0.46072 2.46897,0.46072 1.464844,0 2.291772,-0.47253 0.826928,-0.47253 0.826928,-1.48847 0,-0.77968 -0.448904,-1.18133 -0.448904,-0.40165 -1.724735,-0.68517 -0.472531,-0.10632 -1.240392,-0.24808 -0.756049,-0.14176 -1.382151,-0.30714 -1.736549,-0.46072 -2.468971,-1.34671 -0.720606,-0.89781 -0.720606,-2.19727 0,-0.81511 0.330769,-1.53572 0.342584,-0.72061 1.027753,-1.28765 0.661543,-0.55522 1.677483,-0.87418 1.027753,-0.33077 2.291771,-0.33077 1.181326,0 2.386278,0.29533 1.216765,0.28352 2.020067,0.69699 v 2.37446 h -0.118133 q -0.850554,-0.6261 -2.06732,-1.05138 -1.216765,-0.43709 -2.386277,-0.43709 -1.216766,0 -2.055507,0.47253 -0.838741,0.46072 -0.838741,1.38215 0,0.81512 0.50797,1.22858 0.496157,0.41346 1.606603,0.67335 0.614289,0.14176 1.370337,0.28352 0.767862,0.14176 1.275832,0.25989 1.547537,0.3544 2.386278,1.21677 0.838741,0.87418 0.838741,2.3154 z m 5.564043,-11.60062 h -2.50441 v -2.30358 h 2.50441 z m -0.141759,15.40449 h -2.220892 v -13.19541 h 2.220892 z m 11.24622,-0.11814 q -0.626103,0.16539 -1.370338,0.27171 -0.732422,0.10632 -1.311271,0.10632 -2.020067,0 -3.071447,-1.08682 -1.05138,-1.08682 -1.05138,-3.48491 v -7.01708 h -1.500283 v -1.86649 h 1.500283 v -3.79206 h 2.220892 v 3.79206 h 4.583544 v 1.86649 h -4.583544 v 6.01295 q 0,1.03957 0.04725,1.63023 0.04725,0.57885 0.330772,1.08682 0.259891,0.47253 0.708795,0.69698 0.460717,0.21264 1.393964,0.21264 0.54341,0 1.134073,-0.15357 0.590662,-0.16539 0.850554,-0.27171 h 0.118133 z m 5.067887,-15.28635 h -2.50441 v -2.30358 h 2.50441 z m -0.141759,15.40449 h -2.220892 v -13.19541 h 2.220892 z m 15.640755,-6.5918 q 0,3.22502 -1.653856,5.09151 -1.653856,1.8665 -4.429971,1.8665 -2.799742,0 -4.453598,-1.8665 -1.642042,-1.86649 -1.642042,-5.09151 0,-3.22502 1.642042,-5.09151 1.653856,-1.87831 4.453598,-1.87831 2.776115,0 4.429971,1.87831 1.653856,1.86649 1.653856,5.09151 z m -2.291772,0 q 0,-2.56348 -1.004127,-3.80387 -1.004126,-1.2522 -2.787928,-1.2522 -1.807428,0 -2.811555,1.2522 -0.992314,1.24039 -0.992314,3.80387 0,2.48078 1.004127,3.76843 1.004127,1.27583 2.799742,1.27583 1.771988,0 2.776115,-1.26402 1.01594,-1.27583 1.01594,-3.78024 z m 16.763009,6.5918 h -2.220892 v -7.51323 q 0,-0.90963 -0.106319,-1.70111 -0.10632,-0.8033 -0.389838,-1.25221 -0.295331,-0.49616 -0.850554,-0.73242 -0.555223,-0.24808 -1.441217,-0.24808 -0.909621,0 -1.901935,0.44891 -0.992313,0.4489 -1.901934,1.14588 v 9.85226 h -2.220892 v -13.19541 h 2.220892 v 1.46484 q 1.039567,-0.86236 2.150013,-1.34671 1.110446,-0.48434 2.279958,-0.48434 2.1382,0 3.260459,1.28764 1.122259,1.28765 1.122259,3.70937 z m 15.168218,-15.40449 h -2.50441 v -2.30358 h 2.50441 z m -0.141759,15.40449 h -2.220892 v -13.19541 h 2.220892 z m 15.4281157,0 h -2.2208921 v -7.51323 q 0,-0.90963 -0.1063196,-1.70111 -0.106319,-0.8033 -0.389837,-1.25221 -0.295332,-0.49616 -0.850555,-0.73242 -0.555223,-0.24808 -1.441217,-0.24808 -0.909621,0 -1.901934,0.44891 -0.992314,0.4489 -1.901934,1.14588 v 9.85226 h -2.220892 v -13.19541 h 2.220892 v 1.46484 q 1.039566,-0.86236 2.150012,-1.34671 1.110446,-0.48434 2.279959,-0.48434 2.138199,0 3.2604584,1.28764 1.1222593,1.28765 1.1222593,3.70937 z m 32.0375393,0 H 22.05542 v -7.51323 q 0,-0.85056 -0.08269,-1.64205 -0.07088,-0.79149 -0.318958,-1.26402 -0.271705,-0.50797 -0.779675,-0.76786 -0.50797,-0.25989 -1.464844,-0.25989 -0.933247,0 -1.866494,0.47253 -0.933248,0.46072 -1.866495,1.18133 0.03544,0.2717 0.05907,0.63791 0.02363,0.3544 0.02363,0.7088 v 8.44648 h -2.220892 v -7.51323 q 0,-0.87419 -0.08269,-1.65386 -0.07088,-0.79149 -0.318958,-1.26402 -0.271705,-0.50797 -0.779675,-0.75605 -0.50797,-0.25989 -1.464844,-0.25989 -0.9096202,0 -1.8310542,0.44891 -0.9096207,0.4489 -1.8192414,1.14588 v 9.85226 H 5.0207053 v -13.19541 h 2.2208921 v 1.46484 q 1.0395665,-0.86236 2.0673198,-1.34671 1.0395668,-0.48434 2.2090788,-0.48434 1.346711,0 2.279958,0.56703 0.945061,0.56704 1.405778,1.57117 1.346711,-1.13407 2.457157,-1.63023 1.110446,-0.50797 2.374465,-0.50797 2.173639,0 3.201392,1.32308 1.039566,1.31127 1.039566,3.67393 z m 23.532013,0 h -2.220892 v -7.51323 q 0,-0.85056 -0.08269,-1.64205 -0.07088,-0.79149 -0.318958,-1.26402 -0.271705,-0.50797 -0.779675,-0.76786 -0.50797,-0.25989 -1.464844,-0.25989 -0.933247,0 -1.866494,0.47253 -0.933248,0.46072 -1.866495,1.18133 0.03544,0.2717 0.05907,0.63791 0.02363,0.3544 0.02363,0.7088 v 8.44648 h -2.220892 v -7.51323 q 0,-0.87419 -0.08269,-1.65386 -0.07088,-0.79149 -0.318958,-1.26402 -0.271705,-0.50797 -0.779675,-0.75605 -0.50797,-0.25989 -1.464844,-0.25989 -0.90962,0 -1.831054,0.44891 -0.909621,0.4489 -1.819242,1.14588 v 9.85226 h -2.220892 v -13.19541 h 2.220892 v 1.46484 q 1.039567,-0.86236 2.06732,-1.34671 1.039567,-0.48434 2.209079,-0.48434 1.346711,0 2.279958,0.56703 0.945061,0.56704 1.405778,1.57117 1.346711,-1.13407 2.457157,-1.63023 1.110446,-0.50797 2.374465,-0.50797 2.173639,0 3.201392,1.32308 1.039566,1.31127 1.039566,3.67393 z m 19.846272,4.86706 h -2.705235 q -2.090947,-2.39809 -3.248646,-5.23327 -1.157699,-2.83519 -1.157699,-6.39098 0,-3.55579 1.157699,-6.39097 1.157699,-2.83518 3.248646,-5.23327 h 2.705235 v 0.11813 q -0.956874,0.86237 -1.831055,1.99644 -0.862367,1.12226 -1.606602,2.62255 -0.708796,1.45303 -1.157699,3.20139 -0.437091,1.74836 -0.437091,3.68573 0,2.02007 0.425277,3.69755 0.437091,1.67749 1.169513,3.18958 0.708795,1.45303 1.618416,2.62255 0.90962,1.18132 1.819241,1.99644 z m 15.333606,-18.06247 -7.702242,18.06247 h -2.374465 l 2.457157,-5.50498 -5.256899,-12.55749 h 2.409905 l 4.051946,9.78138 4.087387,-9.78138 z m 21.665517,13.19541 h -2.20908 v -1.40578 q -0.29533,0.20082 -0.8033,0.56704 -0.49616,0.35439 -0.96869,0.56703 -0.55522,0.27171 -1.275833,0.44891 -0.720608,0.18901 -1.689295,0.18901 -1.783802,0 -3.024194,-1.18133 -1.240392,-1.18132 -1.240392,-3.01238 0,-1.50028 0.637916,-2.42172 0.649729,-0.93324 1.842868,-1.46484 1.204952,-0.5316 2.894248,-0.72061 1.689292,-0.18901 3.626672,-0.28352 v -0.34258 q 0,-0.75605 -0.27171,-1.25221 -0.25989,-0.49615 -0.75605,-0.77967 -0.47253,-0.27171 -1.13407,-0.36621 -0.661541,-0.0945 -1.38215,-0.0945 -0.874181,0 -1.949187,0.23627 -1.075006,0.22445 -2.220892,0.66154 h -0.118133 v -2.25633 q 0.64973,-0.1772 1.878308,-0.38984 1.228579,-0.21264 2.421718,-0.21264 1.393966,0 2.421716,0.23627 1.03957,0.22445 1.79562,0.77967 0.74423,0.54341 1.13407,1.40578 0.38984,0.86237 0.38984,2.1382 z m -2.20908,-3.24865 v -3.67392 q -1.01594,0.0591 -2.39809,0.1772 -1.370341,0.11813 -2.173643,0.34258 -0.956874,0.27171 -1.547536,0.85056 -0.590663,0.56703 -0.590663,1.57116 0,1.13407 0.685169,1.71292 0.685168,0.56704 2.090946,0.56704 1.169512,0 2.138197,-0.44891 0.96869,-0.46071 1.79562,-1.09863 z m 17.90889,3.24865 h -2.79974 l -3.7448,-5.06789 -3.76843,5.06789 h -2.5871 l 5.15058,-6.57999 -5.10333,-6.61542 h 2.79974 l 3.72118,4.98519 3.73299,-4.98519 h 2.59891 l -5.18602,6.49729 z m 5.28052,-15.40449 h -2.50441 v -2.30358 h 2.50441 z m -0.14176,15.40449 h -2.22089 v -13.19541 h 2.22089 z m 13.82153,-3.80387 q 0,1.80743 -1.50029,2.96513 -1.48847,1.15769 -4.07557,1.15769 -1.46484,0 -2.69342,-0.34258 -1.21677,-0.3544 -2.04369,-0.76786 v -2.4926 h 0.11813 q 1.05138,0.79149 2.33902,1.26402 1.28765,0.46072 2.46897,0.46072 1.46485,0 2.29178,-0.47253 0.82692,-0.47253 0.82692,-1.48847 0,-0.77968 -0.4489,-1.18133 -0.4489,-0.40165 -1.72474,-0.68517 -0.47253,-0.10632 -1.24039,-0.24808 -0.75605,-0.14176 -1.38215,-0.30714 -1.73655,-0.46072 -2.46897,-1.34671 -0.72061,-0.89781 -0.72061,-2.19727 0,-0.81511 0.33077,-1.53572 0.34259,-0.72061 1.02776,-1.28765 0.66154,-0.55522 1.67748,-0.87418 1.02775,-0.33077 2.29177,-0.33077 1.18133,0 2.38628,0.29533 1.21676,0.28352 2.02006,0.69699 v 2.37446 h -0.11813 q -0.85055,-0.6261 -2.06732,-1.05138 -1.21676,-0.43709 -2.38628,-0.43709 -1.21676,0 -2.0555,0.47253 -0.83874,0.46072 -0.83874,1.38215 0,0.81512 0.50797,1.22858 0.49615,0.41346 1.6066,0.67335 0.61429,0.14176 1.37034,0.28352 0.76786,0.14176 1.27583,0.25989 1.54754,0.3544 2.38628,1.21677 0.83874,0.87418 0.83874,2.3154 z m 9.84043,-2.95332 q 0,3.55579 -1.1577,6.39098 -1.1577,2.83518 -3.24864,5.23327 h -2.70524 v -0.11813 q 0.90962,-0.81512 1.81924,-1.99644 0.92144,-1.16952 1.61842,-2.62255 0.73242,-1.51209 1.1577,-3.18958 0.43709,-1.67748 0.43709,-3.69755 0,-1.93737 -0.43709,-3.68573 -0.43709,-1.74836 -1.1577,-3.20139 -0.74424,-1.50029 -1.61842,-2.62255 -0.86236,-1.13407 -1.81924,-1.99644 v -0.11813 h 2.70524 q 2.09094,2.39809 3.24864,5.23327 1.1577,2.83518 1.1577,6.39097 z"
     id="text57"
     style="font-size:24.1935px;text-anchor:middle"
     transform="rotate(270, 10, 581)"
     aria-label="position in mm (y axis)" /><path
     d="m 589.30874,1174.1944 q 0,1.6066 -0.46072,2.9415 -0.46072,1.3231 -1.29946,2.2445 -0.77967,0.8742 -1.84287,1.3586 -1.05138,0.4725 -2.2327,0.4725 -1.02776,0 -1.8665,-0.2244 -0.82692,-0.2245 -1.68929,-0.697 v 5.5286 h -2.22089 v -18.0625 h 2.22089 v 1.3822 q 0.88599,-0.7443 1.98462,-1.2404 1.11045,-0.508 2.36266,-0.508 2.38627,0 3.70936,1.8074 1.3349,1.7956 1.3349,4.997 z m -2.29178,0.059 q 0,-2.3863 -0.81511,-3.5676 -0.81511,-1.1813 -2.50441,-1.1813 -0.95687,0 -1.92556,0.4134 -0.96869,0.4135 -1.85468,1.0869 v 7.4777 q 0.94506,0.4253 1.61841,0.5789 0.68517,0.1536 1.54754,0.1536 1.85468,0 2.89425,-1.2522 1.03956,-1.2522 1.03956,-3.7094 z m 16.99928,0.1063 q 0,3.225 -1.65386,5.0915 -1.65385,1.8665 -4.42997,1.8665 -2.79974,0 -4.45359,-1.8665 -1.64205,-1.8665 -1.64205,-5.0915 0,-3.225 1.64205,-5.0915 1.65385,-1.8783 4.45359,-1.8783 2.77612,0 4.42997,1.8783 1.65386,1.8665 1.65386,5.0915 z m -2.29177,0 q 0,-2.5635 -1.00413,-3.8039 -1.00413,-1.2522 -2.78793,-1.2522 -1.80743,0 -2.81155,1.2522 -0.99232,1.2404 -0.99232,3.8039 0,2.4808 1.00413,3.7684 1.00413,1.2759 2.79974,1.2759 1.77199,0 2.77612,-1.264 1.01594,-1.2759 1.01594,-3.7803 z m 15.15641,2.7879 q 0,1.8075 -1.50029,2.9652 -1.48847,1.1577 -4.07557,1.1577 -1.46485,0 -2.69342,-0.3426 -1.21677,-0.3544 -2.0437,-0.7679 v -2.4926 h 0.11814 q 1.05138,0.7915 2.33902,1.264 1.28765,0.4608 2.46897,0.4608 1.46484,0 2.29177,-0.4726 0.82693,-0.4725 0.82693,-1.4884 0,-0.7797 -0.4489,-1.1814 -0.44891,-0.4016 -1.72474,-0.6851 -0.47253,-0.1064 -1.24039,-0.2481 -0.75605,-0.1418 -1.38215,-0.3072 -1.73655,-0.4607 -2.46897,-1.3467 -0.72061,-0.8978 -0.72061,-2.1972 0,-0.8151 0.33077,-1.5358 0.34258,-0.7206 1.02775,-1.2876 0.66155,-0.5552 1.67749,-0.8742 1.02775,-0.3308 2.29177,-0.3308 1.18132,0 2.38628,0.2954 1.21676,0.2835 2.02006,0.697 v 2.3744 h -0.11813 q -0.85055,-0.6261 -2.06732,-1.0514 -1.21677,-0.437 -2.38628,-0.437 -1.21676,0 -2.0555,0.4725 -0.83875,0.4607 -0.83875,1.3821 0,0.8152 0.50797,1.2286 0.49616,0.4135 1.60661,0.6734 0.61429,0.1417 1.37033,0.2835 0.76787,0.1417 1.27584,0.2599 1.54753,0.3544 2.38627,1.2167 0.83875,0.8742 0.83875,2.3154 z m 5.56404,-11.6006 h -2.50441 v -2.3036 h 2.50441 z m -0.14176,15.4045 h -2.22089 v -13.1954 h 2.22089 z m 11.24622,-0.1181 q -0.6261,0.1654 -1.37034,0.2717 -0.73242,0.1063 -1.31127,0.1063 -2.02007,0 -3.07145,-1.0868 -1.05138,-1.0868 -1.05138,-3.4849 v -7.0171 h -1.50028 v -1.8665 h 1.50028 v -3.792 h 2.2209 v 3.792 h 4.58354 v 1.8665 h -4.58354 v 6.0129 q 0,1.0396 0.0473,1.6303 0.0472,0.5788 0.33077,1.0868 0.25989,0.4725 0.7088,0.697 0.46071,0.2126 1.39396,0.2126 0.54341,0 1.13407,-0.1536 0.59066,-0.1653 0.85056,-0.2717 h 0.11813 z m 5.06789,-15.2864 h -2.50441 v -2.3036 h 2.50441 z m -0.14176,15.4045 h -2.22089 v -13.1954 h 2.22089 z m 15.64075,-6.5918 q 0,3.225 -1.65385,5.0915 -1.65386,1.8665 -4.42997,1.8665 -2.79975,0 -4.4536,-1.8665 -1.64204,-1.8665 -1.64204,-5.0915 0,-3.225 1.64204,-5.0915 1.65385,-1.8783 4.4536,-1.8783 2.77611,0 4.42997,1.8783 1.65385,1.8665 1.65385,5.0915 z m -2.29177,0 q 0,-2.5635 -1.00413,-3.8039 -1.00412,-1.2522 -2.78792,-1.2522 -1.80743,0 -2.81156,1.2522 -0.99231,1.2404 -0.99231,3.8039 0,2.4808 1.00412,3.7684 1.00413,1.2759 2.79975,1.2759 1.77198,0 2.77611,-1.264 1.01594,-1.2759 1.01594,-3.7803 z m 16.76301,6.5918 h -2.22089 v -7.5132 q 0,-0.9096 -0.10632,-1.7011 -0.10632,-0.8033 -0.38984,-1.2522 -0.29533,-0.4962 -0.85055,-0.7325 -0.55523,-0.248 -1.44122,-0.248 -0.90962,0 -1.90194,0.4489 -0.99231,0.4489 -1.90193,1.1459 v 9.8522 h -2.22089 v -13.1954 h 2.22089 v 1.4648 q 1.03957,-0.8623 2.15001,-1.3467 1.11045,-0.4843 2.27996,-0.4843 2.1382,0 3.26046,1.2876 1.12226,1.2877 1.12226,3.7094 z m 15.16822,-15.4045 h -2.50441 v -2.3036 h 2.50441 z m -0.14176,15.4045 h -2.22089 v -13.1954 h 2.22089 z m 15.42811,0 h -2.22089 v -7.5132 q 0,-0.9096 -0.10632,-1.7011 -0.10632,-0.8033 -0.38983,-1.2522 -0.29534,-0.4962 -0.85056,-0.7325 -0.55522,-0.248 -1.44122,-0.248 -0.90962,0 -1.90193,0.4489 -0.99231,0.4489 -1.90193,1.1459 v 9.8522 h -2.2209 v -13.1954 h 2.2209 v 1.4648 q 1.03956,-0.8623 2.15001,-1.3467 1.11044,-0.4843 2.27996,-0.4843 2.1382,0 3.26045,1.2876 1.12226,1.2877 1.12226,3.7094 z m 32.03754,0 h -2.22089 v -7.5132 q 0,-0.8506 -0.0827,-1.6421 -0.0709,-0.7914 -0.31896,-1.264 -0.2717,-0.5079 -0.77967,-0.7678 -0.50797,-0.2599 -1.46485,-0.2599 -0.93324,0 -1.86649,0.4725 -0.93325,0.4607 -1.8665,1.1813 0.0354,0.2717 0.0591,0.6379 0.0236,0.3544 0.0236,0.7088 v 8.4465 h -2.2209 v -7.5132 q 0,-0.8742 -0.0827,-1.6539 -0.0709,-0.7915 -0.31896,-1.264 -0.2717,-0.508 -0.77967,-0.756 -0.50797,-0.2599 -1.46485,-0.2599 -0.90962,0 -1.83105,0.4489 -0.90962,0.4489 -1.81924,1.1459 v 9.8522 h -2.22089 v -13.1954 h 2.22089 v 1.4648 q 1.03957,-0.8623 2.06732,-1.3467 1.03957,-0.4843 2.20908,-0.4843 1.34671,0 2.27996,0.567 0.94506,0.5671 1.40577,1.5712 1.34671,-1.1341 2.45716,-1.6302 1.11045,-0.508 2.37446,-0.508 2.17364,0 3.2014,1.3231 1.03956,1.3113 1.03956,3.6739 z m 23.53202,0 h -2.2209 v -7.5132 q 0,-0.8506 -0.0827,-1.6421 -0.0709,-0.7914 -0.31896,-1.264 -0.2717,-0.5079 -0.77967,-0.7678 -0.50797,-0.2599 -1.46484,-0.2599 -0.93325,0 -1.8665,0.4725 -0.93325,0.4607 -1.86649,1.1813 0.0354,0.2717 0.0591,0.6379 0.0236,0.3544 0.0236,0.7088 v 8.4465 h -2.22089 v -7.5132 q 0,-0.8742 -0.0827,-1.6539 -0.0709,-0.7915 -0.31895,-1.264 -0.27171,-0.508 -0.77968,-0.756 -0.50797,-0.2599 -1.46484,-0.2599 -0.90962,0 -1.83106,0.4489 -0.90962,0.4489 -1.81924,1.1459 v 9.8522 h -2.22089 v -13.1954 h 2.22089 v 1.4648 q 1.03957,-0.8623 2.06732,-1.3467 1.03957,-0.4843 2.20908,-0.4843 1.34671,0 2.27996,0.567 0.94506,0.5671 1.40578,1.5712 1.34671,-1.1341 2.45715,-1.6302 1.11045,-0.508 2.37447,-0.508 2.17364,0 3.20139,1.3231 1.03957,1.3113 1.03957,3.6739 z m 19.84627,4.8671 h -2.70524 q -2.09094,-2.3981 -3.24864,-5.2333 -1.1577,-2.8352 -1.1577,-6.391 0,-3.5558 1.1577,-6.3909 1.1577,-2.8352 3.24864,-5.2333 h 2.70524 v 0.1181 q -0.95688,0.8624 -1.83106,1.9965 -0.86236,1.1222 -1.6066,2.6225 -0.70879,1.453 -1.1577,3.2014 -0.43709,1.7484 -0.43709,3.6857 0,2.0201 0.42528,3.6976 0.43709,1.6775 1.16951,3.1896 0.7088,1.453 1.61842,2.6225 0.90962,1.1813 1.81924,1.9964 z m 13.49074,-4.8671 h -10.65556 v -1.642 l 7.69043,-9.6987 h -7.52504 v -1.8547 h 10.28934 v 1.583 l -7.72587,9.7341 h 7.9267 z m 21.90176,0 h -2.20907 v -1.4058 q -0.29534,0.2009 -0.80331,0.5671 -0.49615,0.3544 -0.96868,0.567 -0.55523,0.2717 -1.27583,0.4489 -0.72061,0.189 -1.6893,0.189 -1.7838,0 -3.02419,-1.1813 -1.2404,-1.1813 -1.2404,-3.0124 0,-1.5003 0.63792,-2.4217 0.64973,-0.9332 1.84287,-1.4648 1.20495,-0.5316 2.89425,-0.7207 1.68929,-0.189 3.62667,-0.2835 v -0.3426 q 0,-0.756 -0.27171,-1.2522 -0.25989,-0.4961 -0.75605,-0.7796 -0.47253,-0.2717 -1.13407,-0.3662 -0.66154,-0.095 -1.38215,-0.095 -0.87418,0 -1.94919,0.2363 -1.075,0.2245 -2.22089,0.6616 h -0.11813 v -2.2564 q 0.64973,-0.1772 1.8783,-0.3898 1.22858,-0.2127 2.42172,-0.2127 1.39397,0 2.42172,0.2363 1.03957,0.2245 1.79561,0.7797 0.74424,0.5434 1.13408,1.4058 0.38983,0.8623 0.38983,2.1382 z m -2.20907,-3.2486 v -3.674 q -1.01594,0.059 -2.3981,0.1772 -1.37033,0.1182 -2.17363,0.3426 -0.95688,0.2717 -1.54754,0.8506 -0.59066,0.567 -0.59066,1.5711 0,1.1341 0.68516,1.713 0.68517,0.567 2.09095,0.567 1.16951,0 2.1382,-0.4489 0.96869,-0.4607 1.79562,-1.0986 z m 17.90891,3.2486 h -2.79975 l -3.7448,-5.0679 -3.76843,5.0679 h -2.5871 l 5.15058,-6.58 -5.10333,-6.6154 h 2.79975 l 3.72117,4.9852 3.73299,-4.9852 h 2.59892 l -5.18602,6.4973 z m 5.28051,-15.4045 h -2.50441 v -2.3036 h 2.50441 z m -0.14176,15.4045 h -2.22089 v -13.1954 h 2.22089 z m 13.8215,-3.8039 q 0,1.8075 -1.50028,2.9652 -1.48847,1.1577 -4.07558,1.1577 -1.46484,0 -2.69342,-0.3426 -1.21676,-0.3544 -2.04369,-0.7679 v -2.4926 h 0.11813 q 1.05138,0.7915 2.33903,1.264 1.28764,0.4608 2.46897,0.4608 1.46484,0 2.29177,-0.4726 0.82693,-0.4725 0.82693,-1.4884 0,-0.7797 -0.44891,-1.1814 -0.4489,-0.4016 -1.72473,-0.6851 -0.47253,-0.1064 -1.24039,-0.2481 -0.75605,-0.1418 -1.38216,-0.3072 -1.73654,-0.4607 -2.46897,-1.3467 -0.72061,-0.8978 -0.72061,-2.1972 0,-0.8151 0.33078,-1.5358 0.34258,-0.7206 1.02775,-1.2876 0.66154,-0.5552 1.67748,-0.8742 1.02776,-0.3308 2.29177,-0.3308 1.18133,0 2.38628,0.2954 1.21677,0.2835 2.02007,0.697 v 2.3744 h -0.11813 q -0.85056,-0.6261 -2.06732,-1.0514 -1.21677,-0.437 -2.38628,-0.437 -1.21677,0 -2.05551,0.4725 -0.83874,0.4607 -0.83874,1.3821 0,0.8152 0.50797,1.2286 0.49616,0.4135 1.6066,0.6734 0.61429,0.1417 1.37034,0.2835 0.76786,0.1417 1.27583,0.2599 1.54754,0.3544 2.38628,1.2167 0.83874,0.8742 0.83874,2.3154 z m 9.84047,-2.9533 q 0,3.5558 -1.1577,6.391 -1.1577,2.8352 -3.24865,5.2333 h -2.70523 v -0.1182 q 0.90962,-0.8151 1.81924,-1.9964 0.92143,-1.1695 1.61841,-2.6225 0.73243,-1.5121 1.1577,-3.1896 0.43709,-1.6775 0.43709,-3.6976 0,-1.9373 -0.43709,-3.6857 -0.43709,-1.7484 -1.1577,-3.2014 -0.74423,-1.5003 -1.61841,-2.6225 -0.86237,-1.1341 -1.81924,-1.9965 v -0.1181 h 2.70523 q 2.09095,2.3981 3.24865,5.2333 1.1577,2.8351 1.1577,6.3909 z"
     id="text58"
     style="font-size:24.1935px;text-anchor:middle"
     aria-label="position in mm (z axis)" /><line
     opacity="0.2"
     stroke="#000000"
     stroke-width="1"
     x1="210"
     y1="1121"
     x2="210"
     y2="40"
     id="line58" /><line
     opacity="0.2"
     stroke="#000000"
     stroke-width="1"
     x1="609"
     y1="1121"
     x2="609"
     y2="40"
     id="line59" /><line
     opacity="0.2"
     stroke="#000000"
     stroke-width="1"
     x1="1008"
     y1="1121"
     x2="1008"
     y2="40"
     id="line60" /><line
     opacity="0.2"
     stroke="#000000"
     stroke-width="1"
     x1="116"
     y1="976"
     x2="1315"
     y2="976"
     id="line61" /><line
     opacity="0.2"
     stroke="#000000"
     stroke-width="1"
     x1="116"
     y1="777"
     x2="1315"
     y2="777"
     id="line62" /><line
     opacity="0.2"
     stroke="#000000"
     stroke-width="1"
     x1="116"
     y1="577"
     x2="1315"
     y2="577"
     id="line63" /><line
     opacity="0.2"
     stroke="#000000"
     stroke-width="1"
     x1="116"
     y1="377"
     x2="1315"
     y2="377"
     id="line64" /><line
     opacity="0.2"
     stroke="#000000"
     stroke-width="1"
     x1="116"
     y1="178"
     x2="1315"
     y2="178"
     id="line65" /><polyline
     fill="none"
     opacity="1"
     stroke="#000000"
     stroke-width="1"
     points="115,40 115,1121 "
     id="polyline65" /><path
     d="m 104.40521,973.24751 q 0,4.73712 -1.48847,6.95801 -1.47666,2.20908 -4.595356,2.20908 -3.165953,0 -4.630797,-2.24452 -1.45303,-2.24452 -1.45303,-6.89894 0,-4.68986 1.476657,-6.92257 1.476657,-2.24452 4.60717,-2.24452 3.165956,0 4.618986,2.27996 1.46484,2.26814 1.46484,6.8635 z m -3.10689,5.36322 q 0.41347,-0.95687 0.55523,-2.24452 0.15357,-1.29946 0.15357,-3.1187 0,-1.79561 -0.15357,-3.1187 -0.14176,-1.32308 -0.56704,-2.24452 -0.41346,-0.90962 -1.13407,-1.37033 -0.708797,-0.46072 -1.831056,-0.46072 -1.110446,0 -1.842868,0.46072 -0.720609,0.46071 -1.145886,1.39396 -0.401651,0.87418 -0.555223,2.27996 -0.141759,1.40578 -0.141759,3.08326 0,1.84287 0.129946,3.08326 0.129945,1.24039 0.555223,2.22089 0.389837,0.92143 1.098632,1.40578 0.720609,0.48434 1.901935,0.48434 1.110446,0 1.842866,-0.46072 0.73242,-0.46071 1.13407,-1.39396 z"
     id="text65"
     style="font-size:24.1935px;text-anchor:end"
     aria-label="0" /><polyline
     fill="none"
     opacity="1"
     stroke="#000000"
     stroke-width="1"
     points="110,976 115,976 "
     id="polyline66" /><path
     d="m 88.906219,777.46072 q 0,1.22858 -0.448904,2.35083 -0.448904,1.12226 -1.228579,1.89013 -0.850554,0.82692 -2.03188,1.27583 -1.169512,0.43709 -2.717049,0.43709 -1.441217,0 -2.776115,-0.30715 -1.334898,-0.29533 -2.256332,-0.72061 v -2.49259 h 0.165386 q 0.968687,0.61429 2.268145,1.05138 1.299458,0.42527 2.551663,0.42527 0.838742,0 1.618416,-0.23626 0.791489,-0.23627 1.405778,-0.82693 0.519783,-0.50797 0.779675,-1.21676 0.271705,-0.7088 0.271705,-1.64205 0,-0.90962 -0.318958,-1.53572 -0.307145,-0.6261 -0.862368,-1.00413 -0.614289,-0.4489 -1.500283,-0.6261 -0.874181,-0.18901 -1.961001,-0.18901 -1.039566,0 -2.008253,0.14176 -0.956874,0.14176 -1.653856,0.28352 v -9.06077 h 10.584677 v 2.06732 h -8.304719 v 4.67805 q 0.50797,-0.0472 1.039567,-0.0709 0.531596,-0.0236 0.921434,-0.0236 1.429404,0 2.50441,0.24808 1.075006,0.23627 1.972814,0.85055 0.94506,0.64973 1.464843,1.67749 0.519784,1.02775 0.519784,2.57529 z m 15.498991,-3.21321 q 0,4.73712 -1.48847,6.95801 -1.47666,2.20908 -4.595356,2.20908 -3.165953,0 -4.630797,-2.24452 -1.45303,-2.24452 -1.45303,-6.89894 0,-4.68986 1.476657,-6.92257 1.476657,-2.24452 4.60717,-2.24452 3.165956,0 4.618986,2.27996 1.46484,2.26814 1.46484,6.8635 z m -3.10689,5.36322 q 0.41347,-0.95687 0.55523,-2.24452 0.15357,-1.29946 0.15357,-3.1187 0,-1.79561 -0.15357,-3.1187 -0.14176,-1.32308 -0.56704,-2.24452 -0.41346,-0.90962 -1.13407,-1.37033 -0.708797,-0.46072 -1.831056,-0.46072 -1.110446,0 -1.842868,0.46072 -0.720609,0.46071 -1.145886,1.39396 -0.401651,0.87418 -0.555223,2.27996 -0.141759,1.40578 -0.141759,3.08326 0,1.84287 0.129946,3.08326 0.129946,1.24039 0.555223,2.22089 0.389837,0.92143 1.098633,1.40578 0.720608,0.48434 1.901934,0.48434 1.110446,0 1.842866,-0.46072 0.73242,-0.46071 1.13407,-1.39396 z"
     id="text66"
     style="font-size:24.1935px;text-anchor:end"
     aria-label="50" /><polyline
     fill="none"
     opacity="1"
     stroke="#000000"
     stroke-width="1"
     points="110,777 115,777 "
     id="polyline67" /><path
     d="m 72.662992,583.04839 h -9.521485 v -1.79562 h 3.66211 v -11.78963 h -3.66211 v -1.6066 q 0.744236,0 1.59479,-0.11813 0.850554,-0.12995 1.287645,-0.36621 0.54341,-0.29534 0.850554,-0.74424 0.318958,-0.46072 0.366211,-1.22858 h 1.831055 v 15.85339 h 3.59123 z m 16.361359,-8.80088 q 0,4.73712 -1.48847,6.95801 -1.476657,2.20908 -4.595357,2.20908 -3.165952,0 -4.630796,-2.24452 -1.45303,-2.24452 -1.45303,-6.89894 0,-4.68986 1.476657,-6.92257 1.476657,-2.24452 4.607169,-2.24452 3.165953,0 4.618984,2.27996 1.464843,2.26814 1.464843,6.8635 z m -3.106886,5.36322 q 0.413464,-0.95687 0.555223,-2.24452 0.153572,-1.29946 0.153572,-3.1187 0,-1.79561 -0.153572,-3.1187 -0.141759,-1.32308 -0.567036,-2.24452 -0.413464,-0.90962 -1.134073,-1.37033 -0.708795,-0.46072 -1.831055,-0.46072 -1.110446,0 -1.842867,0.46072 -0.720609,0.46071 -1.145886,1.39396 -0.401651,0.87418 -0.555223,2.27996 -0.141759,1.40578 -0.141759,3.08326 0,1.84287 0.129945,3.08326 0.129946,1.24039 0.555223,2.22089 0.389838,0.92143 1.098633,1.40578 0.720609,0.48434 1.901934,0.48434 1.110447,0 1.842868,-0.46072 0.732422,-0.46071 1.134073,-1.39396 z m 18.487745,-5.36322 q 0,4.73712 -1.48847,6.95801 -1.47666,2.20908 -4.595356,2.20908 -3.165953,0 -4.630796,-2.24452 -1.453031,-2.24452 -1.453031,-6.89894 0,-4.68986 1.476657,-6.92257 1.476657,-2.24452 4.60717,-2.24452 3.165956,0 4.618986,2.27996 1.46484,2.26814 1.46484,6.8635 z m -3.10689,5.36322 q 0.41347,-0.95687 0.55523,-2.24452 0.15357,-1.29946 0.15357,-3.1187 0,-1.79561 -0.15357,-3.1187 -0.14176,-1.32308 -0.56704,-2.24452 -0.41346,-0.90962 -1.13407,-1.37033 -0.708797,-0.46072 -1.831056,-0.46072 -1.110446,0 -1.842868,0.46072 -0.720609,0.46071 -1.145886,1.39396 -0.401651,0.87418 -0.555223,2.27996 -0.141759,1.40578 -0.141759,3.08326 0,1.84287 0.129946,3.08326 0.129946,1.24039 0.555223,2.22089 0.389837,0.92143 1.098633,1.40578 0.720608,0.48434 1.901934,0.48434 1.110446,0 1.842866,-0.46072 0.73242,-0.46071 1.13407,-1.39396 z"
     id="text67"
     style="font-size:24.1935px;text-anchor:end"
     aria-label="100" /><polyline
     fill="none"
     opacity="1"
     stroke="#000000"
     stroke-width="1"
     points="110,577 115,577 "
     id="polyline68" /><path
     d="m 72.662992,383.04839 h -9.521485 v -1.79562 h 3.66211 v -11.78963 h -3.66211 v -1.6066 q 0.744236,0 1.59479,-0.11813 0.850554,-0.12995 1.287645,-0.36621 0.54341,-0.29534 0.850554,-0.74424 0.318958,-0.46072 0.366211,-1.22858 h 1.831055 v 15.85339 h 3.59123 z m 16.243227,-5.58767 q 0,1.22858 -0.448904,2.35083 -0.448904,1.12226 -1.228579,1.89013 -0.850554,0.82692 -2.03188,1.27583 -1.169512,0.43709 -2.717048,0.43709 -1.441218,0 -2.776116,-0.30715 -1.334898,-0.29533 -2.256332,-0.72061 v -2.49259 h 0.165386 q 0.968687,0.61429 2.268145,1.05138 1.299458,0.42527 2.551663,0.42527 0.838742,0 1.618417,-0.23626 0.791488,-0.23627 1.405777,-0.82693 0.519783,-0.50797 0.779675,-1.21676 0.271705,-0.7088 0.271705,-1.64205 0,-0.90962 -0.318958,-1.53572 -0.307145,-0.6261 -0.862368,-1.00413 -0.614289,-0.4489 -1.500283,-0.6261 -0.874181,-0.18901 -1.961001,-0.18901 -1.039566,0 -2.008253,0.14176 -0.956874,0.14176 -1.653856,0.28352 v -9.06077 h 10.584677 v 2.06732 h -8.304719 v 4.67805 q 0.50797,-0.0473 1.039567,-0.0709 0.531596,-0.0236 0.921434,-0.0236 1.429404,0 2.50441,0.24808 1.075006,0.23627 1.972814,0.85055 0.94506,0.64973 1.464843,1.67749 0.519784,1.02775 0.519784,2.57529 z m 15.498991,-3.21321 q 0,4.73712 -1.48847,6.95801 -1.47666,2.20908 -4.595356,2.20908 -3.165953,0 -4.630796,-2.24452 -1.453031,-2.24452 -1.453031,-6.89894 0,-4.68986 1.476657,-6.92257 1.476657,-2.24452 4.60717,-2.24452 3.165956,0 4.618986,2.27996 1.46484,2.26814 1.46484,6.8635 z m -3.10689,5.36322 q 0.41347,-0.95687 0.55523,-2.24452 0.15357,-1.29946 0.15357,-3.1187 0,-1.79561 -0.15357,-3.1187 -0.14176,-1.32308 -0.56704,-2.24452 -0.41346,-0.90962 -1.13407,-1.37033 -0.708797,-0.46072 -1.831056,-0.46072 -1.110446,0 -1.842868,0.46072 -0.720609,0.46071 -1.145886,1.39396 -0.401651,0.87418 -0.555223,2.27996 -0.141759,1.40578 -0.141759,3.08326 0,1.84287 0.129946,3.08326 0.129946,1.24039 0.555223,2.22089 0.389837,0.92143 1.098633,1.40578 0.720608,0.48434 1.901934,0.48434 1.110446,0 1.842866,-0.46072 0.73242,-0.46071 1.13407,-1.39396 z"
     id="text68"
     style="font-size:24.1935px;text-anchor:end"
     aria-label="150" /><polyline
     fill="none"
     opacity="1"
     stroke="#000000"
     stroke-width="1"
     points="110,377 115,377 "
     id="polyline69" /><path
     d="M 73.667118,184.04839 H 61.759356 v -2.46897 q 1.240392,-1.0632 2.480784,-2.12639 1.252205,-1.06319 2.327212,-2.11457 2.268145,-2.19727 3.106886,-3.48491 0.838741,-1.29946 0.838741,-2.79974 0,-1.37034 -0.909621,-2.1382 -0.897807,-0.77968 -2.516223,-0.77968 -1.075006,0 -2.327212,0.37803 -1.252205,0.37802 -2.445344,1.15769 h -0.118132 v -2.48078 q 0.838741,-0.41346 2.232705,-0.75605 1.405778,-0.34258 2.717049,-0.34258 2.705236,0 4.240959,1.31127 1.535723,1.29946 1.535723,3.53216 0,1.00413 -0.259891,1.87831 -0.248079,0.86237 -0.744235,1.64204 -0.460717,0.73243 -1.08682,1.44122 -0.614289,0.7088 -1.500283,1.57116 -1.264019,1.2404 -2.61073,2.40991 -1.346711,1.1577 -2.516224,2.15001 h 9.462418 z m 15.357233,-8.80088 q 0,4.73712 -1.48847,6.95801 -1.476657,2.20908 -4.595357,2.20908 -3.165952,0 -4.630796,-2.24452 -1.45303,-2.24452 -1.45303,-6.89894 0,-4.68986 1.476657,-6.92257 1.476657,-2.24452 4.607169,-2.24452 3.165953,0 4.618984,2.27996 1.464843,2.26814 1.464843,6.8635 z m -3.106886,5.36322 q 0.413464,-0.95687 0.555223,-2.24452 0.153572,-1.29946 0.153572,-3.1187 0,-1.79561 -0.153572,-3.1187 -0.141759,-1.32308 -0.567036,-2.24452 -0.413464,-0.90962 -1.134073,-1.37033 -0.708795,-0.46072 -1.831055,-0.46072 -1.110446,0 -1.842867,0.46072 -0.720609,0.46071 -1.145886,1.39396 -0.401651,0.87418 -0.555223,2.27996 -0.141759,1.40578 -0.141759,3.08326 0,1.84287 0.129945,3.08326 0.129946,1.24039 0.555223,2.22089 0.389838,0.92143 1.098633,1.40578 0.720609,0.48434 1.901934,0.48434 1.110447,0 1.842868,-0.46072 0.732422,-0.46071 1.134073,-1.39396 z m 18.487745,-5.36322 q 0,4.73712 -1.48847,6.95801 -1.47666,2.20908 -4.595356,2.20908 -3.165953,0 -4.630796,-2.24452 -1.453031,-2.24452 -1.453031,-6.89894 0,-4.68986 1.476657,-6.92257 1.476657,-2.24452 4.60717,-2.24452 3.165956,0 4.618986,2.27996 1.46484,2.26814 1.46484,6.8635 z m -3.10689,5.36322 q 0.41347,-0.95687 0.55523,-2.24452 0.15357,-1.29946 0.15357,-3.1187 0,-1.79561 -0.15357,-3.1187 -0.14176,-1.32308 -0.56704,-2.24452 -0.41346,-0.90962 -1.13407,-1.37033 -0.708797,-0.46072 -1.831056,-0.46072 -1.110446,0 -1.842868,0.46072 -0.720609,0.46071 -1.145886,1.39396 -0.401651,0.87418 -0.555223,2.27996 -0.141759,1.40578 -0.141759,3.08326 0,1.84287 0.129946,3.08326 0.129946,1.24039 0.555223,2.22089 0.389837,0.92143 1.098633,1.40578 0.720608,0.48434 1.901934,0.48434 1.110446,0 1.842866,-0.46072 0.73242,-0.46071 1.13407,-1.39396 z"
     id="text69"
     style="font-size:24.1935px;text-anchor:end"
     aria-label="200" /><polyline
     fill="none"
     opacity="1"
     stroke="#000000"
     stroke-width="1"
     points="110,178 115,178 "
     id="polyline70" /><polyline
     fill="none"
     opacity="1"
     stroke="#000000"
     stroke-width="1"
     points="116,1122 1315,1122 "
     id="polyline71" /><path
     d="m 190.61445,1143.7599 h -7.37147 v -2.1382 h 7.37147 z m 15.61712,6.6272 h -11.90776 v -2.469 q 1.24039,-1.0632 2.48078,-2.1264 1.25221,-1.0632 2.32721,-2.1145 2.26815,-2.1973 3.10689,-3.4849 0.83874,-1.2995 0.83874,-2.7998 0,-1.3703 -0.90962,-2.1382 -0.89781,-0.7797 -2.51622,-0.7797 -1.07501,0 -2.32721,0.3781 -1.25221,0.378 -2.44535,1.1577 h -0.11813 v -2.4808 q 0.83874,-0.4135 2.23271,-0.7561 1.40577,-0.3426 2.71704,-0.3426 2.70524,0 4.24096,1.3113 1.53573,1.2995 1.53573,3.5322 0,1.0041 -0.2599,1.8783 -0.24807,0.8624 -0.74423,1.642 -0.46072,0.7325 -1.08682,1.4412 -0.61429,0.7088 -1.50028,1.5712 -1.26402,1.2404 -2.61073,2.4099 -1.34671,1.1577 -2.51623,2.15 h 9.46242 z m 15.35723,-8.8009 q 0,4.7371 -1.48847,6.958 -1.47665,2.2091 -4.59535,2.2091 -3.16596,0 -4.6308,-2.2445 -1.45303,-2.2445 -1.45303,-6.899 0,-4.6898 1.47666,-6.9225 1.47665,-2.2445 4.60717,-2.2445 3.16595,0 4.61898,2.2799 1.46484,2.2682 1.46484,6.8635 z m -3.10688,5.3632 q 0.41346,-0.9568 0.55522,-2.2445 0.15357,-1.2994 0.15357,-3.1187 0,-1.7956 -0.15357,-3.1187 -0.14176,-1.3231 -0.56704,-2.2445 -0.41346,-0.9096 -1.13407,-1.3703 -0.70879,-0.4608 -1.83105,-0.4608 -1.11045,0 -1.84287,0.4608 -0.72061,0.4607 -1.14589,1.3939 -0.40165,0.8742 -0.55522,2.28 -0.14176,1.4058 -0.14176,3.0832 0,1.8429 0.12995,3.0833 0.12994,1.2404 0.55522,2.2209 0.38984,0.9214 1.09863,1.4058 0.72061,0.4843 1.90194,0.4843 1.11044,0 1.84287,-0.4607 0.73242,-0.4607 1.13407,-1.394 z m 18.48774,-5.3632 q 0,4.7371 -1.48847,6.958 -1.47665,2.2091 -4.59535,2.2091 -3.16596,0 -4.6308,-2.2445 -1.45303,-2.2445 -1.45303,-6.899 0,-4.6898 1.47666,-6.9225 1.47665,-2.2445 4.60717,-2.2445 3.16595,0 4.61898,2.2799 1.46484,2.2682 1.46484,6.8635 z m -3.10688,5.3632 q 0.41346,-0.9568 0.55522,-2.2445 0.15357,-1.2994 0.15357,-3.1187 0,-1.7956 -0.15357,-3.1187 -0.14176,-1.3231 -0.56704,-2.2445 -0.41346,-0.9096 -1.13407,-1.3703 -0.70879,-0.4608 -1.83105,-0.4608 -1.11045,0 -1.84287,0.4608 -0.72061,0.4607 -1.14589,1.3939 -0.40165,0.8742 -0.55522,2.28 -0.14176,1.4058 -0.14176,3.0832 0,1.8429 0.12995,3.0833 0.12994,1.2404 0.55522,2.2209 0.38984,0.9214 1.09863,1.4058 0.72061,0.4843 1.90194,0.4843 1.11044,0 1.84286,-0.4607 0.73243,-0.4607 1.13408,-1.394 z"
     id="text71"
     style="font-size:24.1935px;text-anchor:middle"
     aria-label="-200" /><polyline
     fill="none"
     opacity="1"
     stroke="#000000"
     stroke-width="1"
     points="210,1122 210,1127 "
     id="polyline72" /><path
     d="m 589.61445,1143.7599 h -7.37147 v -2.1382 h 7.37147 z m 14.61299,6.6272 h -9.52148 v -1.7956 h 3.66211 v -11.7896 h -3.66211 v -1.6067 q 0.74424,0 1.59479,-0.1181 0.85055,-0.1299 1.28764,-0.3662 0.54341,-0.2953 0.85056,-0.7442 0.31896,-0.4607 0.36621,-1.2286 h 1.83105 v 15.8534 h 3.59123 z m 16.36136,-8.8009 q 0,4.7371 -1.48847,6.958 -1.47665,2.2091 -4.59535,2.2091 -3.16596,0 -4.6308,-2.2445 -1.45303,-2.2445 -1.45303,-6.899 0,-4.6898 1.47666,-6.9225 1.47665,-2.2445 4.60717,-2.2445 3.16595,0 4.61898,2.2799 1.46484,2.2682 1.46484,6.8635 z m -3.10688,5.3632 q 0.41346,-0.9568 0.55522,-2.2445 0.15357,-1.2994 0.15357,-3.1187 0,-1.7956 -0.15357,-3.1187 -0.14176,-1.3231 -0.56704,-2.2445 -0.41346,-0.9096 -1.13407,-1.3703 -0.70879,-0.4608 -1.83105,-0.4608 -1.11045,0 -1.84287,0.4608 -0.72061,0.4607 -1.14589,1.3939 -0.40165,0.8742 -0.55522,2.28 -0.14176,1.4058 -0.14176,3.0832 0,1.8429 0.12995,3.0833 0.12994,1.2404 0.55522,2.2209 0.38984,0.9214 1.09863,1.4058 0.72061,0.4843 1.90194,0.4843 1.11044,0 1.84287,-0.4607 0.73242,-0.4607 1.13407,-1.394 z m 18.48774,-5.3632 q 0,4.7371 -1.48847,6.958 -1.47665,2.2091 -4.59535,2.2091 -3.16596,0 -4.6308,-2.2445 -1.45303,-2.2445 -1.45303,-6.899 0,-4.6898 1.47666,-6.9225 1.47665,-2.2445 4.60717,-2.2445 3.16595,0 4.61898,2.2799 1.46484,2.2682 1.46484,6.8635 z m -3.10688,5.3632 q 0.41346,-0.9568 0.55522,-2.2445 0.15357,-1.2994 0.15357,-3.1187 0,-1.7956 -0.15357,-3.1187 -0.14176,-1.3231 -0.56704,-2.2445 -0.41346,-0.9096 -1.13407,-1.3703 -0.70879,-0.4608 -1.83105,-0.4608 -1.11045,0 -1.84287,0.4608 -0.72061,0.4607 -1.14589,1.3939 -0.40165,0.8742 -0.55522,2.28 -0.14176,1.4058 -0.14176,3.0832 0,1.8429 0.12995,3.0833 0.12994,1.2404 0.55522,2.2209 0.38984,0.9214 1.09863,1.4058 0.72061,0.4843 1.90194,0.4843 1.11044,0 1.84286,-0.4607 0.73243,-0.4607 1.13408,-1.394 z"
     id="text72"
     style="font-size:24.1935px;text-anchor:middle"
     aria-label="-100" /><polyline
     fill="none"
     opacity="1"
     stroke="#000000"
     stroke-width="1"
     points="609,1122 609,1127 "
     id="polyline73" /><path
     d="m 1014.0956,1141.5862 q 0,4.7371 -1.4884,6.958 -1.4767,2.2091 -4.5954,2.2091 -3.1659,0 -4.6308,-2.2445 -1.453,-2.2445 -1.453,-6.899 0,-4.6898 1.4766,-6.9225 1.4767,-2.2445 4.6072,-2.2445 3.166,0 4.619,2.2799 1.4648,2.2682 1.4648,6.8635 z m -3.1068,5.3632 q 0.4134,-0.9568 0.5552,-2.2445 0.1535,-1.2994 0.1535,-3.1187 0,-1.7956 -0.1535,-3.1187 -0.1418,-1.3231 -0.5671,-2.2445 -0.4134,-0.9096 -1.134,-1.3703 -0.7088,-0.4608 -1.8311,-0.4608 -1.1104,0 -1.8429,0.4608 -0.7206,0.4607 -1.1458,1.3939 -0.4017,0.8742 -0.5553,2.28 -0.1417,1.4058 -0.1417,3.0832 0,1.8429 0.1299,3.0833 0.13,1.2404 0.5552,2.2209 0.3899,0.9214 1.0987,1.4058 0.7206,0.4843 1.9019,0.4843 1.1105,0 1.8429,-0.4607 0.7324,-0.4607 1.1341,-1.394 z"
     id="text73"
     style="font-size:24.1935px;text-anchor:middle"
     aria-label="0" /><polyline
     fill="none"
     opacity="1"
     stroke="#000000"
     stroke-width="1"
     points="1008,1122 1008,1127 "
     id="polyline74" /><polyline
     fill="none"
     opacity="0.2"
     stroke="#1F77B4"
     stroke-width="1"
     points="1008,976 1008,976 1208,976 1208,477 1208,437 1208,178 809,178 769,178 170,178 "
     id="polyline75" /><polyline
     fill="none"
     opacity="0.2"
     stroke="#1F77B4"
     stroke-width="1"
     points="1008,976 1008,976 1208,976 1208,477 1208,437 1208,178 809,178 769,178 170,178 "
     id="polyline76" /><polyline
     fill="none"
     opacity="0.2"
     stroke="#1F77B4"
     stroke-width="1"
     points="1008,966 1008,966 1219,966 1219,477 1218,437 1217,187 809,185 769,184 170,179 "
     id="polyline77" /><polyline
     fill="none"
     opacity="0.2"
     stroke="#1F77B4"
     stroke-width="1"
     points="1008,966 1008,966 1219,966 1219,477 1218,437 1217,187 809,185 769,184 170,179 "
     id="polyline78" /><polyline
     fill="none"
     opacity="0.2"
     stroke="#1F77B4"
     stroke-width="1"
     points="1008,976 1008,976 1208,976 1208,477 1208,437 1208,178 809,178 769,178 170,178 "
     id="polyline79" /><polyline
     fill="none"
     opacity="0.2"
     stroke="#1F77B4"
     stroke-width="1"
     points="1008,987 1008,987 1198,987 1198,477 1198,437 1199,169 809,171 769,171 170,176 "
     id="polyline80" /><polyline
     fill="none"
     opacity="0.2"
     stroke="#1F77B4"
     stroke-width="1"
     points="1008,987 1008,987 1198,987 1198,477 1198,437 1199,169 809,171 769,171 170,176 "
     id="polyline81" /><polyline
     fill="none"
     opacity="0.2"
     stroke="#1F77B4"
     stroke-width="1"
     points="1008,976 1008,976 1208,976 1208,477 1208,437 1208,178 809,178 769,178 170,178 "
     id="polyline82" /><polyline
     fill="none"
     opacity="0.2"
     stroke="#1F77B4"
     stroke-width="1"
     points="1008,966 1008,966 1219,966 1219,477 1218,437 1217,187 809,185 769,184 170,179 "
     id="polyline83" /><polyline
     fill="none"
     opacity="0.2"
     stroke="#1F77B4"
     stroke-width="1"
     points="1008,955 1008,955 1229,955 1229,477 1229,437 1226,196 809,191 769,191 170,181 "
     id="polyline84" /><polyline
     fill="none"
     opacity="0.2"
     stroke="#1F77B4"
     stroke-width="1"
     points="1008,955 1008,955 1229,955 1229,477 1229,437 1226,196 809,191 769,191 170,181 "
     id="polyline85" /><polyline
     fill="none"
     opacity="0.2"
     stroke="#1F77B4"
     stroke-width="1"
     points="1008,955 1008,955 1229,955 1229,477 1229,437 1226,196 809,191 769,191 170,181 "
     id="polyline86" /><polyline
     fill="none"
     opacity="0.2"
     stroke="#1F77B4"
     stroke-width="1"
     points="1008,966 1008,966 1219,966 1219,477 1218,437 1217,187 809,185 769,184 170,179 "
     id="polyline87" /><polyline
     fill="none"
     opacity="0.2"
     stroke="#1F77B4"
     stroke-width="1"
     points="1008,976 1008,976 1208,976 1208,477 1208,437 1208,178 809,178 769,178 170,178 "
     id="polyline88" /><polyline
     fill="none"
     opacity="0.2"
     stroke="#1F77B4"
     stroke-width="1"
     points="1008,987 1008,987 1198,987 1198,477 1198,437 1199,169 809,171 769,171 170,176 "
     id="polyline89" /><polyline
     fill="none"
     opacity="0.2"
     stroke="#1F77B4"
     stroke-width="1"
     points="1008,997 1008,997 1187,997 1187,477 1188,437 1190,160 809,164 769,164 170,175 "
     id="polyline90" /><polyline
     fill="none"
     opacity="0.2"
     stroke="#1F77B4"
     stroke-width="1"
     points="1008,997 1008,997 1187,997 1187,477 1188,437 1190,160 809,164 769,164 170,175 "
     id="polyline91" /><polyline
     fill="none"
     opacity="0.2"
     stroke="#1F77B4"
     stroke-width="1"
     points="1008,997 1008,997 1187,997 1187,477 1188,437 1190,160 809,164 769,164 170,175 "
     id="polyline92" /><polyline
     fill="none"
     opacity="0.2"
     stroke="#1F77B4"
     stroke-width="1"
     points="1008,987 1008,987 1198,987 1198,477 1198,437 1199,169 809,171 769,171 170,176 "
     id="polyline93" /><polyline
     fill="none"
     opacity="0.2"
     stroke="#1F77B4"
     stroke-width="1"
     points="1008,976 1008,976 1208,976 1208,477 1208,437 1208,178 809,178 769,178 170,178 "
     id="polyline94" /><polyline
     fill="none"
     opacity="0.2"
     stroke="#1F77B4"
     stroke-width="1"
     points="1008,966 1008,966 1219,966 1219,477 1218,437 1217,187 809,185 769,184 170,179 "
     id="polyline95" /><polyline
     fill="none"
     opacity="0.2"
     stroke="#1F77B4"
     stroke-width="1"
     points="1008,955 1008,955 1229,955 1229,477 1229,437 1226,196 809,191 769,191 170,181 "
     id="polyline96" /><polyline
     fill="none"
     opacity="0.2"
     stroke="#1F77B4"
     stroke-width="1"
     points="1008,945 1008,945 1239,945 1239,477 1239,437 1235,205 809,198 769,198 170,182 "
     id="polyline97" /><polyline
     fill="none"
     opacity="0.2"
     stroke="#1F77B4"
     stroke-width="1"
     points="1008,945 1008,945 1239,945 1239,477 1239,437 1235,205 809,198 769,198 170,182 "
     id="polyline98" /><polyline
     fill="none"
     opacity="0.2"
     stroke="#1F77B4"
     stroke-width="1"
     points="1008,945 1008,945 1239,945 1239,477 1239,437 1235,205 809,198 769,198 170,182 "
     id="polyline99" /><polyline
     fill="none"
     opacity="0.2"
     stroke="#1F77B4"
     stroke-width="1"
     points="1008,945 1008,945 1239,945 1239,477 1239,437 1235,205 809,198 769,198 170,182 "
     id="polyline100" /><polyline
     fill="none"
     opacity="0.2"
     stroke="#1F77B4"
     stroke-width="1"
     points="1008,955 1008,955 1229,955 1229,477 1229,437 1226,196 809,191 769,191 170,181 "
     id="polyline101" /><polyline
     fill="none"
     opacity="0.2"
     stroke="#1F77B4"
     stroke-width="1"
     points="1008,966 1008,966 1219,966 1219,477 1218,437 1217,187 809,185 769,184 170,179 "
     id="polyline102" /><polyline
     fill="none"
     opacity="0.2"
     stroke="#1F77B4"
     stroke-width="1"
     points="1008,976 1008,976 1208,976 1208,477 1208,437 1208,178 809,178 769,178 170,178 "
     id="polyline103" /><polyline
     fill="none"
     opacity="0.2"
     stroke="#1F77B4"
     stroke-width="1"
     points="1008,987 1008,987 1198,987 1198,477 1198,437 1199,169 809,171 769,171 170,176 "
     id="polyline104" /><polyline
     fill="none"
     opacity="0.2"
     stroke="#1F77B4"
     stroke-width="1"
     points="1008,997 1008,997 1187,997 1187,477 1188,437 1190,160 809,164 769,164 170,175 "
     id="polyline105" /><polyline
     fill="none"
     opacity="0.2"
     stroke="#1F77B4"
     stroke-width="1"
     points="1008,1007 1008,1007 1177,1007 1177,477 1177,437 1182,151 809,157 769,158 170,173 "
     id="polyline106" /><polyline
     fill="none"
     opacity="0.2"
     stroke="#1F77B4"
     stroke-width="1"
     points="1008,1007 1008,1007 1177,1007 1177,477 1177,437 1182,151 809,157 769,158 170,173 "
     id="polyline107" /><polyline
     fill="none"
     opacity="0.2"
     stroke="#1F77B4"
     stroke-width="1"
     points="1008,1007 1008,1007 1177,1007 1177,477 1177,437 1182,151 809,157 769,158 170,173 "
     id="polyline108" /><polyline
     fill="none"
     opacity="0.2"
     stroke="#1F77B4"
     stroke-width="1"
     points="1008,1007 1008,1007 1177,1007 1177,477 1177,437 1182,151 809,157 769,158 170,173 "
     id="polyline109" /><polyline
     fill="none"
     opacity="0.2"
     stroke="#1F77B4"
     stroke-width="1"
     points="1008,997 1008,997 1187,997 1187,477 1188,437 1190,160 809,164 769,164 170,175 "
     id="polyline110" /><polyline
     fill="none"
     opacity="0.2"
     stroke="#1F77B4"
     stroke-width="1"
     points="1008,987 1008,987 1198,987 1198,477 1198,437 1199,169 809,171 769,171 170,176 "
     id="polyline111" /><polyline
     fill="none"
     opacity="0.2"
     stroke="#1F77B4"
     stroke-width="1"
     points="1008,976 1008,976 1208,976 1208,477 1208,438 1208,178 809,178 769,178 170,178 "
     id="polyline112" /><polyline
     fill="none"
     opacity="0.2"
     stroke="#1F77B4"
     stroke-width="1"
     points="1008,966 1008,966 1219,966 1219,477 1218,438 1217,187 809,185 769,184 170,179 "
     id="polyline113" /><polyline
     fill="none"
     opacity="0.2"
     stroke="#1F77B4"
     stroke-width="1"
     points="1008,955 1008,955 1229,955 1229,477 1229,438 1226,196 809,191 769,191 170,181 "
     id="polyline114" /><polyline
     fill="none"
     opacity="0.2"
     stroke="#1F77B4"
     stroke-width="1"
     points="1008,945 1008,945 1239,945 1239,477 1239,438 1235,205 809,198 769,198 170,182 "
     id="polyline115" /><polyline
     fill="none"
     opacity="0.2"
     stroke="#1F77B4"
     stroke-width="1"
     points="1008,935 1008,935 1250,935 1250,477 1249,438 1245,214 809,205 769,204 170,184 "
     id="polyline116" /><polyline
     fill="none"
     opacity="0.2"
     stroke="#1F77B4"
     stroke-width="1"
     points="1008,935 1008,935 1250,935 1250,477 1249,438 1245,214 809,205 769,204 170,184 "
     id="polyline117" /><polyline
     fill="none"
     opacity="0.2"
     stroke="#1F77B4"
     stroke-width="1"
     points="1008,935 1008,935 1250,935 1250,477 1249,438 1245,214 809,205 769,204 170,184 "
     id="polyline118" /><polyline
     fill="none"
     opacity="0.2"
     stroke="#1F77B4"
     stroke-width="1"
     points="1008,935 1008,935 1250,935 1250,477 1249,438 1245,214 809,205 769,204 170,184 "
     id="polyline119" /><polyline
     fill="none"
     opacity="0.2"
     stroke="#1F77B4"
     stroke-width="1"
     points="1008,935 1008,935 1250,935 1250,477 1249,438 1245,214 809,205 769,204 170,184 "
     id="polyline120" /><polyline
     fill="none"
     opacity="0.2"
     stroke="#1F77B4"
     stroke-width="1"
     points="1008,945 1008,945 1239,945 1239,477 1239,438 1235,205 809,198 769,198 170,182 "
     id="polyline121" /><polyline
     fill="none"
     opacity="0.2"
     stroke="#1F77B4"
     stroke-width="1"
     points="1008,955 1008,955 1229,955 1229,477 1229,438 1226,196 809,191 769,191 170,181 "
     id="polyline122" /><polyline
     fill="none"
     opacity="0.2"
     stroke="#1F77B4"
     stroke-width="1"
     points="1008,966 1008,966 1219,966 1219,477 1218,438 1217,187 809,185 769,184 170,179 "
     id="polyline123" /><polyline
     fill="none"
     opacity="0.2"
     stroke="#1F77B4"
     stroke-width="1"
     points="1008,976 1008,976 1208,976 1208,477 1208,438 1208,178 809,178 769,178 170,178 "
     id="polyline124" /><polyline
     fill="none"
     opacity="0.2"
     stroke="#1F77B4"
     stroke-width="1"
     points="1008,987 1008,987 1198,987 1198,477 1198,438 1199,169 809,171 769,171 170,176 "
     id="polyline125" /><polyline
     fill="none"
     opacity="0.2"
     stroke="#1F77B4"
     stroke-width="1"
     points="1008,997 1008,997 1187,997 1187,477 1188,438 1190,160 809,164 769,164 170,175 "
     id="polyline126" /><polyline
     fill="none"
     opacity="0.2"
     stroke="#1F77B4"
     stroke-width="1"
     points="1008,1007 1008,1007 1177,1007 1177,477 1177,438 1182,151 809,157 769,158 170,173 "
     id="polyline127" /><polyline
     fill="none"
     opacity="0.2"
     stroke="#1F77B4"
     stroke-width="1"
     points="1008,1018 1008,1018 1167,1018 1167,477 1167,438 1173,143 809,150 769,151 170,171 "
     id="polyline128" /><polyline
     fill="none"
     opacity="0.2"
     stroke="#1F77B4"
     stroke-width="1"
     points="1008,1018 1008,1018 1167,1018 1167,477 1167,438 1173,143 809,150 769,151 170,171 "
     id="polyline129" /><polyline
     fill="none"
     opacity="0.2"
     stroke="#1F77B4"
     stroke-width="1"
     points="1008,1018 1008,1018 1167,1018 1167,477 1167,438 1173,143 809,150 769,151 170,171 "
     id="polyline130" /><polyline
     fill="none"
     opacity="0.2"
     stroke="#1F77B4"
     stroke-width="1"
     points="1008,1018 1008,1018 1167,1018 1167,477 1167,438 1173,143 809,150 769,151 170,171 "
     id="polyline131" /><polyline
     fill="none"
     opacity="0.2"
     stroke="#1F77B4"
     stroke-width="1"
     points="1008,1018 1008,1018 1167,1018 1167,477 1167,438 1173,143 809,150 769,151 170,171 "
     id="polyline132" /><polyline
     fill="none"
     opacity="0.2"
     stroke="#1F77B4"
     stroke-width="1"
     points="1008,1007 1008,1007 1177,1007 1177,477 1177,438 1182,151 809,157 769,158 170,173 "
     id="polyline133" /><polyline
     fill="none"
     opacity="0.2"
     stroke="#1F77B4"
     stroke-width="1"
     points="1008,997 1008,997 1187,997 1187,477 1188,438 1190,160 809,164 769,164 170,175 "
     id="polyline134" /><polyline
     fill="none"
     opacity="0.2"
     stroke="#1F77B4"
     stroke-width="1"
     points="1008,987 1008,987 1198,987 1198,477 1198,438 1199,169 809,171 769,171 170,176 "
     id="polyline135" /><polyline
     fill="none"
     opacity="0.2"
     stroke="#1F77B4"
     stroke-width="1"
     points="1008,976 1008,976 1208,976 1208,476 1208,438 1208,178 808,178 769,178 170,178 "
     id="polyline136" /><polyline
     fill="none"
     opacity="0.2"
     stroke="#1F77B4"
     stroke-width="1"
     points="1008,966 1008,966 1219,966 1219,476 1218,438 1217,187 809,185 769,184 170,179 "
     id="polyline137" /><polyline
     fill="none"
     opacity="0.2"
     stroke="#1F77B4"
     stroke-width="1"
     points="1008,955 1008,955 1229,955 1229,476 1229,438 1226,196 809,191 769,191 170,181 "
     id="polyline138" /><polyline
     fill="none"
     opacity="0.2"
     stroke="#1F77B4"
     stroke-width="1"
     points="1008,945 1008,945 1239,945 1239,476 1239,438 1235,205 809,198 769,198 170,182 "
     id="polyline139" /><polyline
     fill="none"
     opacity="0.2"
     stroke="#1F77B4"
     stroke-width="1"
     points="1008,935 1008,935 1250,935 1250,476 1249,438 1245,214 809,205 769,204 170,184 "
     id="polyline140" /><polyline
     fill="none"
     opacity="0.2"
     stroke="#1F77B4"
     stroke-width="1"
     points="1008,924 1008,924 1260,924 1260,476 1260,438 1254,224 808,212 769,211 170,185 "
     id="polyline141" /><polyline
     fill="none"
     opacity="0.2"
     stroke="#1F77B4"
     stroke-width="1"
     points="1008,924 1008,924 1260,924 1260,476 1260,438 1254,224 809,212 769,211 170,185 "
     id="polyline142" /><polyline
     fill="none"
     opacity="0.2"
     stroke="#1F77B4"
     stroke-width="1"
     points="1008,924 1008,924 1260,924 1260,476 1260,438 1254,224 809,212 769,211 170,185 "
     id="polyline143" /><polyline
     fill="none"
     opacity="0.2"
     stroke="#1F77B4"
     stroke-width="1"
     points="1008,924 1008,924 1260,924 1260,476 1260,438 1254,224 809,212 769,211 170,185 "
     id="polyline144" /><polyline
     fill="none"
     opacity="0.2"
     stroke="#1F77B4"
     stroke-width="1"
     points="1008,924 1008,924 1260,924 1260,476 1260,438 1254,224 809,212 769,211 170,185 "
     id="polyline145" /><polyline
     fill="none"
     opacity="0.2"
     stroke="#1F77B4"
     stroke-width="1"
     points="1008,924 1008,924 1260,924 1260,476 1260,438 1254,224 808,212 769,211 170,185 "
     id="polyline146" /><polyline
     fill="none"
     opacity="0.2"
     stroke="#1F77B4"
     stroke-width="1"
     points="1008,935 1008,935 1250,935 1250,476 1249,438 1245,214 809,205 769,204 170,184 "
     id="polyline147" /><polyline
     fill="none"
     opacity="0.2"
     stroke="#1F77B4"
     stroke-width="1"
     points="1008,945 1008,945 1239,945 1239,476 1239,438 1235,205 809,198 769,198 170,182 "
     id="polyline148" /><polyline
     fill="none"
     opacity="0.2"
     stroke="#1F77B4"
     stroke-width="1"
     points="1008,955 1008,955 1229,955 1229,476 1229,438 1226,196 809,191 769,191 170,181 "
     id="polyline149" /><polyline
     fill="none"
     opacity="0.2"
     stroke="#1F77B4"
     stroke-width="1"
     points="1008,966 1008,966 1219,966 1219,476 1218,438 1217,187 809,185 769,184 170,179 "
     id="polyline150" /><polyline
     fill="none"
     opacity="0.2"
     stroke="#1F77B4"
     stroke-width="1"
     points="1008,976 1008,976 1208,976 1208,476 1208,438 1208,178 808,178 769,178 170,178 "
     id="polyline151" /><polyline
     fill="none"
     opacity="0.2"
     stroke="#1F77B4"
     stroke-width="1"
     points="1008,987 1008,987 1198,987 1198,476 1198,438 1199,169 809,171 769,171 170,176 "
     id="polyline152" /><polyline
     fill="none"
     opacity="0.2"
     stroke="#1F77B4"
     stroke-width="1"
     points="1008,997 1008,997 1187,997 1187,476 1188,438 1190,160 809,164 769,164 170,175 "
     id="polyline153" /><polyline
     fill="none"
     opacity="0.2"
     stroke="#1F77B4"
     stroke-width="1"
     points="1008,1007 1008,1007 1177,1007 1177,476 1177,438 1182,151 809,157 769,158 170,173 "
     id="polyline154" /><polyline
     fill="none"
     opacity="0.2"
     stroke="#1F77B4"
     stroke-width="1"
     points="1008,1018 1008,1018 1167,1018 1167,476 1167,438 1173,143 809,150 769,151 170,171 "
     id="polyline155" /><polyline
     fill="none"
     opacity="0.2"
     stroke="#1F77B4"
     stroke-width="1"
     points="1008,1028 1008,1028 1156,1028 1156,476 1157,438 1164,134 808,143 769,144 170,170 "
     id="polyline156" /><polyline
     fill="none"
     opacity="0.2"
     stroke="#1F77B4"
     stroke-width="1"
     points="1008,1028 1008,1028 1156,1028 1156,476 1157,438 1164,134 809,143 769,144 170,170 "
     id="polyline157" /><polyline
     fill="none"
     opacity="0.2"
     stroke="#1F77B4"
     stroke-width="1"
     points="1008,1028 1008,1028 1156,1028 1156,476 1157,438 1164,134 809,143 769,144 170,170 "
     id="polyline158" /><polyline
     fill="none"
     opacity="0.2"
     stroke="#1F77B4"
     stroke-width="1"
     points="1008,1028 1008,1028 1156,1028 1156,476 1157,438 1164,134 809,143 769,144 170,170 "
     id="polyline159" /><polyline
     fill="none"
     opacity="0.2"
     stroke="#1F77B4"
     stroke-width="1"
     points="1008,1028 1008,1028 1156,1028 1156,476 1157,438 1164,134 809,143 769,144 170,170 "
     id="polyline160" /><polyline
     fill="none"
     opacity="0.2"
     stroke="#1F77B4"
     stroke-width="1"
     points="1008,1028 1008,1028 1156,1028 1156,476 1157,438 1164,134 808,143 769,144 170,170 "
     id="polyline161" /><polyline
     fill="none"
     opacity="0.2"
     stroke="#1F77B4"
     stroke-width="1"
     points="1008,1018 1008,1018 1167,1018 1167,476 1167,438 1173,143 809,150 769,151 170,171 "
     id="polyline162" /><polyline
     fill="none"
     opacity="0.2"
     stroke="#1F77B4"
     stroke-width="1"
     points="1008,1007 1008,1007 1177,1007 1177,476 1177,438 1182,151 809,157 769,158 170,173 "
     id="polyline163" /><polyline
     fill="none"
     opacity="0.2"
     stroke="#1F77B4"
     stroke-width="1"
     points="1008,997 1008,997 1187,997 1187,476 1188,438 1190,160 809,164 769,164 170,175 "
     id="polyline164" /><polyline
     fill="none"
     opacity="0.2"
     stroke="#1F77B4"
     stroke-width="1"
     points="1008,987 1008,987 1198,987 1198,476 1198,438 1199,169 809,171 769,171 170,176 "
     id="polyline165" /><rect
     x="121"
     y="45"
     width="167"
     height="44"
     opacity="0.05"
     fill="#000000"
     stroke="none"
     id="rect165" /><rect
     x="121"
     y="45"
     width="167"
     height="44"
     opacity="1"
     fill="none"
     stroke="#000000"
     id="rect166" /><text
     x="181"
     y="55"
     dy="0.76em"
     text-anchor="start"
     font-family="Calibri"
     font-size="24.193548387096776"
     opacity="1"
     fill="#000000"
     id="text166">
Bounce: 0
</text><polyline
     fill="none"
     opacity="1"
     stroke="#1F77B4"
     stroke-width="8"
     points="131,67 151,67 "
     id="polyline166" /><path
     style="fill:#87aade;fill-opacity:0.699531;stroke:#808080;stroke-width:0.787184;stroke-linejoin:bevel;stroke-dasharray:none"
     d="m 1122.5366,452.15709 c 0,0 11.5594,2.96043 17.3317,3.81385 5.7723,0.85336 11.845,1.91097 17.6209,2.60154 5.7759,0.69061 11.2401,1.12576 17.0133,1.56096 5.7732,0.43515 11.8476,0.78189 17.6209,1.04063 5.7732,0.25869 11.3386,0.52028 17.0132,0.52028 5.6747,0 11.2401,-0.26159 17.0133,-0.52028 5.7732,-0.25874 11.8476,-0.60548 17.6208,-1.04063 5.7733,-0.4352 11.2375,-0.87035 17.0134,-1.56096 5.7758,-0.69057 11.8405,-1.47198 17.6208,-2.60154 5.7803,-1.12961 17.1259,-3.77187 17.1259,-3.77187 l 0.034,-8.19515 c 0,0 -13.0582,-2.99082 -18.9826,-3.64248 -5.9244,-0.6516 -11.3422,-1.38752 -17.0133,-2.08125 -5.6711,-0.69378 -11.2545,-1.17106 -16.9336,-1.60403 -5.6792,-0.43302 -11.5231,-0.82406 -17.0929,-0.99756 -5.5698,-0.17355 -10.9334,-0.52029 -16.4056,-0.52029 -5.4723,0 -10.8359,0.34674 -16.4057,0.52029 -5.5698,0.1735 -11.2545,0.70095 -16.9336,1.13387 -5.6793,0.43296 -11.4218,0.77394 -17.0929,1.46772 -5.6711,0.69373 -10.9873,1.30622 -17.0134,2.08125 -6.026,0.77498 -19.1398,3.73889 -19.1398,3.73889 z"
     id="path107"
     sodipodi:nodetypes="czzzzzzzzzcczzzzzzzzzcc" /><path
     style="fill:#87aade;fill-opacity:0.699531;stroke:#808080;stroke-width:0.823336;stroke-linejoin:bevel;stroke-dasharray:none"
     d="m 739.28286,265.52208 c 0,0 3.27535,-11.4296 4.21955,-17.13718 0.94414,-5.70749 2.11426,-11.71203 2.87828,-17.4231 0.76408,-5.71107 1.24553,-11.11389 1.72702,-16.82228 0.48144,-5.70847 0.86506,-11.71463 1.15133,-17.42311 0.2862,-5.70847 0.57563,-11.21133 0.57563,-16.82228 0,-5.61102 -0.28943,-11.11389 -0.57563,-16.82236 -0.28627,-5.70839 -0.66989,-11.71455 -1.15133,-17.42302 -0.48149,-5.70848 -0.96294,-11.1113 -1.72702,-16.82237 -0.76402,-5.71098 -1.62856,-11.70765 -2.87828,-17.42302 -1.24977,-5.71544 -4.17311,-16.933681 -4.17311,-16.933681 l -9.06692,-0.03327 c 0,0 -3.30897,12.911651 -4.02995,18.769571 -0.72092,5.85792 -1.53512,11.21491 -2.30265,16.82228 -0.76759,5.60746 -1.29563,11.12818 -1.77466,16.74358 -0.47908,5.61549 -0.91173,11.39374 -1.10368,16.90099 -0.19201,5.50733 -0.57563,10.81068 -0.57563,16.22154 0,5.41086 0.38362,10.71422 0.57563,16.22147 0.19195,5.50733 0.77552,11.12817 1.25448,16.74358 0.47903,5.61557 0.85627,11.29361 1.62386,16.90107 0.76753,5.60745 1.44517,10.86391 2.30265,16.82236 0.85742,5.95837 4.13662,18.92503 4.13662,18.92503 z"
     id="path107-0"
     sodipodi:nodetypes="czzzzzzzzzcczzzzzzzzzcc" /><rect
     style="fill:#86aadd;fill-opacity:0.701961;stroke:#808080;stroke-width:1.22055;stroke-linejoin:bevel;stroke-dasharray:none;stroke-opacity:1"
     id="rect76"
     width="23.223"
     height="237.70773"
     x="1543.1708"
     y="-284.28793"
     transform="matrix(0.70620874,0.70800368,-0.71087215,0.70332125,0,0)" /><rect
     style="fill:#86aadd;fill-opacity:0.701961;stroke:#808080;stroke-width:1.22055;stroke-linejoin:bevel;stroke-dasharray:none;stroke-opacity:1"
     id="rect76-6"
     width="23.223"
     height="237.70773"
     x="751.18549"
     y="852.65625"
     transform="matrix(0.71854025,-0.69548537,0.69255508,0.721365,0,0)" /></svg>
